<?xml version="1.0" encoding="UTF-8"?><svg xmlns="http://www.w3.org/2000/svg" xmlns:xlink="http://www.w3.org/1999/xlink" height="656.7" preserveAspectRatio="xMidYMid meet" version="1.0" viewBox="-0.1 -0.0 712.1 656.7" width="712.1" zoomAndPan="magnify"><g id="change1_1"><path d="M711.042,67.601l-1.11-0.052c-3.614-3.496-15.984-14.827-28.973-19.54c0.552-5.477-0.342-11.033-2.609-16.071 c0.098-0.349,0.203-0.695,0.298-1.045c0.248-0.915-0.729-1.438-1.398-1.158c-0.446-0.814-0.933-1.609-1.455-2.386 c0.463-0.395,0.605-1.239-0.062-1.684c-0.628-0.42-1.309-0.765-2.014-1.07c-1.404-1.659-2.998-3.199-4.787-4.581 c-9.796-7.566-22.648-8.429-33.05-3.305C631.372,9.809,625.837,4.136,623.537,1.9l-0.079-0.98c-0.045-0.551-0.536-0.967-1.078-0.916 c-0.55,0.044-0.96,0.527-0.916,1.077l0.09,1.113c-1.913,2.581-6.474,9.087-9.814,16.638c-1.063-0.329-2.154-0.603-3.278-0.801 c-10.415-1.84-20.485,2.623-26.299,10.649c-3.319-3.579-7.699-6.593-13.422-7.734c-15.641-3.117-37.156,8.554-42.57,11.693 l-0.934-0.186c-0.541-0.107-1.068,0.244-1.176,0.786c-0.108,0.542,0.243,1.068,0.785,1.176l1.09,0.217 c0.562,0.736,1.378,1.778,2.41,3.032H326.129H307.49c-0.034-0.066-0.059-0.113-0.063-0.121c-0.25-0.493-0.851-0.691-1.344-0.441 c-0.24,0.121-0.406,0.327-0.489,0.562h-41.233c-0.001-0.002-0.005-0.013-0.005-0.014c-0.191-0.519-0.766-0.784-1.283-0.595 c-0.291,0.107-0.489,0.338-0.585,0.609h-40.03H53.067v0.51v16.393V207.31c-8.661,1.795-15.803,7.546-19.543,15.217 c-0.36,0.163-0.723,0.319-1.082,0.485c-0.843,0.391-0.541,1.39,0.127,1.717c-0.29,0.752-0.545,1.52-0.77,2.301 c-0.606-0.189-1.337,0.104-1.245,0.895c0.091,0.788,0.27,1.566,0.511,2.332c-0.201,1.23-0.315,2.487-0.351,3.762 c-8.191-3.265-16.02-5.009-19.174-5.634l-0.578-0.756c-0.335-0.438-0.963-0.524-1.402-0.187c-0.439,0.335-0.522,0.963-0.187,1.402 l0.676,0.883c-0.348,5.016-1.053,21.777,3.704,34.75c-4.549,3.106-8.225,7.37-10.62,12.351c-0.358,0.162-0.719,0.318-1.076,0.483 c-0.841,0.391-0.541,1.387,0.123,1.715c-0.352,0.904-0.662,1.828-0.93,2.769c-0.604-0.185-1.332,0.108-1.244,0.897 c0.088,0.795,0.269,1.58,0.501,2.356c-0.371,2.156-0.526,4.382-0.431,6.657c0.518,12.367,8.133,22.756,18.751,27.416 c-2.377,7.893-3.154,15.781-3.384,18.98l-0.699,0.692c-0.393,0.388-0.396,1.021-0.007,1.414c0.195,0.197,0.453,0.296,0.71,0.296 c0.254,0,0.509-0.096,0.704-0.29l0.793-0.785c3.206-0.198,11.121-0.898,19.05-3.204c0.433,1.025,0.926,2.036,1.497,3.024 c0,0-22.357,53.203-23.854,316.446h38.433c0.001,0.54,0.427,0.986,0.971,1c0.008,0,0.017,0,0.025,0c0.541,0,0.986-0.432,0.999-0.976 c0-0.003,0-0.019,0.001-0.024H69.97h26.164c0,0.552,0.447,0.999,0.999,1c0,0,0,0,0.001,0c0.552,0,1-0.447,1-0.999 c0,0,0-0.001,0-0.001h31.141c0,0,5.228-268.254-20.157-346.514c0.955-2.751,1.425-5.722,1.296-8.809 c-0.255-6.09-2.777-11.548-6.714-15.601c0.465-0.479,0.456-1.445-0.385-1.696c-0.656-0.196-1.329-0.341-2.012-0.458 c-0.491-0.385-0.996-0.752-1.516-1.098c3.479-1.049,6.907-2.834,10.167-5.015c41.118-9.528,97.737-33.973,146.309-95.594 c11.198-14.206,20.61-27.81,28.527-40.594c35.377,38.027,88.384,74.105,165.294,82.952c81.369,9.36,132.301-18.858,161.981-46.865 c-13.843,161.315-9.808,479.291-9.808,479.291h31.465c0,0.001,0,0.007,0,0.008c0.005,0.55,0.451,0.991,1,0.991 c0.003,0,0.006,0,0.009,0c0.549-0.005,0.989-0.452,0.989-1h17.965h16.903h29.077c-1.375-241.85-13.232-489.2-15.15-527.806 c4.735-1.772,9.052-4.838,12.37-9.134c6.535-8.461,7.493-19.467,3.444-28.6c0.099-0.351,0.205-0.699,0.3-1.051 c0.249-0.917-0.732-1.44-1.401-1.157c-0.37-0.668-0.772-1.322-1.199-1.962c0.467-0.394,0.611-1.24-0.06-1.684 c-0.622-0.411-1.296-0.75-1.999-1.042c-0.804-0.935-1.685-1.821-2.628-2.66c7.772-4.165,14.147-9.033,16.656-11.044l0.95,0.044 c0.017,0,0.032,0.001,0.048,0.001c0.53,0,0.973-0.417,0.998-0.954C712.019,68.096,711.593,67.627,711.042,67.601z M69.97,193.511 V54.567h136.375C180.891,81.158,128.235,135.722,69.97,193.511z M344.78,54.567h201.033c4.691,3.406,9.811,6.159,14.958,7.184 c4.516,0.9,8.708,0.404,12.455-0.844c-4.409,6.565-7.387,13.421-8.544,16.287l-0.877,0.443c-0.493,0.249-0.69,0.851-0.441,1.343 c0.177,0.348,0.528,0.549,0.894,0.549c0.151,0,0.306-0.035,0.45-0.108l0.996-0.504c2.761,0.706,9.168,2.174,16.344,2.664 c0.249,3.702,1.357,7.333,3.282,10.577C450.364,115.44,376.323,78.124,344.78,54.567z" fill="#e2b96a"/></g><path d="M565.704,78.918l-0.996,0.504c-0.145,0.073-0.299,0.108-0.45,0.108c-0.365,0-0.717-0.201-0.894-0.549 c-0.249-0.493-0.052-1.094,0.441-1.343l0.877-0.443c1.157-2.866,4.134-9.721,8.544-16.287c-3.747,1.248-7.94,1.744-12.455,0.844 c-5.148-1.026-10.268-3.779-14.958-7.184H344.78c31.543,23.557,105.584,60.872,240.551,37.593 c-1.924-3.244-3.033-6.876-3.282-10.577C574.873,81.092,568.465,79.625,565.704,78.918z" fill="none"/><path d="M206.345,54.567H69.97v138.943C128.235,135.722,180.891,81.158,206.345,54.567z" fill="none"/><g id="change2_1"><path d="M35.275,334.343c0.212,0.633,0.457,1.259,0.72,1.882c-7.929,2.307-15.843,3.006-19.05,3.204l17.182-17.01 c-0.181,1.381-0.26,2.777-0.223,4.178c-0.25,0.319-0.504,0.634-0.751,0.956c-0.563,0.734,0.177,1.452,0.925,1.424 c0.085,0.727,0.204,1.453,0.35,2.176c-0.616,0.133-1.115,0.77-0.662,1.433C34.203,333.223,34.718,333.801,35.275,334.343z M22.803,320.548c-0.607,0.116-1.217,0.215-1.829,0.286c-0.773,0.09-1.065-0.605-0.902-1.202c-0.418-0.162-0.833-0.331-1.243-0.511 c-2.377,7.893-3.154,15.781-3.384,18.98l16.529-16.364C28.795,321.796,25.716,321.379,22.803,320.548z M106.097,252.515 c-0.477,0.403-0.971,0.791-1.492,1.153c-0.662,0.461-1.301-0.044-1.43-0.665c-6.857,0.679-13.781-1.887-18.527-7.104 c-0.511,1.19-1.105,2.336-1.769,3.435c2.201,1.985,4.137,4.338,5.702,7.042c0.917,1.584,1.659,3.22,2.25,4.884l40.761-8.879 c-2.335-1.299-7.627-4.097-14.149-6.619c-1.516,1.691-3.316,3.178-5.388,4.378C110.145,251.246,108.139,252.028,106.097,252.515z M91.614,278.061c2.961,0.635,5.723,1.826,8.173,3.457c3.479-1.049,6.907-2.834,10.167-5.015 c10.668-7.139,19.498-18.502,22.219-22.201l-40.729,8.872C92.817,268.112,92.825,273.241,91.614,278.061z M30.715,234.02 c-8.191-3.265-16.02-5.009-19.174-5.634l23.611,30.871c0.49,0.058,0.977,0.126,1.46,0.207c0.686-1.598,1.521-3.137,2.489-4.599 c-4.907-4.823-8.069-11.443-8.38-18.86C30.692,235.337,30.696,234.677,30.715,234.02z M32.482,259.059l-22.433-29.331 c-0.348,5.016-1.053,21.777,3.704,34.75c4.676-3.193,10.27-5.164,16.344-5.419C30.899,259.026,31.693,259.032,32.482,259.059z M73.997,348.989c-2.448,1.417-5.028,2.398-7.651,2.975c-0.47,0.391-0.955,0.763-1.458,1.109c-0.656,0.452-1.285-0.034-1.426-0.643 c-0.296,0.032-0.592,0.064-0.889,0.085c-0.413,3.323-0.294,6.857,0.726,10.4c0.416,1.443,0.988,2.887,1.731,4.319 c0.091,0.177,0.171,0.354,0.268,0.53c5.562,10.113,19.032,17.593,28.285,21.76c0.718,0.323,1.406,0.624,2.068,0.907 c2.594,1.11,4.706,1.909,6.003,2.376l-25.048-45.544C75.779,347.879,74.912,348.459,73.997,348.989z M92.281,324.522l19.329,8.24 c-1.237-2.567-4.24-8.415-8.485-14.221C100.155,321.401,96.442,323.505,92.281,324.522z M88.583,325.119 c-0.327,0.027-0.655,0.052-0.986,0.066c-0.091,0.004-0.18,0.002-0.271,0.005c0.117,4.781-1.057,9.517-3.377,13.688 c-1.47,2.643-3.402,5.056-5.76,7.11l25.142,45.715c1.362-6.108,6.007-30.14-1.678-44.114c-2.219-4.035-5.297-6.923-8.665-8.987 c7.861-0.853,15.023-2.989,17.961-3.949L88.583,325.119z M82.24,219.298c1.851-2.968,4.433-5.541,7.672-7.415 c3.091-1.789,6.436-2.74,9.774-2.933l11.292-20.594c-5.248,1.919-23.748,9.349-30.042,20.828c-0.866,1.579-1.461,3.177-1.852,4.77 c0.172,0.393,0.062,0.876-0.229,1.174C80.109,216.403,81.245,217.799,82.24,219.298z M104.829,209.251 c0.639-0.212,1.285-0.39,1.939-0.518c0.865-0.169,1.371,0.683,1.204,1.316c2.417,0.805,4.699,2.028,6.73,3.635 c0.511-5.261,0.191-10.7-0.352-15.237c-0.096-0.8-0.197-1.575-0.303-2.313c-0.437-3.038-0.931-5.482-1.252-6.935l-10.821,19.736 C102.934,208.98,103.887,209.084,104.829,209.251z M615.789,19.457c0.801,0.08,1.098,0.904,0.89,1.47 c0.619,0.34,1.224,0.7,1.809,1.085c0.462-0.574,1.537-0.616,1.739,0.301c0.083,0.375,0.154,0.751,0.233,1.127 c1.093,0.872,2.108,1.829,3.045,2.854l-1.952-24.098c-1.913,2.581-6.474,9.087-9.814,16.638c0.624,0.193,1.24,0.402,1.841,0.637 C614.325,19.401,615.064,19.384,615.789,19.457z M632.244,18.822c0.271-0.486,0.541-0.972,0.845-1.435 c0.434-0.659,1.255-0.532,1.658-0.087c0.375-0.204,0.751-0.403,1.133-0.591C631.372,9.809,625.837,4.136,623.537,1.9l1.878,23.182 C627.42,22.609,629.727,20.518,632.244,18.822z M638.976,110.479c-1.802-0.318-3.532-0.804-5.186-1.424L614.34,145.96 c2.498-0.95,8.046-3.198,14.175-6.564c-0.318-2.249-0.297-4.584,0.12-6.941c0.382-2.163,1.071-4.193,2.007-6.062 c0.001-0.58,0.021-1.16,0.076-1.739c0.077-0.808,0.909-1.102,1.477-0.884c3.899-5.656,10.304-9.282,17.331-9.554 c-0.581-1.157-1.076-2.349-1.49-3.565C645.099,111.056,642.052,111.023,638.976,110.479z M620.432,98.838 c-2.392,1.856-5.082,3.203-7.908,4.027c-0.982,2.28-1.684,4.764-2.169,7.351c-0.152,0.81-0.285,1.629-0.395,2.457 c-1.143,8.556-0.18,17.864,0.938,24.57c0.131,0.787,0.263,1.542,0.395,2.251c0.461,2.475,0.905,4.439,1.203,5.674l19.435-36.876 C627.27,106.165,623.34,102.868,620.432,98.838z M671.175,67.744c-0.36,0.337-0.726,0.666-1.099,0.984 c0.782,1.554,1.421,3.183,1.916,4.866c6.85-0.649,13.951,1.194,19.826,5.731c0.528,0.408,1.031,0.836,1.522,1.273 c7.772-4.165,14.147-9.033,16.656-11.044L671.175,67.744z M680.958,48.01c-0.568,5.634-2.661,11.183-6.377,15.994 c-0.491,0.635-1.007,1.238-1.535,1.825l36.886,1.72C706.317,64.054,693.947,52.722,680.958,48.01z M577.506,39.691 c0.49-2.772,1.393-5.366,2.631-7.735c0.012-0.564,0.039-1.129,0.095-1.694c0.079-0.796,0.892-1.096,1.458-0.896 c0.156-0.23,0.31-0.461,0.473-0.685c-3.319-3.579-7.699-6.593-13.422-7.734c-15.641-3.117-37.156,8.554-42.57,11.693l50.976,10.159 C577.208,41.768,577.322,40.732,577.506,39.691z M565.704,78.918c2.761,0.706,9.168,2.174,16.344,2.664 c-0.277-4.114,0.504-8.31,2.405-12.149L565.704,78.918z M578.835,53.815c-1.075-2.827-1.678-5.859-1.732-8.985l-51.166-10.197 c0.562,0.736,1.378,1.778,2.41,3.032c3.651,4.434,10.011,11.491,17.465,16.903c4.691,3.406,9.811,6.159,14.958,7.184 c4.516,0.9,8.708,0.404,12.455-0.844c-4.409,6.565-7.387,13.421-8.544,16.287l21.695-10.974c0.19-0.268,0.382-0.536,0.585-0.798 c0.056-0.072,0.115-0.139,0.171-0.21C583.4,62.223,580.532,58.276,578.835,53.815z M677.585,130.575 c-0.423-0.102-0.737-0.529-0.765-0.978c-1.791,0.14-3.596,0.11-5.39-0.095c1.079,3.328,1.385,6.959,0.734,10.645 c-0.622,3.517-2.048,6.688-4.049,9.367l8.487,21.9c1.911-5.25,8.138-24.19,3.407-36.397 C679.366,133.357,678.537,131.888,677.585,130.575z M664.564,153.262c-0.258,0.654-0.551,1.289-0.888,1.897 c-0.424,0.764-1.341,0.537-1.701-0.035c-2.182,1.343-4.599,2.308-7.151,2.831c5.037,5.147,11.327,9.335,15.764,11.96 c1.759,1.041,3.217,1.832,4.197,2.345l-8.133-20.987C665.998,151.982,665.302,152.646,664.564,153.262z" fill="#034a44"/></g><g id="change3_1"><path d="M71.734,341.394c-1.759,3.878-4.413,7.58-7.856,9.952c-0.404,0.278-0.504,0.705-0.416,1.084 c-0.296,0.032-0.592,0.064-0.889,0.085c-9.885,0.719-19.783-4.112-25.081-13.266c-0.572-0.988-1.065-1.999-1.497-3.024 c-0.263-0.622-0.508-1.249-0.72-1.882c1.357,1.319,2.994,2.397,4.554,3.394c2.731,1.747,5.605,3.324,8.681,4.372 c3.927,1.338,7.943,1.696,11.946,1.434c0.045,0.005,0.092-0.008,0.138-0.009C64.349,343.275,68.089,342.47,71.734,341.394z M46.44,339.109c1.121,0.516,2.265,0.984,3.454,1.347c3.384,1.034,6.813,1.324,10.229,1.121c0.948-0.887,1.722-1.884,2.345-2.965 c-6.09-1.41-11.43-4.693-15.478-9.391C46.356,332.495,46.155,335.837,46.44,339.109z M41.965,336.711 c0.79,0.479,1.595,0.932,2.407,1.369c-0.21-3.669,0.159-7.395,1.042-11.01c-0.032-0.205,0.024-0.394,0.136-0.555 c1.362-5.247,3.809-10.226,7.145-14.406c-0.486-0.22-0.972-0.429-1.458-0.636c-0.48,0.402-0.961,0.802-1.434,1.212 c-5.499,4.771-10.493,10.1-14.921,15.877c-0.217,0.283-0.51,0.404-0.802,0.415c0.085,0.727,0.204,1.453,0.35,2.176 c0.375-0.081,0.792,0.024,1.065,0.423C37.017,333.805,39.704,335.34,41.965,336.711z M48.39,324.029 c-0.312,0.898-0.599,1.805-0.843,2.724c2.206,2.892,4.934,5.242,8.017,7.003c0.837-0.559,1.589-1.3,2.258-2.157 c-3.185-1.822-5.748-4.72-7.238-8.067C49.853,323.675,49.121,323.841,48.39,324.029z M63.877,322.45 c-0.36-1.673-0.817-3.276-1.33-4.749c-2.529-1.808-5.244-3.374-7.997-4.718c-2.174,2.625-3.959,5.604-5.301,8.787 C54.208,320.681,59.13,320.635,63.877,322.45z M58.941,329.937c1.151-1.962,1.967-4.22,2.459-6.221 c-2.879-0.8-5.827-0.889-8.792-0.51C53.954,326.016,56.236,328.403,58.941,329.937z M64.304,324.787 c-0.333-0.154-0.667-0.298-1.002-0.431c-0.922,3.699-2.844,7.933-5.786,10.414c1.859,0.87,3.818,1.547,5.862,1.993 C64.825,333.134,64.911,328.859,64.304,324.787z M72.806,338.744c0.862-2.51,1.195-5.058,1.154-7.609 c-1.881-4.446-4.966-8.175-8.657-11.289c0.346,1.273,0.641,2.597,0.866,3.952c0.006,0.024,0.007,0.048,0.011,0.073 c0.999,6.088,0.553,12.705-3.088,17.412c3.249-0.447,6.47-1.28,9.614-2.276C72.737,338.918,72.776,338.831,72.806,338.744z M71.654,319.933c-4.237-3.414-7.296-8.252-8.419-13.83c-0.613-0.717-1.242-1.419-1.886-2.107c-0.973,0.613-1.927,1.266-2.874,1.927 c-1.886,1.316-3.721,2.702-5.515,4.139c0.532,0.237,1.062,0.483,1.591,0.734c0.031,0.013,0.061,0.026,0.091,0.043 c7.309,3.477,14.298,8.333,18.73,15.078c-0.208-1.037-0.45-2.072-0.748-3.1C72.34,321.839,72.012,320.879,71.654,319.933z M103.7,284.77c-0.216,0.222-0.525,0.349-0.917,0.232c-1.462-0.436-3.011-0.645-4.603-0.696c2.293,8.565,2.59,17.758-0.813,26.089 c-0.196,0.48-0.413,0.953-0.647,1.42c-0.021,0.045-0.043,0.087-0.069,0.127c-3.12,6.132-9.368,11.013-16.13,12.481 c2.168,0.571,4.453,0.838,6.805,0.766c0.117,4.781-1.057,9.517-3.377,13.688c-1.47,2.643-3.402,5.056-5.76,7.11 c-0.507,0.442-1.036,0.866-1.582,1.274c-0.827,0.617-1.694,1.197-2.609,1.727c-2.448,1.417-5.028,2.398-7.651,2.975 c3.394-2.821,5.943-6.73,7.641-10.747c1.338-3.164,1.921-6.355,1.939-9.594c0.147-0.203,0.196-0.474,0.063-0.798 c-0.019-0.046-0.042-0.088-0.061-0.134c-0.058-2.044-0.336-4.108-0.807-6.198c-0.201-0.891-0.441-1.768-0.703-2.636 c1.067,0.636,2.187,1.189,3.351,1.654c0.116-0.375,0.413-0.704,0.895-0.762c3.74-0.453,7.205-2.08,10.112-4.43 c-3.299-0.657-6.562-1.56-9.614-2.905c-0.028-0.016-0.062-0.022-0.088-0.041c-2.769-1.23-5.365-2.823-7.655-4.927 c-2.301-2.115-4.113-4.658-5.716-7.325c-0.584-0.972-1.178-1.985-1.702-3.032c-0.402,0.008-0.804,0.012-1.205,0.003 c-0.014,0.262-0.022,0.524-0.027,0.788c-1.718,0.879-3.345,1.958-4.95,3.069c-3.037,2.101-5.967,4.359-8.776,6.757 c-5.587,4.769-10.617,10.113-15.139,15.891c-0.037-1.401,0.042-2.798,0.223-4.178c0.035-0.266,0.07-0.531,0.113-0.795 c0.458-2.836,1.374-5.588,2.709-8.144c-4.061,3.527-8.986,6.086-14.147,7.069c-0.607,0.116-1.217,0.215-1.829,0.286 c-0.773,0.09-1.065-0.605-0.902-1.202c0.106-0.391,0.403-0.74,0.902-0.798c5.197-0.604,10.02-2.95,14.011-6.321 c-4.522-0.863-9.007-2.071-13.191-3.912c-0.038-0.02-0.082-0.029-0.116-0.053c-3.611-1.601-6.996-3.673-9.981-6.409 c-2.996-2.746-5.357-6.045-7.446-9.51c-1.406-2.331-2.938-4.89-3.743-7.581c-0.232-0.775-0.412-1.56-0.501-2.356 c-0.088-0.789,0.64-1.083,1.244-0.897c0.375,0.115,0.702,0.413,0.756,0.897c0.392,3.528,2.801,7.092,4.649,10.028 c0.401,0.637,0.822,1.258,1.247,1.875c4.485-10.005,12.974-18.393,23.037-22.749c-0.453-0.584-0.912-1.157-1.376-1.722 c-0.799,0.173-1.599,0.347-2.394,0.536c-8.3,1.967-16.368,4.788-24.104,8.379c-0.323,0.15-0.629,0.115-0.886-0.012 c-0.665-0.328-0.965-1.324-0.123-1.715c0.357-0.166,0.718-0.321,1.076-0.483c7.841-3.558,15.991-6.377,24.388-8.303 c2.314-0.531,4.643-0.99,6.982-1.389c0.352-2.64,1.058-5.225,2.108-7.674c0.686-1.598,1.521-3.137,2.489-4.599 c1.853,1.821,3.951,3.388,6.244,4.642c-3.976,3.868-7.669,8.015-11.088,12.394c-0.028-0.904-0.012-1.807,0.044-2.706 c-0.85,0.15-1.698,0.312-2.545,0.48c0.484,0.607,0.961,1.223,1.433,1.849c0.026,0.035,0.053,0.07,0.08,0.105 c0.196,0.261,0.393,0.521,0.586,0.785c-0.114,0.147-0.231,0.291-0.345,0.439c-0.562,0.734,0.176,1.451,0.922,1.425 c0.293-0.01,0.587-0.131,0.805-0.415c3.653-4.77,7.663-9.261,11.997-13.418c0.434,0.196,0.873,0.383,1.318,0.557 c0.11-0.384,0.407-0.724,0.899-0.782c4.562-0.538,8.799-2.574,12.326-5.503c-3.983-0.772-7.927-1.844-11.612-3.464 c-0.046-0.023-0.098-0.034-0.139-0.064c-3.195-1.419-6.195-3.248-8.85-5.656c-2.764-2.508-4.931-5.534-6.847-8.717 c-1.22-2.026-2.532-4.233-3.264-6.556c-0.241-0.765-0.42-1.543-0.511-2.332c-0.091-0.791,0.64-1.084,1.245-0.895 c0.373,0.116,0.699,0.414,0.755,0.895c0.367,3.176,2.517,6.341,4.183,8.984c0.316,0.501,0.65,0.985,0.982,1.471 c4.05-8.883,11.561-16.295,20.503-20.217c-0.366-0.47-0.737-0.931-1.111-1.387c-0.665,0.144-1.33,0.288-1.992,0.445 c-7.462,1.762-14.712,4.296-21.667,7.52c-0.322,0.149-0.627,0.115-0.883-0.01c-0.668-0.326-0.97-1.326-0.127-1.717 c0.359-0.166,0.721-0.323,1.082-0.485c7.059-3.191,14.392-5.721,21.951-7.442c3.79-0.863,7.622-1.523,11.48-1.999 c3.182-0.393,6.364-0.681,9.498-0.13c0.675,0.119,1.348,0.263,2.018,0.468c0.313,0.096,0.51,0.294,0.612,0.528 c0.172,0.393,0.062,0.876-0.229,1.174c-0.216,0.221-0.524,0.346-0.915,0.226c-1.868-0.573-3.769-0.745-5.68-0.717 c2.707,10.026,3.091,20.795-0.836,30.574c-0.247,0.614-0.527,1.218-0.825,1.815c-0.032,0.083-0.07,0.157-0.12,0.224 c-3.721,7.246-11.148,13.056-19.175,14.67c-0.151,0.03-0.304,0.051-0.455,0.078c-1.661,3.06-2.95,6.344-3.826,9.729 c-0.104,0.155-0.156,0.337-0.13,0.532c-0.981,4.001-1.382,8.127-1.13,12.179c-0.984-0.525-1.957-1.073-2.91-1.654 c-2.427-1.482-5.315-3.143-6.946-5.545c-0.273-0.402-0.692-0.506-1.067-0.424c-0.097,0.021-0.189,0.057-0.277,0.102 c-0.765-1.173-1.561-2.322-2.383-3.438c-3.835,1.583-7.467,3.817-10.726,6.536c5.409,1.42,10.283,3.809,14.145,7.743 c0.011,0.011,0.022,0.023,0.033,0.035c0.381,0.39,0.764,0.777,1.125,1.198c0.405-1.419,0.731-2.83,0.99-4.198 c-0.834-1.544-1.52-3.13-2.051-4.744c1.558,1.549,3.49,2.79,5.299,3.934c2.946,1.863,6.039,3.551,9.353,4.662 c4.224,1.415,8.547,1.792,12.856,1.508c0.065,0.008,0.131-0.008,0.198-0.013c4.136-0.292,8.257-1.189,12.264-2.384 c-1.925,4.299-4.858,8.441-8.688,11.07c-0.409,0.281-0.507,0.713-0.414,1.095c-0.146,0.016-0.293,0.03-0.439,0.044 c0.634,1.147,1.352,2.248,1.996,3.26c0.184,0.29,0.383,0.568,0.574,0.852c0.853-1.822,1.877-3.563,3.042-5.208 c-0.766,0.23-1.537,0.429-2.312,0.594c3.789-3.093,6.626-7.445,8.491-11.897c0.132-0.316,0.231-0.633,0.35-0.95 c0.001-0.002,0.001-0.004,0.002-0.006c1.164-3.099,1.699-6.233,1.713-9.405c0.151-0.204,0.203-0.477,0.069-0.805 c-0.018-0.044-0.04-0.085-0.058-0.128c-0.062-2.299-0.387-4.617-0.93-6.959c-0.925-3.984-2.424-7.759-4.348-11.311 c3.307-2.275,6.095-5.232,8.168-8.664c2.201,1.985,4.137,4.338,5.702,7.042c0.917,1.584,1.659,3.22,2.25,4.884 c0.225,0.634,0.434,1.271,0.613,1.913c1.374,4.937,1.382,10.066,0.171,14.886c-0.439,1.749-1.041,3.455-1.796,5.097 c3.83-0.727,7.827-1.165,11.485-0.543c0.683,0.116,1.356,0.262,2.012,0.458C104.156,283.325,104.165,284.292,103.7,284.77z M59.301,216.324c0.391,0.493,0.776,0.994,1.158,1.5c0.031,0.042,0.063,0.082,0.094,0.124c5.129,6.83,9.337,14.868,10.108,23.368 c2.603-8.706,1.957-17.907-0.447-26.579c-1.346,0.106-2.692,0.275-4.03,0.45C63.878,215.49,61.583,215.876,59.301,216.324z M52.605,228.366c-0.102,3.357,0.826,6.689,2.646,9.515c2.066-1.285,3.962-3.03,5.415-4.681 C58.345,231.011,55.596,229.471,52.605,228.366z M51.455,241.576c1.326,1.763,2.864,3.384,4.601,4.836 c3.154-2.687,5.344-6.671,6.776-10.8c-0.253-0.332-0.514-0.653-0.782-0.962C59.376,237.675,55.452,240.723,51.455,241.576z M50.099,225.477c4.786,1.285,9.078,3.417,12.507,6.896c0.022,0.021,0.042,0.043,0.062,0.065c0.293,0.299,0.591,0.591,0.87,0.911 c0.495-1.764,0.861-3.511,1.109-5.158c-1.478-2.949-3.256-5.764-5.191-8.398C56.115,221.185,52.948,223.123,50.099,225.477z M46.131,229.238c0.669,3.808,2.047,7.368,4.07,10.539c1.096-0.102,2.204-0.442,3.289-0.94c-2.097-3.265-3.121-7.257-2.843-11.123 c-0.777-0.234-1.566-0.444-2.366-0.631C47.539,227.775,46.817,228.49,46.131,229.238z M43.13,244.594 c2.277,1.966,4.814,3.491,7.503,4.701c1.371-0.366,2.624-0.939,3.771-1.672c-5.023-4.284-8.488-10.04-9.923-16.454 c-2.236,2.775-4.089,5.832-5.414,9.06C40.281,241.799,41.606,243.277,43.13,244.594z M63.634,253.031 c2.043-2.036,3.766-4.386,5.082-6.909c0.353-5.091-0.707-10.064-2.628-14.756c-0.296,1.371-0.664,2.766-1.119,4.157 c-0.014,0.108-0.05,0.21-0.106,0.304c-2.063,6.141-5.736,12.046-11.444,14.593C56.72,251.616,60.183,252.421,63.634,253.031z M43.677,292.435c0.45,1.904,0.76,3.836,0.903,5.788c0.43-1.368,0.783-2.747,1.072-4.135 C44.974,293.568,44.313,293.019,43.677,292.435z M35.033,290.02c-3.005,3.433-7.49,6.94-12.025,7.832 c1.532,2.059,3.318,3.948,5.345,5.625c3.584-3.023,6.072-7.546,7.686-12.222C35.715,290.826,35.379,290.416,35.033,290.02z M33.65,288.568c-2.655-2.532-5.818-4.298-9.264-5.551c-0.156,3.853,0.91,7.711,3.023,10.941 C29.8,292.489,31.995,290.467,33.65,288.568z M17.145,284.118c0.741,4.306,2.304,8.338,4.603,11.923 c0.004,0,0.007-0.003,0.011-0.003c1.294-0.111,2.606-0.523,3.888-1.125c-2.392-3.664-3.557-8.184-3.22-12.543 c-0.918-0.278-1.851-0.526-2.798-0.746C18.772,282.424,17.938,283.252,17.145,284.118z M13.658,301.215 c2.614,2.291,5.545,4.055,8.654,5.448c1.604-0.421,3.068-1.093,4.401-1.964c-5.717-4.816-9.656-11.372-11.226-18.651 c-2.581,3.167-4.711,6.67-6.22,10.366c-0.003,0.008-0.01,0.013-0.014,0.021C10.572,298.151,12.009,299.77,13.658,301.215z M36.836,310.826c2.314-2.298,4.263-4.955,5.747-7.806c0.339-4.719-0.416-9.354-1.912-13.797c-0.496-0.619-0.965-1.268-1.415-1.935 c-0.303,1.297-0.668,2.612-1.099,3.921c-0.013,0.064-0.033,0.125-0.061,0.183c-2.314,6.937-6.468,13.653-12.963,16.421 C28.909,309.203,32.88,310.13,36.836,310.826z M57.03,299.391c-3.399-0.759-6.655-2.127-9.601-4.05 c-0.488,2.145-1.133,4.265-1.953,6.345c-0.291,0.738-0.628,1.462-0.986,2.179c-0.043,0.153-0.111,0.283-0.205,0.39 c-0.137,0.265-0.271,0.531-0.417,0.792c1.046-0.839,2.168-1.61,3.365-2.303C50.347,300.943,53.673,299.844,57.03,299.391z M81.285,293.929c3.243,1.115,6.148,2.768,8.574,5.2c0.044,0.037,0.086,0.078,0.125,0.122c0.185,0.188,0.375,0.367,0.554,0.565 c0.375-1.38,0.656-2.743,0.856-4.04c-1.226-2.442-2.695-4.776-4.297-6.968c-0.362,0.153-0.722,0.309-1.079,0.477 C84.643,290.985,83.062,292.546,81.285,293.929z M81.48,296.12c-0.037,2.693,0.717,5.352,2.151,7.636 c1.636-1.041,3.14-2.42,4.316-3.736C86.066,298.281,83.872,297.028,81.48,296.12z M80.658,307.183 c1.055,1.373,2.256,2.649,3.614,3.802c2.58-2.239,4.377-5.509,5.566-8.91c-0.164-0.211-0.336-0.409-0.507-0.61 C87.106,303.942,83.926,306.391,80.658,307.183z M76.122,297.147c0.599,2.981,1.709,5.756,3.29,8.253 c0.818-0.091,1.644-0.333,2.457-0.69c-1.712-2.73-2.554-6.043-2.348-9.255c-0.085-0.025-0.167-0.057-0.252-0.081 c-0.426,0.277-0.862,0.546-1.307,0.803C77.356,296.527,76.741,296.844,76.122,297.147z M73.385,309.523 c1.906,1.652,4.032,2.936,6.287,3.954c1.065-0.294,2.044-0.736,2.946-1.293c-4.119-3.583-6.98-8.3-8.235-13.583 c-1.783,2.254-3.268,4.724-4.35,7.329C71.038,307.221,72.133,308.437,73.385,309.523z M90.635,316.643 c1.69-1.698,3.118-3.654,4.218-5.755c0.265-4.117-0.546-8.13-2.038-11.931c-0.227,0.981-0.499,1.975-0.819,2.964 c-0.007,0.141-0.058,0.271-0.135,0.388c-1.725,5.107-4.752,10.001-9.432,12.264C85.089,315.505,87.868,316.148,90.635,316.643z M96.113,284.328c-2.472,0.116-5,0.539-7.438,1.058c-0.237,0.417-0.484,0.828-0.742,1.233c0.052,0.069,0.105,0.137,0.157,0.206 c0.037,0.049,0.074,0.097,0.111,0.146c4.208,5.613,7.682,12.151,8.521,19.098C98.672,298.919,98.083,291.419,96.113,284.328z M47.83,285.466c1.264,0.584,2.554,1.112,3.895,1.518c3.685,1.117,7.424,1.427,11.148,1.201c1.086-1.006,1.966-2.144,2.667-3.381 c-6.729-1.524-12.644-5.166-17.081-10.385C47.731,278.077,47.502,281.816,47.83,285.466z M54.509,267.988 c1.481,3.156,4.033,5.837,7.07,7.536c1.3-2.193,2.216-4.732,2.758-6.969C61.122,267.647,57.823,267.552,54.509,267.988z M67.477,269.729c-0.411-0.192-0.823-0.369-1.237-0.531c-1.004,4.091-3.139,8.819-6.432,11.516c2.097,0.995,4.32,1.752,6.633,2.247 C68.057,278.96,68.153,274.226,67.477,269.729z M73.028,259.074c-1.58,0.928-3.26,1.706-5.022,2.316 c3.709,2.842,6.982,6.179,9.466,10.087c-0.239-1.281-0.544-2.559-0.913-3.831C75.689,264.648,74.487,261.792,73.028,259.074z M78.017,276.706c-2.088-4.965-5.556-9.114-9.701-12.564c0.414,1.479,0.766,3.026,1.029,4.613c0.002,0.007,0.002,0.014,0.003,0.021 c1.106,6.697,0.608,13.996-3.477,19.115c3.64-0.484,7.248-1.411,10.763-2.529C77.652,282.508,78.063,279.611,78.017,276.706z M49.018,271.958c2.421,3.188,5.421,5.801,8.822,7.739c0.977-0.639,1.848-1.506,2.619-2.509c-3.517-1.986-6.348-5.178-7.972-8.869 c-0.84,0.162-1.68,0.352-2.519,0.569C49.615,269.9,49.291,270.922,49.018,271.958z M65.589,262.11 c-1.804,0.446-3.678,0.72-5.606,0.801c-2.421,0.102-4.784-0.107-7.05-0.589c-0.784,1.387-1.488,2.823-2.104,4.301 c5.495-1.236,10.966-1.3,16.222,0.76C66.659,265.526,66.156,263.744,65.589,262.11z M114.702,213.684 c-2.032-1.608-4.313-2.83-6.73-3.635c-0.076,0.288-0.278,0.535-0.673,0.612c-1.364,0.266-2.706,0.752-4.018,1.382 c4.664,5.082,8.379,11.099,9.892,17.894c0.356,1.598,0.544,3.231,0.574,4.863c0.039,0.091,0.085,0.176,0.123,0.268 c0.156,0.376,0.069,0.684-0.139,0.893c-0.069,2.365-0.471,4.711-1.215,6.941c-0.012,0.034-0.016,0.069-0.031,0.101 c-1.236,3.646-3.374,6.966-6.387,9.512c2.041-0.486,4.048-1.269,5.957-2.374c2.072-1.199,3.872-2.687,5.388-4.378 c3.107-3.466,5.004-7.797,5.507-12.326c0.085-0.766,0.128-1.538,0.133-2.312c0.023-3.801-0.929-7.657-2.97-11.185 C118.675,217.457,116.824,215.363,114.702,213.684z M100.98,245.795c-0.047,0.001-0.095,0.014-0.141,0.008 c-3.427,0.222-6.863-0.101-10.213-1.293c-3.435-1.222-7.632-3.264-10.44-6.028c0.442,1.227,0.992,2.432,1.669,3.6 c0.809,1.397,1.75,2.669,2.794,3.817c4.745,5.216,11.67,7.783,18.527,7.104c-0.078-0.373,0.027-0.788,0.421-1.062 c2.712-1.887,4.834-4.763,6.276-7.817C106.958,244.963,103.974,245.587,100.98,245.795z M92.024,242.871 c2.806,0.876,5.647,1.127,8.478,0.964c0.692-0.664,1.27-1.397,1.746-2.186c-4.868-1.19-9.124-3.77-12.425-7.477 c-0.467,2.566-0.61,5.181-0.397,7.752C90.335,242.3,91.218,242.62,92.024,242.871z M110.938,241.509 c0.681-2.018,0.94-4.065,0.908-6.114c-1.485-3.47-3.848-6.409-6.684-8.884c0.224,0.88,0.42,1.785,0.574,2.707 c0.016,0.054,0.02,0.108,0.024,0.163c0.798,4.921,0.463,10.235-2.331,14.143c2.505-0.376,4.989-1.017,7.422-1.782 C110.878,241.665,110.912,241.587,110.938,241.509z M92.585,229.279c-0.525,0.104-1.051,0.226-1.577,0.359 c-0.235,0.685-0.453,1.376-0.64,2.075c1.789,2.314,3.97,4.195,6.432,5.616c0.589-0.408,1.127-0.926,1.611-1.522 C95.864,234.302,93.814,231.965,92.585,229.279z M103.879,230.251c-0.186-0.084-0.373-0.158-0.56-0.234 c-0.767,2.952-2.287,6.262-4.574,8.312c1.405,0.637,2.879,1.141,4.415,1.492C104.286,236.905,104.353,233.505,103.879,230.251z M101.419,229.374c-2.235-0.594-4.509-0.678-6.804-0.409c1.084,2.146,2.85,3.971,4.921,5.184 C100.401,232.634,101.024,230.918,101.419,229.374z M102.437,224.368c-2.033-1.45-4.212-2.71-6.424-3.798 c-1.678,2.056-3.066,4.359-4.132,6.813c3.93-0.814,7.796-0.825,11.566,0.533C103.166,226.671,102.818,225.479,102.437,224.368z M101.453,213.024c-2.322,1.367-4.527,3.11-6.558,4.835c0.369,0.166,0.735,0.34,1.102,0.514c0.041,0.017,0.08,0.034,0.119,0.056 c5.824,2.777,11.369,6.581,15.073,11.82c-0.153-0.661-0.322-1.321-0.518-1.977C108.938,222.48,105.558,217.401,101.453,213.024z M88.374,231.449c1.117-4.264,3.092-8.312,5.783-11.752c-0.309-0.138-0.618-0.272-0.926-0.404c-0.396,0.345-0.787,0.687-1.167,1.017 c-4.501,3.917-8.589,8.286-12.222,13.018c-0.216,0.281-0.507,0.402-0.797,0.414c0.061,0.496,0.146,0.99,0.242,1.484 c0.373-0.078,0.788,0.027,1.062,0.421c1.487,2.137,4.232,3.98,7.017,5.351c-0.153-2.991,0.151-6.014,0.86-8.948 C88.183,231.827,88.248,231.62,88.374,231.449z M91.304,218.332c3.902-3.327,8.479-7.411,13.525-9.082 c-0.942-0.167-1.895-0.271-2.854-0.315c-0.761-0.035-1.524-0.031-2.289,0.013c-3.338,0.194-6.683,1.144-9.774,2.933 c-3.239,1.875-5.82,4.447-7.672,7.415c-2.254,3.613-3.419,7.814-3.355,12.067C82.607,226.635,86.718,222.242,91.304,218.332z M601.031,35.391c-0.088,1.01,0,2.063,0.223,3.124c3.459-1.227,7.264-1.379,10.799-0.355c0.362-0.647,0.707-1.311,1.035-1.99 c-0.481-0.814-0.986-1.614-1.527-2.389C607.932,33.629,604.37,34.18,601.031,35.391z M617.573,47.984 c-0.625-3.343-1.755-6.624-3.319-9.701c-2.18,4.18-5.057,7.782-9.042,10.231c-0.051,0.04-0.104,0.076-0.16,0.106 c-0.242,0.146-0.495,0.279-0.745,0.416c1.51,0.801,3.027,1.482,4.474,2.031C611.798,50.299,614.752,49.231,617.573,47.984z M610.986,39.934c-3.021-0.75-6.277-0.597-9.198,0.495c0.743,2.138,1.914,4.202,3.133,5.869 C607.384,44.603,609.361,42.436,610.986,39.934z M602.808,24.963c-1.47,0.694-2.891,1.486-4.231,2.433 c-2.535,1.792-4.654,3.991-6.471,6.43c0.06,1.309,0.329,2.554,0.759,3.74c5.019-3.724,10.938-5.761,17.159-5.82 C607.933,29.149,605.508,26.841,602.808,24.963z M604.921,24.044c7.352,5.543,12.743,14.041,14.518,23.082 c0.48-0.229,0.952-0.465,1.422-0.702c0.002-0.496,0.008-0.992,0.002-1.488c-0.08-7.44-0.965-14.828-2.565-22.092 c-0.075-0.34,0.018-0.62,0.189-0.832c-0.585-0.385-1.19-0.745-1.809-1.085c-0.122,0.332-0.417,0.577-0.89,0.53 c-2.964-0.297-6.191,0.897-8.947,1.864C606.195,23.547,605.556,23.791,604.921,24.044z M582.232,30.262 c-0.44,4.452,0.545,8.794,2.521,12.649c1.492-3.426,3.229-6.755,5.391-9.763c0.061-0.171,0.163-0.304,0.296-0.402 c1.843-2.495,3.985-4.76,6.544-6.654c2.834-2.098,6.015-3.538,9.327-4.7c2.246-0.788,4.785-1.689,7.27-1.922 c-0.601-0.235-1.217-0.444-1.841-0.637c-1.063-0.329-2.154-0.603-3.278-0.801c-10.415-1.84-20.485,2.623-26.299,10.649 c-0.163,0.224-0.317,0.455-0.473,0.685C582.029,29.485,582.279,29.783,582.232,30.262z M585.999,45.055 c1.476,2.303,3.306,4.389,5.406,6.149c4.569,1.333,9.31,1.373,13.972,0.58c-6.614-3.082-13.408-8.334-14.967-15.485 C588.669,39.063,587.24,42.044,585.999,45.055z M601.257,56.604c5.341-1.042,11.014-0.264,16.003,2.471 c0.941-0.006,1.882-0.035,2.822-0.084c0.159-1.165,0.272-2.34,0.375-3.512c0.2-2.266,0.319-4.538,0.374-6.812 c-3.743,1.82-7.756,3.389-11.879,4.41c-0.051,0.014-0.096,0.037-0.151,0.04c-4.343,1.06-8.8,1.492-13.183,0.977 c0.145,0.081,0.285,0.171,0.432,0.249C597.736,55.238,599.478,55.982,601.257,56.604z M593.684,39.431 c1.841,3.437,5.057,6.263,8.554,8.419c0.34-0.163,0.673-0.332,0.997-0.51c-2.223-3.104-4.272-7.288-4.246-11.111 C597.125,37.085,595.341,38.14,593.684,39.431z M642.955,60.565c-1.681,0.791-3.302,1.703-4.83,2.798 c-2.717,1.948-4.993,4.325-6.949,6.956c0.063,1.489,0.367,2.907,0.868,4.251c5.522-4.145,12.085-6.396,18.96-6.417 C648.681,65.239,645.973,62.654,642.955,60.565z M652.015,76.941c-3.374-0.869-7.037-0.703-10.297,0.541 c0.824,2.402,2.146,4.725,3.514,6.577C647.997,82.177,650.209,79.75,652.015,76.941z M632.878,76.422 c2.016,3.804,5.575,6.934,9.438,9.31c0.421-0.199,0.833-0.407,1.232-0.627c-2.47-3.413-4.778-8.097-4.677-12.319 C636.757,73.744,634.745,74.956,632.878,76.422z M646.928,96.836c0.306-1.799,0.79-3.579,1.455-5.313 c-4.536,1.005-9.171,1.367-13.724,0.765c0.157,0.089,0.305,0.185,0.465,0.273C638.857,94.597,642.834,95.979,646.928,96.836z M640.927,71.943c-0.119,1.167-0.015,2.392,0.253,3.625c3.798-1.376,8.009-1.55,11.893-0.404c0.416-0.742,0.814-1.502,1.188-2.283 c-0.543-0.92-1.115-1.824-1.728-2.699C648.539,70.006,644.605,70.602,640.927,71.943z M652.39,84.39 c1.479-1.914,3.156-3.585,4.98-5.007c-0.557-1.497-1.208-2.962-1.941-4.389c-2.374,4.604-5.528,8.591-9.906,11.28 c-0.047,0.037-0.095,0.068-0.146,0.096c-0.321,0.194-0.659,0.369-0.994,0.549c1.688,0.905,3.389,1.668,5.008,2.282 C650.211,87.532,651.209,85.92,652.39,84.39z M624.495,82.648c1.551,2.606,3.49,4.79,5.777,6.659 c5.151,1.555,10.516,1.582,15.783,0.649c-7.329-3.355-14.971-9.188-16.585-17.155C627.496,75.901,625.886,79.258,624.495,82.648z M700.628,89.104c-0.096,0.352-0.201,0.7-0.3,1.051c-2.135,7.585-5.002,14.948-8.632,21.947c-2.977,5.74-6.44,12.791-11.657,17.049 c-0.564,0.461-1.143,0.898-1.75,1.288c-0.247,0.159-0.489,0.187-0.704,0.136c-0.423-0.102-0.737-0.529-0.765-0.978 c-0.02-0.325,0.109-0.659,0.459-0.884c1.626-1.044,2.968-2.381,4.162-3.855c-7.846-3.635-14.993-8.785-20.094-15.857 c-1.397-1.937-2.578-3.946-3.506-6.039c-0.009-0.009-0.018-0.016-0.027-0.025c-0.23-0.233-0.308-0.498-0.285-0.749 c-1.135-2.776-1.814-5.703-1.944-8.813c-0.067-0.171-0.076-0.353-0.019-0.534c-0.005-0.256-0.03-0.505-0.028-0.764 c0.037-4.621,0.963-9.563,3.201-13.689c0.076-0.141,0.164-0.274,0.243-0.413c-2.842-7.226-7.761-13.738-13.919-18.332 c0.811-0.327,1.633-0.632,2.462-0.92c2.963-1.028,6.391-2.294,9.575-1.964c0.475,0.049,0.77-0.197,0.891-0.531 c0.035-0.096,0.048-0.2,0.054-0.306c1.388,0.168,2.776,0.296,4.156,0.385c1.247-3.966,1.875-8.173,1.895-12.402 c-4.637,3.28-9.741,5.534-15.365,5.87c-0.012,0-0.024,0.003-0.035,0.002c-0.431,0.025-0.858,0.065-1.295,0.067 c0.824,1.22,1.69,2.374,2.568,3.445c1.704,0.353,3.347,0.844,4.912,1.469c-2.796,0.223-5.659,1.252-8.19,2.143 c-3.61,1.271-7.068,2.855-10.15,5.155c-2.741,2.046-5.04,4.487-7.021,7.171c-0.132,0.098-0.234,0.231-0.294,0.402 c-2.384,3.313-4.294,6.984-5.931,10.76c-2.019-4.265-3.347-9.205-2.871-13.94c0.049-0.485-0.209-0.783-0.553-0.899 c0.063-0.093,0.127-0.186,0.19-0.279c-0.84-0.168-1.68-0.301-2.48-0.429c-0.762-0.122-1.526-0.221-2.292-0.305 c0.845,1.818,1.521,3.723,2.032,5.678c0.309-0.715,0.644-1.415,1.006-2.096c-0.154,5.182,1.373,10.339,4.036,14.833 c0.03,0.192,0.13,0.35,0.275,0.469c1.649,2.675,3.706,5.089,6.047,7.12c0.097,0.252,0.29,0.47,0.619,0.574 c0.021,0.007,0.042,0.011,0.063,0.018c1.048,0.854,2.146,1.632,3.29,2.318c4.362,2.619,9.104,4.344,14.009,5.358 c-0.391,3.999,0.076,8.042,1.369,11.841c-2.936,0.406-5.983,0.372-9.059-0.172c-1.802-0.318-3.532-0.804-5.186-1.424 c-0.63-0.236-1.252-0.487-1.859-0.763c-4.662-2.127-8.592-5.424-11.5-9.454c-1.057-1.465-1.977-3.027-2.748-4.666 c-1.903,3.391-4.13,6.737-6.974,9.147c-0.547,0.463-1.113,0.897-1.708,1.284c-0.731,0.476-1.423-0.16-1.465-0.838 c-0.02-0.326,0.107-0.662,0.456-0.889c1.301-0.847,2.386-1.915,3.359-3.087c-6.543-3.059-12.492-7.362-16.792-13.239 c-1.159-1.585-2.131-3.309-2.914-5.115c-0.062-0.061-0.129-0.116-0.19-0.178c-0.274-0.277-0.32-0.596-0.248-0.886 c-0.89-2.321-1.461-4.76-1.664-7.223c-0.092-0.192-0.104-0.406-0.035-0.615c-0.238-4.117,0.539-8.269,2.541-11.996 c-1.812,1.284-3.471,2.847-4.916,4.675c-3.733-2.989-6.601-6.936-8.298-11.397c-1.075-2.827-1.678-5.859-1.732-8.985 c-0.012-0.673,0.004-1.35,0.044-2.031c0.061-1.03,0.175-2.067,0.359-3.108c0.49-2.772,1.393-5.366,2.631-7.735 c-0.103,4.714,1.291,9.365,3.698,13.431c0.026,0.223,0.143,0.405,0.317,0.532c1.505,2.421,3.372,4.611,5.5,6.466 c0.096,0.255,0.289,0.475,0.621,0.581c0.029,0.009,0.058,0.015,0.087,0.024c1.028,0.837,2.107,1.602,3.235,2.269 c1.426,0.844,2.898,1.578,4.404,2.223c-1.153,0.4-2.279,0.891-3.367,1.469c0.232,0.278,0.306,0.667,0.045,1.068 c-2.02,3.104-2.967,6.937-3.151,10.677c2.524-2.007,5.189-3.836,8.037-5.269c0.155-0.169,0.34-0.254,0.54-0.266 c2.738-1.317,5.643-2.264,8.755-2.64c2.998-0.362,5.97-0.118,8.94,0.341c1.152,0.178,2.371,0.373,3.57,0.653 c0.249-0.308,0.501-0.614,0.762-0.911c-0.167-0.156-0.339-0.309-0.511-0.461c1.388-5.219,1.261-11.179,1.252-16.248 c-0.014-7.552-0.858-15.071-2.41-22.457c1.093,0.872,2.108,1.829,3.045,2.854c0.181,0.198,0.361,0.396,0.536,0.599 c1.902,2.207,3.435,4.718,4.534,7.429c0.023-5.241,1.084-10.858,3.668-15.498c0.271-0.486,0.541-0.972,0.845-1.435 c0.434-0.659,1.255-0.532,1.658-0.087c0.252,0.279,0.342,0.681,0.069,1.096c-2.83,4.295-4.075,9.722-4.231,14.891 c3.483-2.82,7.18-5.399,11.15-7.385c0.158-0.169,0.345-0.254,0.547-0.265c3.521-1.701,7.253-2.935,11.243-3.449 c4.055-0.522,8.087-0.19,12.106,0.445c2.625,0.414,5.551,0.866,8.085,1.961c0.705,0.305,1.386,0.651,2.014,1.07 c0.667,0.445,0.525,1.289,0.062,1.684c-0.277,0.236-0.669,0.312-1.072,0.043c-2.725-1.82-6.449-2.33-9.622-2.829 c-1.137-0.179-2.277-0.326-3.42-0.438c1.959,4.039,3.268,8.446,3.924,12.96c0.005,0.023,0.007,0.045,0.01,0.068 c0.927,6.449,0.508,13.117-1.352,19.256c0.736,0.029,1.467,0.047,2.194,0.057c0.345-0.651,0.691-1.301,1.024-1.958 c3.912-7.71,6.974-15.805,9.237-24.147c0.089-0.328,0.291-0.526,0.531-0.626c0.669-0.28,1.646,0.242,1.398,1.158 c-0.095,0.35-0.2,0.696-0.298,1.045c-2.358,8.42-5.531,16.596-9.544,24.369c-1.026,1.987-2.106,3.945-3.235,5.874 c1.791,1.968,3.312,4.169,4.508,6.547c0.782,1.554,1.421,3.183,1.916,4.866c-2.587,0.245-5.137,0.842-7.573,1.789 c-0.399-5.531-1.187-11.029-2.335-16.458c0.706,0.558,1.382,1.148,2.03,1.766c0.432-0.744,0.854-1.494,1.27-2.246 c-1.137-0.029-2.281-0.076-3.432-0.153c-0.035-0.162-0.065-0.325-0.101-0.487c-0.202-0.915-1.274-0.875-1.737-0.303 c-0.172,0.213-0.267,0.494-0.191,0.834c1.302,5.896,2.17,11.872,2.564,17.889c-0.409,0.196-0.813,0.401-1.214,0.617 c0.243,0.278,0.326,0.676,0.058,1.084c-2.482,3.782-3.596,8.517-3.764,13.069c3.069-2.47,6.326-4.738,9.821-6.49 c0.149-0.152,0.322-0.23,0.509-0.244c3.119-1.509,6.422-2.608,9.948-3.07c3.621-0.474,7.207-0.209,10.8,0.343 c2.369,0.364,5.015,0.765,7.323,1.724c0.703,0.292,1.377,0.631,1.999,1.042c0.671,0.444,0.526,1.29,0.06,1.684 c-0.277,0.234-0.668,0.309-1.069,0.043c-2.498-1.652-5.941-2.12-8.845-2.565c-0.87-0.133-1.744-0.242-2.619-0.331 c1.716,3.594,2.875,7.496,3.454,11.494c0.835,5.764,0.464,11.718-1.176,17.223c0.593,0.022,1.181,0.035,1.768,0.044 c0.28-0.53,0.563-1.058,0.835-1.593c3.529-6.937,6.285-14.221,8.325-21.729c0.089-0.326,0.289-0.524,0.527-0.625 C699.896,87.664,700.878,88.187,700.628,89.104z M615.111,88.455c0.117-0.384,0.228-0.77,0.33-1.16c-0.41-2.13-0.584-4.327-0.5-6.56 c-3.205,1.93-6.663,3.168-10.454,3.289c0.817,1.177,1.681,2.268,2.543,3.246C609.685,87.898,612.413,88.271,615.111,88.455z M613.139,79.454c-2.008-1.752-4.546-2.914-7.189-3.268c-0.272,1.921-0.21,3.932,0.045,5.69 C608.54,81.554,610.902,80.694,613.139,79.454z M615.804,74.699c-2.647-1.457-5.479-2.402-8.401-2.806 c-0.445,0.702-0.796,1.488-1.046,2.337c3.186,0.473,6.221,1.934,8.558,4.155c0.073-0.048,0.149-0.089,0.222-0.138 c0.062-0.505,0.138-1.012,0.227-1.519C615.483,76.041,615.636,75.366,615.804,74.699z M605.213,71.693 c-1.738-0.079-3.495,0.017-5.253,0.323c0.054,3.41,1.402,6.895,3.232,9.988c0.273,0.009,0.543,0.01,0.812,0.007 C603.558,78.696,603.698,74.68,605.213,71.693z M591.505,73.279c0.106,2.392,0.696,4.653,1.605,6.789 c2.991,2.935,6.645,4.933,10.584,6.253c-3.837-5.125-6.816-11.836-5.262-18.021C595.985,69.738,593.683,71.459,591.505,73.279z M616.656,91.697c-0.141-0.389-0.274-0.781-0.399-1.177c-3.284-0.16-6.623-0.592-9.859-1.373c-0.113-0.001-0.227-0.024-0.339-0.078 c-3.683-0.921-7.222-2.311-10.36-4.364c0.55,0.793,1.125,1.57,1.744,2.315c4.073,4.912,9.395,8.499,15.146,11.153 c0.691-0.976,1.337-1.99,1.974-2.995C615.289,94.035,615.979,92.87,616.656,91.697z M612.988,64.37 c-1.114-0.044-2.229-0.039-3.345,0.066c-3.066,0.29-5.937,1.195-8.639,2.489c-0.459,0.997-0.748,2.024-0.901,3.069 c5.422-0.815,10.817-0.001,15.693,2.43C615.221,69.615,614.287,66.891,612.988,64.37z M641.827,32.033 c7.402-1.241,14.885-0.068,21.497,3.409c-0.763-4.021-2.077-7.919-3.95-11.482c-1.686-0.075-3.375-0.047-5.065,0.137 c-3.952,0.43-7.66,1.629-11.153,3.316C642.446,28.905,642.018,30.454,641.827,32.033z M635.68,53.898 c-0.161-0.212-0.338-0.408-0.495-0.624c-1.627-2.227-3.001-4.544-4.073-6.965c-0.012-0.012-0.025-0.023-0.037-0.035 c-0.214-0.217-0.29-0.462-0.282-0.697c-0.093-0.225-0.179-0.453-0.267-0.68c-0.03,1.352-0.162,2.719-0.405,4.092 c-0.626,3.542-1.927,6.795-3.742,9.655C629.155,56.527,632.305,54.913,635.68,53.898z M640.301,52.905 c-1.762-0.889-3.452-1.906-5.05-3.065c0.761,1.207,1.597,2.379,2.492,3.516C638.585,53.169,639.438,53.016,640.301,52.905z M647.093,52.837c-5.078-6.816-9.055-15.891-6.602-24.018c-3.511,1.996-6.797,4.44-9.887,7.035c0.146,3.267,0.913,6.351,2.149,9.255 c3.4,3.379,7.481,5.826,11.903,7.564C645.463,52.691,646.277,52.75,647.093,52.837z M647.716,47.834 c-0.675-4.504-0.53-10.259,1.731-14.246c-2.564-0.153-5.159-0.001-7.739,0.481c0.008,4.683,1.871,9.506,4.404,13.744 C646.653,47.839,647.187,47.846,647.716,47.834z M659.923,44.208c-2.824-2.595-6.485-4.294-10.297-4.732 c-0.43,2.772-0.315,5.739,0.082,8.229C653.355,47.3,656.74,46.032,659.923,44.208z M664.042,41.484 c-0.059-1.179-0.156-2.356-0.308-3.526c-3.748-2.199-7.838-3.606-12.057-4.16c-0.739,1.08-1.272,2.353-1.641,3.724 c4.349,0.561,8.508,2.541,11.649,5.606C662.482,42.61,663.268,42.061,664.042,41.484z M685.715,111.744 c1.075-3.465,1.63-7.125,1.666-10.806c-4.122,2.882-8.633,4.843-13.612,5.157c-0.038,0.001-0.076,0.01-0.114,0.007 c-0.312,0.018-0.62,0.052-0.936,0.057c1.035,1.518,2.142,2.922,3.243,4.163C679.167,111.084,682.463,111.53,685.715,111.744z M687.061,95.471c-3.321-1.934-6.925-3.178-10.645-3.677c-0.614,0.923-1.064,1.99-1.384,3.137c3.844,0.526,7.513,2.281,10.305,4.979 c0.672-0.438,1.336-0.901,1.99-1.387C687.274,97.502,687.192,96.484,687.061,95.471z M674.688,104.021 c3.169-0.372,6.109-1.465,8.882-3.035c-2.471-2.229-5.643-3.697-8.948-4.101C674.259,99.294,674.351,101.838,674.688,104.021z M667.651,89.974c6.548-1.057,13.13-0.035,18.995,2.989c-0.683-3.496-1.832-6.886-3.456-10c-1.522-0.065-3.046-0.039-4.568,0.133 c-3.479,0.391-6.744,1.452-9.823,2.937C668.198,87.308,667.827,88.629,667.651,89.974z M667.529,92.01 c0.029,4.136,1.67,8.385,3.901,12.13c0.423,0.018,0.843,0.023,1.258,0.015c-0.576-4.004-0.435-8.999,1.506-12.567 C671.987,91.468,669.754,91.604,667.529,92.01z M657.573,93.568c0.132,2.892,0.814,5.62,1.905,8.188 c3.675,3.637,8.227,6.063,13.126,7.629c-4.728-6.139-8.558-14.452-6.441-21.957C663.117,89.183,660.263,91.313,657.573,93.568z M688.469,113.871c-9.15-0.256-18.902-2.143-26.469-7.433c0.69,1.058,1.439,2.087,2.242,3.085 c4.887,6.075,11.391,10.488,18.424,13.713c0.763-1.074,1.481-2.185,2.188-3.289C686.126,117.962,687.326,115.932,688.469,113.871z M635.858,136.875c1.191,1.847,2.658,3.524,4.343,4.943c3.587,1.03,7.286,1.113,10.933,0.556 c-5.245-2.549-10.441-6.685-11.878-12.287C637.933,132.244,636.823,134.546,635.858,136.875z M649.474,120.415 c-1.243,0.654-2.391,1.357-3.365,2.048c-2.042,1.45-3.746,3.231-5.217,5.199c0.056,0.967,0.248,1.891,0.549,2.774 c4.062-2.938,8.754-4.587,13.735-4.715C653.514,123.702,651.6,121.902,649.474,120.415z M632.194,123.77 c0.327,0.125,0.568,0.416,0.523,0.884c-0.336,3.527,0.402,6.972,1.908,10.054c1.197-2.702,2.593-5.313,4.295-7.696 c0.059-0.19,0.165-0.337,0.31-0.441c1.499-2.024,3.231-3.87,5.301-5.42c2.28-1.707,4.823-2.901,7.491-3.862 c1.884-0.679,4.002-1.445,6.094-1.697c-1.236-0.459-2.527-0.82-3.872-1.057c-1.59-0.281-3.169-0.38-4.72-0.32 C642.498,114.488,636.093,118.114,632.194,123.77z M656.047,132.765c-2.336-0.531-4.834-0.413-7.093,0.395 c0.591,1.645,1.472,3.221,2.408,4.521C653.248,136.354,654.773,134.681,656.047,132.765z M642.245,132.288 c1.503,2.736,4.067,4.985,6.859,6.719c0.19-0.093,0.377-0.188,0.561-0.287c-1.762-2.506-3.36-5.8-3.428-8.855 C644.842,130.526,643.503,131.326,642.245,132.288z M661.585,139.21c-0.506-2.595-1.369-5.137-2.552-7.532 c-1.804,3.369-4.178,6.268-7.425,8.249c-0.008,0.005-0.016,0.01-0.023,0.015c-0.136,0.082-0.269,0.167-0.407,0.247 c1.124,0.581,2.25,1.077,3.332,1.491C656.934,141.063,659.309,140.208,661.585,139.21z M657.134,130.986 c0.257-0.465,0.501-0.944,0.738-1.43c-0.368-0.618-0.75-1.228-1.16-1.818c-2.913-0.103-5.76,0.333-8.436,1.285 c-0.05,0.724-0.01,1.469,0.135,2.226C651.214,130.298,654.275,130.186,657.134,130.986z M663.447,150.269 c-7.643,0.336-15.426-1.003-22.025-5.05c-0.787-0.483-1.543-1.026-2.268-1.613c-0.001,0-0.003-0.001-0.004-0.001 c-0.307-0.096-0.504-0.29-0.607-0.519c-1.773-1.543-3.33-3.372-4.579-5.399c-0.138-0.117-0.233-0.27-0.263-0.456 c-1.929-3.294-3.065-7.048-3.06-10.836c-0.936,1.868-1.625,3.899-2.007,6.062c-0.417,2.358-0.438,4.693-0.12,6.941 c0.628,4.444,2.598,8.544,5.555,11.792c2.081,2.286,4.649,4.146,7.581,5.407c0.636,0.274,1.289,0.519,1.958,0.735 c0.952,0.306,1.933,0.556,2.945,0.735c2.424,0.428,4.824,0.438,7.131,0.091c0.383-0.057,0.762-0.125,1.139-0.202 c2.552-0.522,4.969-1.488,7.151-2.831c-0.171-0.271-0.227-0.612-0.026-0.975C662.61,152.957,663.092,151.646,663.447,150.269z M654.514,143.735c-3.308,0.802-6.694,1.168-10.046,0.892c5.983,3.064,12.745,3.97,19.402,3.621 c0.444-2.655,0.519-5.464,0.504-8.125c-2.997,1.442-6.189,2.678-9.462,3.507C654.798,143.701,654.662,143.733,654.514,143.735z M661.193,117.013c-0.125,0.328-0.417,0.572-0.886,0.529c-2.695-0.247-5.89,0.618-8.804,1.897 c6.016,4.592,10.419,11.495,11.948,18.915c0.302-0.146,0.6-0.295,0.898-0.445c-0.007-0.438-0.013-0.872-0.019-1.294 c-0.078-6.081-0.81-12.113-2.114-18.052c-0.074-0.337,0.017-0.616,0.185-0.828C662.009,117.481,661.604,117.243,661.193,117.013z M664.383,119.187c1.252,6.047,1.941,12.195,1.954,18.375c0.01,4.977,0.126,10.887-1.773,15.699c0.737-0.615,1.434-1.28,2.088-1.988 c0.516-0.56,1.005-1.146,1.463-1.76c2.001-2.679,3.427-5.85,4.049-9.367c0.651-3.685,0.345-7.317-0.734-10.645 C670.12,125.461,667.665,121.874,664.383,119.187z" fill="#e4c2b9"/></g><g id="change4_1"><path d="M96.134,655.693c0,0,0,0.001,0,0.001H69.97H54.068c0.044-1.783,2.876-117.202,4.763-172.945 c1.025-30.269,3.831-77.964,6.201-115.516c0.091,0.177,0.171,0.354,0.268,0.53c5.562,10.113,19.032,17.593,28.285,21.76 c1.473,21.02,2.519,43.811,2.549,66.371C96.236,533.869,96.135,654.484,96.134,655.693z M56.831,482.681 c1.064-31.427,4.046-81.621,6.469-119.767c-1.021-3.544-1.139-7.077-0.726-10.4c-9.885,0.719-19.783-4.112-25.081-13.266 c0,0-22.357,53.203-23.854,316.446h38.433c0-0.009-0.005-0.016-0.004-0.025C52.096,654.506,54.939,538.586,56.831,482.681z M103.125,318.54c4.245,5.807,7.248,11.654,8.485,14.221l-19.329-8.24c-1.198,0.293-2.434,0.493-3.698,0.598l22.365,9.534 c-2.939,0.96-10.1,3.096-17.961,3.949c3.368,2.064,6.446,4.952,8.665,8.987c7.686,13.975,3.04,38.006,1.678,44.114l-25.142-45.715 c-0.507,0.442-1.036,0.866-1.582,1.274l25.048,45.544c-1.296-0.467-3.409-1.266-6.003-2.376c1.438,20.771,2.452,43.228,2.481,65.463 c0.104,77.969,0.002,198.576,0.001,199.801h31.141c0,0,5.228-268.254-20.157-346.514 C107.877,312.757,105.807,315.957,103.125,318.54z M641.65,156.595c-2.932-1.261-5.5-3.122-7.581-5.407 c-2.957-3.248-4.927-7.347-5.555-11.792c-6.129,3.366-11.677,5.613-14.175,6.564l19.451-36.904c-0.63-0.236-1.252-0.487-1.859-0.763 l-19.435,36.876c-0.298-1.235-0.743-3.199-1.203-5.674c-4.434,3.584-9.33,7.222-14.72,10.79 c-24.446,16.181-63.318,33.655-117.136,33.655c-10.407,0-21.368-0.653-32.897-2.095c-31.422-3.931-60.653-13.921-86.882-29.694 c-20.979-12.616-40.092-28.937-56.808-48.511c-28.456-33.321-40.256-64.984-40.372-65.3c-0.083-0.228-0.066-0.462,0.009-0.675 h-40.03c0,0,1.958,6.429,6.458,16.903h-22.57c-25.455,26.591-78.11,81.154-136.375,138.943c-4.457,4.42-8.946,8.859-13.458,13.306 c0.371-0.03,0.741-0.059,1.116-0.075c7.103-0.298,13.697,2.073,18.825,6.214c0.675,0.119,1.348,0.263,2.018,0.468 c0.313,0.096,0.51,0.294,0.612,0.528c0.391-1.592,0.987-3.191,1.852-4.77c6.294-11.479,24.794-18.909,30.042-20.828l-11.292,20.594 c0.764-0.044,1.528-0.048,2.289-0.013l10.821-19.736c0.321,1.453,0.815,3.897,1.252,6.935 c39.169-31.344,96.095-80.486,124.233-121.902c0.343,0.657,0.691,1.319,1.047,1.988c-28.746,41.795-85.972,91.065-124.976,122.227 c0.543,4.536,0.862,9.976,0.352,15.237c2.122,1.679,3.972,3.773,5.41,6.256c2.041,3.527,2.994,7.384,2.97,11.185 c31.258-16.141,74.344-42.515,103.641-77.118c13.85-16.358,24.955-30.904,33.822-43.46c0.406,0.571,0.819,1.143,1.233,1.715 c-8.837,12.48-19.85,26.882-33.529,43.037c-29.825,35.226-73.792,61.957-105.3,78.137c-0.504,4.529-2.4,8.861-5.507,12.326 c6.521,2.522,11.814,5.32,14.149,6.619l-40.761,8.879c0.225,0.634,0.434,1.271,0.613,1.913l40.729-8.872 c-2.721,3.699-11.551,15.063-22.219,22.201c41.118-9.528,97.737-33.973,146.309-95.594c11.198-14.206,20.61-27.81,28.527-40.594 c35.377,38.027,88.384,74.105,165.294,82.952c81.369,9.36,132.301-18.858,161.981-46.865 c-13.843,161.315-9.808,479.291-9.808,479.291h31.465c-0.014-1.57-1.202-137.039,0-277.637 C634.529,283.536,638.863,200.973,641.65,156.595z M680.039,129.151c-0.564,0.461-1.143,0.898-1.75,1.288 c-0.247,0.159-0.489,0.187-0.704,0.136c0.952,1.313,1.781,2.782,2.424,4.442c4.731,12.208-1.496,31.147-3.407,36.397l-8.487-21.9 c-0.458,0.613-0.947,1.2-1.463,1.76l8.133,20.987c-0.98-0.513-2.438-1.304-4.197-2.345v485.78h29.077 c-1.375-241.85-13.232-489.2-15.15-527.806C683.057,128.434,681.559,128.854,680.039,129.151z M646.553,158.065 c-1.012-0.179-1.993-0.429-2.945-0.735c-2.787,44.491-7.084,126.688-7.887,220.745c-1.203,140.696-0.013,276.257,0,277.611 c0,0.003-0.002,0.006-0.002,0.009h17.965V158.156C651.378,158.503,648.978,158.494,646.553,158.065z M342.196,80.102 c22.323,20.268,61.241,46.078,119.872,53.933c58.667,7.859,104.11-4.426,131.906-16.116c6.015-2.53,11.476-5.141,16.381-7.702 c0.485-2.588,1.187-5.071,2.169-7.351c-0.599,0.175-1.205,0.325-1.815,0.453c-0.547,0.463-1.113,0.897-1.708,1.284 c-0.731,0.476-1.423-0.16-1.465-0.838c-5.642,0.407-11.449-1.177-16.279-4.907c-2.456-1.897-4.434-4.182-5.927-6.698 C450.364,115.44,376.323,78.124,344.78,54.567c-12.845-9.593-18.652-16.903-18.652-16.903H307.49 C308.356,39.319,318.922,58.97,342.196,80.102z M446.788,179.86c70.49,8.819,119.718-12.094,148.599-31.189 c5.719-3.781,10.881-7.641,15.511-11.428c-1.117-6.706-2.08-16.013-0.938-24.57c-4.583,2.353-9.625,4.737-15.124,7.052 c-21.879,9.212-54.596,18.792-96.018,18.792c-11.664,0-24.02-0.76-37.017-2.501c-59.187-7.93-98.479-34.014-121.021-54.499 c-24.444-22.214-35.036-42.867-35.14-43.073c-0.128-0.253-0.134-0.533-0.047-0.781h-41.233c0.198,0.537,11.917,31.8,40.059,64.734 C330.458,132.868,376.293,171.041,446.788,179.86z M34.241,321.623c-0.502,0.045-1.008,0.081-1.517,0.102 c-0.252,0.011-0.501,0.008-0.751,0.013l-16.529,16.364l-0.699,0.692c-0.393,0.388-0.396,1.021-0.007,1.414 c0.195,0.197,0.453,0.296,0.71,0.296c0.254,0,0.509-0.096,0.704-0.29l0.793-0.785l17.182-17.01 C34.163,322.153,34.198,321.888,34.241,321.623z M35.151,259.256L11.54,228.386l-0.578-0.756c-0.335-0.438-0.963-0.524-1.402-0.187 c-0.439,0.335-0.522,0.963-0.187,1.402l0.676,0.883l22.433,29.331C33.381,259.088,34.272,259.152,35.151,259.256z M71.734,341.394 c-3.645,1.077-7.385,1.881-11.139,2.141c-0.046,0.001-0.093,0.014-0.138,0.009c-4.003,0.262-8.019-0.096-11.946-1.434 c-3.077-1.048-5.95-2.625-8.681-4.372c-1.56-0.998-3.197-2.075-4.554-3.394c-0.557-0.542-1.073-1.12-1.508-1.758 c-0.453-0.663,0.046-1.299,0.662-1.433c0.375-0.081,0.792,0.024,1.065,0.423c1.523,2.228,4.21,3.764,6.47,5.135 c0.79,0.479,1.595,0.932,2.407,1.369c-0.21-3.669,0.159-7.395,1.042-11.01c-0.032-0.205,0.024-0.394,0.136-0.555 c1.362-5.247,3.809-10.226,7.145-14.406c-0.486-0.22-0.972-0.429-1.458-0.636c-0.48,0.402-0.961,0.802-1.434,1.212 c-5.499,4.771-10.493,10.1-14.921,15.877c-0.217,0.283-0.51,0.404-0.802,0.415c-0.748,0.028-1.488-0.69-0.925-1.424 c0.247-0.322,0.501-0.637,0.751-0.956c4.522-5.779,9.553-11.123,15.139-15.891c2.808-2.397,5.739-4.656,8.776-6.757 c1.605-1.11,3.232-2.19,4.95-3.069c-0.01,0.493-0.009,0.988,0.012,1.488c0.01,0.25,0.032,0.497,0.05,0.745 c0.074,1.016,0.207,2.015,0.403,2.99c-0.613-0.717-1.242-1.419-1.886-2.107c-0.973,0.613-1.927,1.266-2.874,1.927 c-1.886,1.316-3.721,2.702-5.515,4.139c0.532,0.237,1.062,0.483,1.591,0.734c0.031,0.013,0.061,0.026,0.091,0.043 c7.309,3.477,14.298,8.333,18.73,15.078c-0.208-1.037-0.45-2.072-0.748-3.1c-0.284-0.979-0.611-1.938-0.969-2.884 c0.874,0.704,1.797,1.347,2.765,1.924c0.262,0.869,0.502,1.746,0.703,2.636c0.471,2.091,0.749,4.154,0.807,6.198 c0.019,0.045,0.042,0.088,0.061,0.134c0.133,0.323,0.084,0.595-0.063,0.798c-0.018,3.239-0.601,6.43-1.939,9.594 c-1.698,4.016-4.247,7.926-7.641,10.747c-0.47,0.391-0.955,0.763-1.458,1.109c-0.656,0.452-1.285-0.034-1.426-0.643 c-0.088-0.379,0.012-0.805,0.416-1.084C67.321,348.974,69.975,345.271,71.734,341.394z M64.304,324.787 c-0.333-0.154-0.667-0.298-1.002-0.431c-0.922,3.699-2.844,7.933-5.786,10.414c1.859,0.87,3.818,1.547,5.862,1.993 C64.825,333.134,64.911,328.859,64.304,324.787z M47.547,326.753c2.206,2.892,4.934,5.242,8.017,7.003 c0.837-0.559,1.589-1.3,2.258-2.157c-3.185-1.822-5.748-4.72-7.238-8.067c-0.731,0.142-1.463,0.308-2.194,0.496 C48.078,324.927,47.791,325.834,47.547,326.753z M58.941,329.937c1.151-1.962,1.967-4.22,2.459-6.221 c-2.879-0.8-5.827-0.889-8.792-0.51C53.954,326.016,56.236,328.403,58.941,329.937z M49.249,321.77 c4.576-1.005,9.119-1.102,13.524,0.313c0.001,0,0.001,0,0.002,0.001c0.368,0.118,0.736,0.227,1.102,0.367 c-0.36-1.673-0.817-3.276-1.33-4.749c-2.529-1.808-5.244-3.374-7.997-4.718C52.377,315.608,50.591,318.587,49.249,321.77z M62.469,338.612c-6.09-1.41-11.43-4.693-15.478-9.391c-0.635,3.273-0.835,6.616-0.551,9.888c1.121,0.516,2.265,0.984,3.454,1.347 c3.384,1.034,6.813,1.324,10.229,1.121C61.071,340.69,61.845,339.692,62.469,338.612z M72.706,339.006 c0.031-0.087,0.07-0.175,0.1-0.262c0.862-2.51,1.195-5.058,1.154-7.609c-1.881-4.446-4.966-8.175-8.657-11.289 c0.346,1.273,0.641,2.597,0.866,3.952c0.006,0.024,0.007,0.048,0.011,0.073c0.999,6.088,0.553,12.705-3.088,17.412 C66.342,340.835,69.562,340.002,72.706,339.006z M33.854,272.412c-0.114,0.147-0.231,0.291-0.345,0.439 c-0.562,0.734,0.176,1.451,0.922,1.425c0.293-0.01,0.587-0.131,0.805-0.415c3.653-4.77,7.663-9.261,11.997-13.418 c-0.642-0.291-1.273-0.6-1.889-0.936c-3.976,3.868-7.669,8.015-11.088,12.394C34.123,272.071,33.987,272.24,33.854,272.412z M47.02,271.725c0.876-3.385,2.165-6.668,3.826-9.729c0.152-0.027,0.304-0.048,0.455-0.078c0.538,0.149,1.081,0.287,1.631,0.405 c-0.784,1.387-1.488,2.823-2.104,4.301c5.495-1.236,10.966-1.3,16.222,0.76c-0.393-1.859-0.896-3.64-1.463-5.274 c0.651-0.161,1.288-0.352,1.92-0.557c0.166-0.054,0.332-0.107,0.497-0.164c3.709,2.842,6.982,6.179,9.466,10.087 c-0.239-1.281-0.544-2.559-0.913-3.831c-0.87-2.997-2.072-5.854-3.531-8.571c0.575-0.338,1.136-0.698,1.684-1.075 c1.923,3.552,3.423,7.327,4.348,11.311c0.543,2.341,0.868,4.66,0.93,6.959c0.018,0.044,0.04,0.084,0.058,0.128 c0.134,0.327,0.082,0.6-0.069,0.805c-0.014,3.172-0.549,6.306-1.713,9.405c-0.001,0.002-0.001,0.004-0.002,0.006 c-0.119,0.316-0.218,0.634-0.35,0.95c-1.866,4.453-4.702,8.804-8.491,11.897c-0.467,0.381-0.942,0.751-1.437,1.091 c-0.652,0.447-1.277-0.029-1.423-0.632c-0.093-0.382,0.005-0.814,0.414-1.095c3.83-2.629,6.763-6.772,8.688-11.07 c-4.007,1.195-8.128,2.092-12.264,2.384c-0.066,0.005-0.133,0.021-0.198,0.013c-4.31,0.283-8.633-0.093-12.856-1.508 c-3.314-1.11-6.407-2.799-9.353-4.662c-1.809-1.144-3.741-2.385-5.299-3.934c-0.56-0.557-1.075-1.152-1.515-1.8 c-0.379-0.558-0.085-1.095,0.383-1.332c0.088-0.044,0.18-0.08,0.277-0.102c0.375-0.082,0.794,0.022,1.067,0.424 c1.63,2.402,4.519,4.063,6.946,5.545c0.953,0.582,1.926,1.129,2.91,1.654c-0.252-4.052,0.149-8.178,1.13-12.179 C46.864,272.062,46.916,271.88,47.02,271.725z M65.54,284.805c-6.729-1.524-12.644-5.166-17.081-10.385 c-0.727,3.657-0.956,7.396-0.629,11.046c1.264,0.584,2.554,1.112,3.895,1.518c3.685,1.117,7.424,1.427,11.148,1.201 C63.96,287.18,64.839,286.042,65.54,284.805z M68.316,264.142c0.414,1.479,0.766,3.026,1.029,4.613 c0.002,0.007,0.002,0.014,0.003,0.021c1.106,6.697,0.608,13.996-3.477,19.115c3.64-0.484,7.248-1.411,10.763-2.529 c1.017-2.854,1.428-5.751,1.383-8.655C75.93,271.742,72.462,267.592,68.316,264.142z M66.239,269.198 c-1.004,4.091-3.139,8.819-6.432,11.516c2.097,0.995,4.32,1.752,6.633,2.247c1.617-4.002,1.714-8.735,1.037-13.232 C67.066,269.536,66.653,269.36,66.239,269.198z M54.509,267.988c1.481,3.156,4.033,5.837,7.07,7.536 c1.3-2.193,2.216-4.732,2.758-6.969C61.122,267.647,57.823,267.552,54.509,267.988z M49.968,268.889 c-0.353,1.012-0.677,2.034-0.95,3.069c2.421,3.188,5.421,5.801,8.822,7.739c0.977-0.639,1.848-1.506,2.619-2.509 c-3.517-1.986-6.348-5.178-7.972-8.869C51.647,268.481,50.807,268.671,49.968,268.889z M107.299,210.661 c-1.364,0.266-2.706,0.752-4.018,1.382c4.664,5.082,8.379,11.099,9.892,17.894c0.356,1.598,0.544,3.231,0.574,4.863 c0.039,0.091,0.085,0.176,0.123,0.268c0.156,0.376,0.069,0.684-0.139,0.893c-0.069,2.365-0.471,4.711-1.215,6.941 c-0.012,0.034-0.016,0.069-0.031,0.101c-1.236,3.646-3.374,6.966-6.387,9.512c-0.477,0.403-0.971,0.791-1.492,1.153 c-0.662,0.461-1.301-0.044-1.43-0.665c-0.078-0.373,0.027-0.788,0.421-1.062c2.712-1.887,4.834-4.763,6.276-7.817 c-2.914,0.839-5.899,1.463-8.892,1.671c-0.047,0.001-0.095,0.014-0.141,0.008c-3.427,0.222-6.863-0.101-10.213-1.293 c-3.435-1.222-7.632-3.264-10.44-6.028c-0.587-0.578-1.117-1.185-1.563-1.825c-0.461-0.662,0.043-1.3,0.665-1.43 c0.373-0.078,0.788,0.027,1.062,0.421c1.487,2.137,4.232,3.98,7.017,5.351c-0.153-2.991,0.151-6.014,0.86-8.948 c-0.043-0.223,0.021-0.43,0.148-0.601c1.117-4.264,3.092-8.312,5.783-11.752c-0.309-0.138-0.618-0.272-0.926-0.404 c-0.396,0.345-0.787,0.687-1.167,1.017c-4.501,3.917-8.589,8.286-12.222,13.018c-0.216,0.281-0.507,0.402-0.797,0.414 c-0.75,0.031-1.495-0.688-0.93-1.424c0.249-0.325,0.517-0.633,0.77-0.955c3.722-4.729,7.833-9.123,12.419-13.032 c3.902-3.327,8.479-7.411,13.525-9.082c0.639-0.212,1.285-0.39,1.939-0.518c0.865-0.169,1.371,0.683,1.204,1.316 C107.896,210.337,107.694,210.584,107.299,210.661z M91.88,227.383c3.93-0.814,7.796-0.825,11.566,0.533 c-0.281-1.244-0.628-2.437-1.01-3.547c-2.033-1.45-4.212-2.71-6.424-3.798C94.335,222.625,92.946,224.928,91.88,227.383z M103.879,230.251c-0.186-0.084-0.373-0.158-0.56-0.234c-0.767,2.952-2.287,6.262-4.574,8.312c1.405,0.637,2.879,1.141,4.415,1.492 C104.286,236.905,104.353,233.505,103.879,230.251z M90.369,231.714c1.789,2.314,3.97,4.195,6.432,5.616 c0.589-0.408,1.127-0.926,1.611-1.522c-2.548-1.506-4.597-3.843-5.827-6.529c-0.525,0.104-1.051,0.226-1.577,0.359 C90.773,230.324,90.556,231.015,90.369,231.714z M99.536,234.149c0.864-1.515,1.488-3.231,1.883-4.775 c-2.235-0.594-4.509-0.678-6.804-0.409C95.699,231.111,97.465,232.936,99.536,234.149z M102.248,241.649 c-4.868-1.19-9.124-3.77-12.425-7.477c-0.467,2.566-0.61,5.181-0.397,7.752c0.91,0.374,1.792,0.694,2.598,0.946 c2.806,0.876,5.647,1.127,8.478,0.964C101.194,243.172,101.772,242.439,102.248,241.649z M110.851,241.742 c0.027-0.078,0.061-0.156,0.087-0.233c0.681-2.018,0.94-4.065,0.908-6.114c-1.485-3.47-3.848-6.409-6.684-8.884 c0.224,0.88,0.42,1.785,0.574,2.707c0.016,0.054,0.02,0.108,0.024,0.163c0.798,4.921,0.463,10.235-2.331,14.143 C105.934,243.149,108.418,242.507,110.851,241.742z M101.453,213.024c-2.322,1.367-4.527,3.11-6.558,4.835 c0.369,0.166,0.735,0.34,1.102,0.514c0.041,0.017,0.08,0.034,0.119,0.056c5.824,2.777,11.369,6.581,15.073,11.82 c-0.153-0.661-0.322-1.321-0.518-1.977C108.938,222.48,105.558,217.401,101.453,213.024z M623.506,26.293 c0.181,0.198,0.361,0.396,0.536,0.599c0.289-0.413,0.587-0.823,0.899-1.227c0.154-0.199,0.317-0.388,0.474-0.583L623.537,1.9 l-0.079-0.98c-0.045-0.551-0.536-0.967-1.078-0.916c-0.55,0.044-0.96,0.527-0.916,1.077l0.09,1.113L623.506,26.293z M711.042,67.601 l-1.11-0.052l-36.886-1.72c-0.602,0.669-1.224,1.31-1.87,1.915l38.823,1.811l0.95,0.044c0.017,0,0.032,0.001,0.048,0.001 c0.53,0,0.973-0.417,0.998-0.954C712.019,68.096,711.593,67.627,711.042,67.601z M524.847,34.415l1.09,0.217l51.166,10.197 c-0.012-0.673,0.004-1.35,0.044-2.031l-50.976-10.159l-0.934-0.186c-0.541-0.107-1.068,0.244-1.176,0.786 C523.954,33.781,524.305,34.307,524.847,34.415z M563.806,77.638c-0.493,0.249-0.69,0.851-0.441,1.343 c0.177,0.348,0.528,0.549,0.894,0.549c0.151,0,0.306-0.035,0.45-0.108l0.996-0.504l18.75-9.484c0.547-1.105,1.19-2.179,1.923-3.214 l-21.695,10.974L563.806,77.638z M583.834,45.387c-2.406-4.066-3.8-8.718-3.698-13.431c0.012-0.564,0.039-1.129,0.095-1.694 c0.079-0.796,0.892-1.096,1.458-0.896c0.338,0.12,0.589,0.417,0.542,0.896c-0.44,4.452,0.545,8.794,2.521,12.649 c1.492-3.426,3.229-6.755,5.391-9.763c0.061-0.171,0.163-0.304,0.296-0.402c1.843-2.495,3.985-4.76,6.544-6.654 c2.834-2.098,6.015-3.538,9.327-4.7c2.246-0.788,4.785-1.689,7.27-1.922c0.744-0.07,1.484-0.086,2.209-0.014 c0.801,0.08,1.098,0.904,0.89,1.47c-0.122,0.332-0.417,0.577-0.89,0.53c-2.964-0.297-6.191,0.897-8.947,1.864 c-0.647,0.227-1.286,0.471-1.921,0.724c7.352,5.543,12.743,14.041,14.518,23.082c0.48-0.229,0.952-0.465,1.422-0.702 c0.002-0.496,0.008-0.992,0.002-1.488c-0.08-7.44-0.965-14.828-2.565-22.092c-0.075-0.34,0.018-0.62,0.189-0.832 c0.462-0.574,1.537-0.616,1.739,0.301c0.083,0.375,0.154,0.751,0.233,1.127c1.552,7.386,2.396,14.905,2.41,22.457 c0.009,5.069,0.136,11.029-1.252,16.248c-0.394-0.348-0.798-0.69-1.22-1.016c-0.195-0.15-0.394-0.29-0.592-0.434 c-0.825-0.598-1.674-1.141-2.546-1.619c0.941-0.006,1.882-0.035,2.822-0.084c0.159-1.165,0.272-2.34,0.375-3.512 c0.2-2.266,0.319-4.538,0.374-6.812c-3.743,1.82-7.756,3.389-11.879,4.41c-0.051,0.014-0.096,0.037-0.151,0.04 c-4.343,1.06-8.8,1.492-13.183,0.977c0.145,0.081,0.285,0.171,0.432,0.249c1.687,0.895,3.429,1.639,5.207,2.261 c-1.104,0.215-2.193,0.508-3.259,0.878c-1.505-0.645-2.978-1.379-4.404-2.223c-1.128-0.667-2.206-1.432-3.235-2.269 c-0.029-0.009-0.058-0.015-0.087-0.024c-0.331-0.105-0.525-0.326-0.621-0.581c-2.128-1.855-3.995-4.045-5.5-6.466 C583.978,45.792,583.86,45.611,583.834,45.387z M617.573,47.984c-0.625-3.343-1.755-6.624-3.319-9.701 c-2.18,4.18-5.057,7.782-9.042,10.231c-0.051,0.04-0.104,0.076-0.16,0.106c-0.242,0.146-0.495,0.279-0.745,0.416 c1.51,0.801,3.027,1.482,4.474,2.031C611.798,50.299,614.752,49.231,617.573,47.984z M598.989,36.229 c-1.864,0.856-3.648,1.911-5.305,3.202c1.841,3.437,5.057,6.263,8.554,8.419c0.34-0.163,0.673-0.332,0.997-0.51 C601.012,44.235,598.963,40.052,598.989,36.229z M610.986,39.934c-3.021-0.75-6.277-0.597-9.198,0.495 c0.743,2.138,1.914,4.202,3.133,5.869C607.384,44.603,609.361,42.436,610.986,39.934z M613.088,36.17 c-0.481-0.814-0.986-1.614-1.527-2.389c-3.63-0.153-7.191,0.399-10.531,1.61c-0.088,1.01,0,2.063,0.223,3.124 c3.459-1.227,7.264-1.379,10.799-0.355C612.415,37.513,612.76,36.85,613.088,36.17z M592.105,33.826 c0.06,1.309,0.329,2.554,0.759,3.74c5.019-3.724,10.938-5.761,17.159-5.82c-2.09-2.596-4.515-4.904-7.215-6.782 c-1.47,0.694-2.891,1.486-4.231,2.433C596.042,29.188,593.923,31.387,592.105,33.826z M585.999,45.055 c1.476,2.303,3.306,4.389,5.406,6.149c4.569,1.333,9.31,1.373,13.972,0.58c-6.614-3.082-13.408-8.334-14.967-15.485 C588.669,39.063,587.24,42.044,585.999,45.055z M623.295,80.389c1.637-3.776,3.546-7.447,5.931-10.76 c0.061-0.171,0.162-0.304,0.294-0.402c1.981-2.684,4.281-5.125,7.021-7.171c3.081-2.301,6.54-3.884,10.15-5.155 c2.532-0.891,5.394-1.92,8.19-2.143c0.747-0.06,1.49-0.075,2.22,0.001c0.663,0.069,0.974,0.645,0.945,1.164 c-0.006,0.106-0.019,0.21-0.054,0.306c-0.121,0.334-0.417,0.58-0.891,0.531c-3.184-0.33-6.612,0.936-9.575,1.964 c-0.83,0.288-1.652,0.593-2.462,0.92c6.158,4.594,11.077,11.106,13.919,18.332c-0.079,0.139-0.167,0.272-0.243,0.413 c-0.464,0.319-0.923,0.648-1.371,0.996c-0.557-1.497-1.208-2.962-1.941-4.389c-2.374,4.604-5.528,8.591-9.906,11.28 c-0.047,0.037-0.095,0.068-0.146,0.096c-0.321,0.194-0.659,0.369-0.994,0.549c1.688,0.905,3.389,1.668,5.008,2.282 c-0.295,0.6-0.559,1.209-0.807,1.822c-0.067,0.166-0.136,0.332-0.2,0.499c-4.536,1.005-9.171,1.367-13.724,0.765 c0.157,0.089,0.305,0.185,0.465,0.273c3.732,2.036,7.709,3.419,11.804,4.275c-0.112,0.656-0.197,1.314-0.262,1.974 c-4.905-1.014-9.647-2.739-14.009-5.358c-1.143-0.687-2.242-1.465-3.29-2.318c-0.021-0.007-0.042-0.011-0.063-0.018 c-0.328-0.105-0.522-0.323-0.619-0.574c-2.342-2.031-4.399-4.445-6.047-7.12c-0.145-0.119-0.244-0.277-0.275-0.469 c-2.663-4.494-4.19-9.651-4.036-14.833c0.017-0.557,0.041-1.114,0.097-1.67c0.079-0.789,0.881-1.09,1.447-0.899 c0.345,0.116,0.602,0.414,0.553,0.899C619.948,71.184,621.276,76.124,623.295,80.389z M638.87,72.785 c-2.113,0.958-4.125,2.171-5.993,3.636c2.016,3.804,5.575,6.934,9.438,9.31c0.421-0.199,0.833-0.407,1.232-0.627 C641.077,81.691,638.769,77.007,638.87,72.785z M652.015,76.941c-3.374-0.869-7.037-0.703-10.297,0.541 c0.824,2.402,2.146,4.725,3.514,6.577C647.997,82.177,650.209,79.75,652.015,76.941z M654.261,72.883 c-0.543-0.92-1.115-1.824-1.728-2.699c-3.995-0.178-7.929,0.418-11.607,1.759c-0.119,1.167-0.015,2.392,0.253,3.625 c3.798-1.376,8.009-1.55,11.893-0.404C653.489,74.423,653.887,73.663,654.261,72.883z M631.176,70.318 c0.063,1.489,0.367,2.907,0.868,4.251c5.522-4.145,12.085-6.396,18.96-6.417c-2.324-2.913-5.032-5.499-8.05-7.588 c-1.681,0.791-3.302,1.703-4.83,2.798C635.408,65.31,633.132,67.687,631.176,70.318z M624.495,82.648 c1.551,2.606,3.49,4.79,5.777,6.659c5.151,1.555,10.516,1.582,15.783,0.649c-7.329-3.355-14.971-9.188-16.585-17.155 C627.496,75.901,625.886,79.258,624.495,82.648z M662.488,76.226c0.635-0.304,1.279-0.588,1.932-0.842 c-0.399-5.531-1.187-11.029-2.335-16.458c-0.045-0.211-0.086-0.423-0.131-0.633c-0.035-0.162-0.065-0.325-0.101-0.487 c-0.202-0.915-1.274-0.875-1.737-0.303c-0.172,0.213-0.267,0.494-0.191,0.834C661.226,64.233,662.094,70.209,662.488,76.226z M666.337,137.562c0.01,4.977,0.126,10.887-1.773,15.699c-0.258,0.654-0.551,1.289-0.888,1.897 c-0.424,0.764-1.341,0.537-1.701-0.035c-0.171-0.271-0.227-0.612-0.026-0.975c0.662-1.192,1.143-2.503,1.498-3.88 c-7.643,0.336-15.426-1.003-22.025-5.05c-0.787-0.483-1.543-1.026-2.268-1.613c-0.001,0-0.003-0.001-0.004-0.001 c-0.307-0.096-0.504-0.29-0.607-0.519c-1.773-1.543-3.33-3.372-4.579-5.399c-0.138-0.117-0.233-0.27-0.263-0.456 c-1.929-3.294-3.065-7.048-3.06-10.836c0.001-0.58,0.021-1.16,0.076-1.739c0.077-0.808,0.909-1.102,1.477-0.884 c0.327,0.125,0.568,0.416,0.523,0.884c-0.336,3.527,0.402,6.972,1.908,10.054c1.197-2.702,2.593-5.313,4.295-7.696 c0.059-0.19,0.165-0.337,0.31-0.441c1.499-2.024,3.231-3.87,5.301-5.42c2.28-1.707,4.823-2.901,7.491-3.862 c1.884-0.679,4.002-1.445,6.094-1.697c0.737-0.089,1.471-0.117,2.19-0.051c0.807,0.074,1.102,0.903,0.886,1.471 c-0.125,0.328-0.417,0.572-0.886,0.529c-2.695-0.247-5.89,0.618-8.804,1.897c6.016,4.592,10.419,11.495,11.948,18.915 c0.302-0.146,0.6-0.295,0.898-0.445c-0.007-0.438-0.013-0.872-0.019-1.294c-0.078-6.081-0.81-12.113-2.114-18.052 c-0.074-0.337,0.017-0.616,0.185-0.828c0.46-0.579,1.541-0.624,1.743,0.296c0.084,0.384,0.159,0.77,0.239,1.155 C665.635,125.234,666.324,131.382,666.337,137.562z M661.585,139.21c-0.506-2.595-1.369-5.137-2.552-7.532 c-1.804,3.369-4.178,6.268-7.425,8.249c-0.008,0.005-0.016,0.01-0.023,0.015c-0.136,0.082-0.269,0.167-0.407,0.247 c1.124,0.581,2.25,1.077,3.332,1.491C656.934,141.063,659.309,140.208,661.585,139.21z M656.047,132.765 c-2.336-0.531-4.834-0.413-7.093,0.395c0.591,1.645,1.472,3.221,2.408,4.521C653.248,136.354,654.773,134.681,656.047,132.765z M656.712,127.738c-2.913-0.103-5.76,0.333-8.436,1.285c-0.05,0.724-0.01,1.469,0.135,2.226c2.803-0.951,5.864-1.063,8.723-0.263 c0.257-0.465,0.501-0.944,0.738-1.43C657.504,128.938,657.122,128.329,656.712,127.738z M646.237,129.865 c-1.395,0.661-2.734,1.461-3.992,2.423c1.503,2.736,4.067,4.985,6.859,6.719c0.19-0.093,0.377-0.188,0.561-0.287 C647.903,136.214,646.306,132.92,646.237,129.865z M640.893,127.662c0.056,0.967,0.248,1.891,0.549,2.774 c4.062-2.938,8.754-4.587,13.735-4.715c-1.663-2.018-3.577-3.819-5.703-5.306c-1.243,0.654-2.391,1.357-3.365,2.048 C644.068,123.914,642.364,125.695,640.893,127.662z M640.202,141.818c3.587,1.03,7.286,1.113,10.933,0.556 c-5.245-2.549-10.441-6.685-11.878-12.287c-1.324,2.158-2.434,4.46-3.399,6.789C637.049,138.723,638.516,140.399,640.202,141.818z M664.374,140.123c-2.997,1.442-6.189,2.678-9.462,3.507c-0.113,0.071-0.249,0.102-0.397,0.105 c-3.308,0.802-6.694,1.168-10.046,0.892c5.983,3.064,12.745,3.97,19.402,3.621C664.314,145.593,664.388,142.784,664.374,140.123z" fill="#f4eadc"/></g><g id="change5_1"><path d="M98.133,455.893c0.104,77.969,0.002,198.576,0.001,199.801c0,0,0,0.001,0,0.001c0,0.552-0.448,0.999-1,0.999 c0,0,0,0-0.001,0c-0.552-0.001-0.999-0.448-0.999-1c0,0,0-0.001,0-0.001c0.001-1.209,0.102-121.824-0.001-199.798 c-0.03-22.56-1.076-45.351-2.549-66.371c0.718,0.323,1.406,0.624,2.068,0.907C97.089,411.202,98.103,433.659,98.133,455.893z M56.831,482.681c-1.892,55.904-4.735,171.824-4.763,172.988c0,0.009,0.004,0.016,0.004,0.025c0.001,0.54,0.427,0.986,0.971,1 c0.008,0,0.017,0,0.025,0c0.541,0,0.986-0.432,0.999-0.976c0-0.003,0-0.019,0.001-0.024c0.044-1.783,2.876-117.202,4.763-172.945 c1.025-30.269,3.831-77.964,6.201-115.516c-0.742-1.432-1.315-2.876-1.731-4.319C60.878,401.06,57.895,451.255,56.831,482.681z M633.721,378.057c-1.202,140.598-0.014,276.067,0,277.637c0,0.001,0,0.007,0,0.008c0.005,0.55,0.451,0.991,1,0.991 c0.003,0,0.006,0,0.009,0c0.549-0.005,0.989-0.452,0.989-1c0-0.003,0.002-0.006,0.002-0.009c-0.013-1.354-1.203-136.915,0-277.611 c0.804-94.057,5.101-176.254,7.887-220.745c-0.669-0.215-1.322-0.461-1.958-0.735C638.863,200.973,634.529,283.536,633.721,378.057z M239.327,76.22c-0.355-0.669-0.704-1.331-1.047-1.988c-28.138,41.416-85.064,90.559-124.233,121.902 c0.106,0.737,0.208,1.513,0.303,2.313C153.355,167.285,210.581,118.015,239.327,76.22z M226.723,154.008 c-29.297,34.602-72.382,60.977-103.641,77.118c-0.005,0.774-0.048,1.545-0.133,2.312c31.507-16.18,75.475-42.911,105.3-78.137 c13.678-16.155,24.692-30.557,33.529-43.037c-0.414-0.573-0.826-1.145-1.233-1.715C251.678,123.104,240.573,137.65,226.723,154.008z M2.007,282.694c0.392,3.528,2.801,7.092,4.649,10.028c0.401,0.637,0.822,1.258,1.247,1.875 c4.485-10.005,12.974-18.393,23.037-22.749c-0.453-0.584-0.912-1.157-1.376-1.722c-0.799,0.173-1.599,0.347-2.394,0.536 c-8.3,1.967-16.368,4.788-24.104,8.379c-0.323,0.15-0.629,0.115-0.886-0.012c-0.352,0.904-0.662,1.828-0.93,2.769 C1.626,281.911,1.953,282.209,2.007,282.694z M36.038,291.255c-0.324-0.429-0.66-0.839-1.006-1.235 c-3.005,3.433-7.49,6.94-12.025,7.832c1.532,2.059,3.318,3.948,5.345,5.625C31.936,300.455,34.424,295.931,36.038,291.255z M19.631,281.623c-0.859,0.801-1.693,1.629-2.486,2.495c0.741,4.306,2.304,8.338,4.603,11.923c0.004,0,0.007-0.003,0.011-0.003 c1.294-0.111,2.606-0.523,3.888-1.125c-2.392-3.664-3.557-8.184-3.22-12.543C21.51,282.091,20.577,281.843,19.631,281.623z M33.65,288.568c-2.655-2.532-5.818-4.298-9.264-5.551c-0.156,3.853,0.91,7.711,3.023,10.941 C29.8,292.489,31.995,290.467,33.65,288.568z M37.744,284.791c-0.834-1.544-1.52-3.13-2.051-4.744 c-0.56-0.557-1.075-1.152-1.515-1.8c-0.379-0.558-0.085-1.095,0.383-1.332c-0.765-1.173-1.561-2.322-2.383-3.438 c-3.835,1.583-7.467,3.817-10.726,6.536c5.959,1.565,11.283,4.284,15.303,8.976C37.16,287.57,37.486,286.159,37.744,284.791z M21.794,308.602c-0.038-0.02-0.082-0.029-0.116-0.053c-3.611-1.601-6.996-3.673-9.981-6.409c-2.996-2.746-5.357-6.045-7.446-9.51 c-1.406-2.331-2.938-4.89-3.743-7.581c-0.371,2.156-0.526,4.382-0.431,6.657c0.518,12.367,8.133,22.756,18.751,27.416 c0.41,0.18,0.825,0.348,1.243,0.511c0.106-0.391,0.403-0.74,0.902-0.798c5.197-0.604,10.02-2.95,14.011-6.321 C30.463,311.651,25.978,310.443,21.794,308.602z M31.973,321.738c0.25-0.005,0.499-0.002,0.751-0.013 c0.509-0.021,1.015-0.057,1.517-0.102c0.458-2.836,1.374-5.588,2.709-8.144c-4.061,3.527-8.986,6.086-14.147,7.069 C25.716,321.379,28.795,321.796,31.973,321.738z M39.256,287.288c-0.303,1.297-0.668,2.612-1.099,3.921 c-0.013,0.064-0.033,0.125-0.061,0.183c-2.314,6.937-6.468,13.653-12.963,16.421c3.775,1.39,7.746,2.318,11.702,3.013 c2.314-2.298,4.263-4.955,5.747-7.806c0.339-4.719-0.416-9.354-1.912-13.797C40.175,288.605,39.707,287.955,39.256,287.288z M45.653,294.088c-0.679-0.52-1.339-1.069-1.975-1.653c0.45,1.904,0.76,3.836,0.903,5.788 C45.01,296.856,45.364,295.476,45.653,294.088z M9.266,296.414c-0.003,0.008-0.01,0.013-0.014,0.021 c1.32,1.717,2.757,3.336,4.405,4.78c2.614,2.291,5.545,4.055,8.654,5.448c1.604-0.421,3.068-1.093,4.401-1.964 c-5.717-4.816-9.656-11.372-11.226-18.651C12.906,289.215,10.775,292.718,9.266,296.414z M47.429,295.341 c-0.488,2.145-1.133,4.265-1.953,6.345c-0.291,0.738-0.628,1.462-0.986,2.179c-0.043,0.153-0.111,0.283-0.205,0.39 c-0.137,0.265-0.271,0.531-0.417,0.792c1.046-0.839,2.168-1.61,3.365-2.303c3.114-1.802,6.44-2.9,9.797-3.354 C53.63,298.632,50.374,297.264,47.429,295.341z M34.503,267.138c0.352-2.64,1.058-5.225,2.108-7.674 c-0.483-0.081-0.97-0.149-1.46-0.207c-0.88-0.105-1.77-0.168-2.669-0.198c-0.789-0.026-1.583-0.033-2.385,0.001 c-6.074,0.255-11.668,2.226-16.344,5.419c-4.549,3.106-8.225,7.37-10.62,12.351c7.841-3.558,15.991-6.377,24.388-8.303 C29.835,267.996,32.164,267.536,34.503,267.138z M31.755,269.673c0.484,0.607,0.961,1.223,1.433,1.849 c0.028,0.034,0.056,0.066,0.08,0.105c0.196,0.261,0.393,0.521,0.586,0.785c0.133-0.172,0.269-0.341,0.403-0.513 c-0.028-0.904-0.012-1.807,0.044-2.706C33.45,269.344,32.602,269.505,31.755,269.673z M102.783,285.002 c-1.462-0.436-3.011-0.645-4.603-0.696c2.293,8.565,2.59,17.758-0.813,26.089c-0.196,0.48-0.413,0.953-0.647,1.42 c-0.021,0.045-0.043,0.087-0.069,0.127c-3.12,6.132-9.368,11.013-16.13,12.481c2.168,0.571,4.453,0.838,6.805,0.766 c0.091-0.003,0.18-0.001,0.271-0.005c0.331-0.014,0.659-0.039,0.986-0.066c1.265-0.105,2.5-0.305,3.698-0.598 c4.161-1.017,7.874-3.121,10.844-5.982c2.682-2.583,4.752-5.783,5.993-9.36c0.955-2.751,1.425-5.722,1.296-8.809 c-0.255-6.09-2.777-11.548-6.714-15.601C103.484,284.992,103.175,285.119,102.783,285.002z M83.631,303.755 c1.636-1.041,3.14-2.42,4.316-3.736c-1.881-1.739-4.075-2.992-6.467-3.9C81.443,298.813,82.197,301.471,83.631,303.755z M94.853,310.888c0.265-4.117-0.546-8.13-2.038-11.931c-0.227,0.981-0.499,1.975-0.819,2.964c-0.007,0.141-0.058,0.271-0.135,0.388 c-1.725,5.107-4.752,10.001-9.432,12.264c2.661,0.933,5.439,1.575,8.206,2.07C92.325,314.945,93.753,312.989,94.853,310.888z M88.201,286.971c4.208,5.613,7.682,12.151,8.521,19.098c1.949-7.15,1.36-14.649-0.609-21.741c-2.472,0.116-5,0.539-7.438,1.058 c-0.237,0.417-0.484,0.828-0.742,1.233c0.052,0.069,0.105,0.137,0.157,0.206C88.131,286.872,88.169,286.917,88.201,286.971z M81.285,293.929c3.243,1.115,6.148,2.768,8.574,5.2c0.044,0.037,0.086,0.078,0.125,0.122c0.185,0.188,0.375,0.367,0.554,0.565 c0.375-1.38,0.656-2.743,0.856-4.04c-1.226-2.442-2.695-4.776-4.297-6.968c-0.362,0.153-0.722,0.309-1.079,0.477 C84.643,290.985,83.062,292.546,81.285,293.929z M101.303,282.616c-0.491-0.385-0.996-0.752-1.516-1.098 c-2.45-1.631-5.212-2.822-8.173-3.457c-0.439,1.749-1.041,3.455-1.796,5.097C93.648,282.432,97.644,281.993,101.303,282.616z M79.269,295.373c-0.426,0.277-0.862,0.546-1.307,0.803c-0.606,0.35-1.221,0.668-1.84,0.97c0.599,2.981,1.709,5.756,3.29,8.253 c0.818-0.091,1.644-0.333,2.457-0.69c-1.712-2.73-2.554-6.043-2.348-9.255C79.436,295.429,79.354,295.398,79.269,295.373z M84.272,310.986c2.58-2.239,4.377-5.509,5.566-8.91c-0.164-0.211-0.336-0.409-0.507-0.61c-2.225,2.477-5.405,4.926-8.673,5.717 C81.713,308.557,82.914,309.832,84.272,310.986z M79.163,315.414c-0.028-0.016-0.062-0.022-0.088-0.041 c-2.769-1.23-5.365-2.823-7.655-4.927c-2.301-2.115-4.113-4.658-5.716-7.325c-0.584-0.972-1.178-1.985-1.702-3.032 c-0.402,0.008-0.804,0.012-1.205,0.003c-0.014,0.262-0.022,0.524-0.027,0.788c-0.01,0.493-0.009,0.988,0.012,1.488 c0.01,0.25,0.032,0.497,0.05,0.745c0.074,1.016,0.207,2.015,0.403,2.99c1.123,5.577,4.182,10.416,8.419,13.83 c0.874,0.704,1.797,1.347,2.765,1.924c1.067,0.636,2.187,1.189,3.351,1.654c0.116-0.375,0.413-0.704,0.895-0.762 c3.74-0.453,7.205-2.08,10.112-4.43C85.478,317.662,82.216,316.759,79.163,315.414z M73.385,309.523 c1.906,1.652,4.032,2.936,6.287,3.954c1.065-0.294,2.044-0.736,2.946-1.293c-4.119-3.583-6.98-8.3-8.235-13.583 c-1.783,2.254-3.268,4.724-4.35,7.329C71.038,307.221,72.133,308.437,73.385,309.523z M67.985,300.551 c-0.652,0.447-1.277-0.029-1.423-0.632c-0.146,0.016-0.293,0.03-0.439,0.044c0.634,1.147,1.352,2.248,1.996,3.26 c0.184,0.29,0.383,0.568,0.574,0.852c0.853-1.822,1.877-3.563,3.042-5.208c-0.766,0.23-1.537,0.429-2.312,0.594 C68.956,299.84,68.481,300.21,67.985,300.551z M32.554,227.926c0.367,3.176,2.517,6.341,4.183,8.984 c0.316,0.501,0.65,0.985,0.982,1.471c4.05-8.883,11.561-16.295,20.503-20.217c-0.366-0.47-0.737-0.931-1.111-1.387 c-0.665,0.144-1.33,0.288-1.992,0.445c-7.462,1.762-14.712,4.296-21.667,7.52c-0.322,0.149-0.627,0.115-0.883-0.01 c-0.29,0.752-0.545,1.52-0.77,2.301C32.172,227.147,32.498,227.444,32.554,227.926z M52.605,228.366 c-0.102,3.357,0.826,6.689,2.646,9.515c2.066-1.285,3.962-3.03,5.415-4.681C58.345,231.011,55.596,229.471,52.605,228.366z M46.131,229.238c0.669,3.808,2.047,7.368,4.07,10.539c1.096-0.102,2.204-0.442,3.289-0.94c-2.097-3.265-3.121-7.257-2.843-11.123 c-0.777-0.234-1.566-0.444-2.366-0.631C47.539,227.775,46.817,228.49,46.131,229.238z M60.553,217.949 c5.129,6.83,9.337,14.868,10.108,23.368c2.603-8.706,1.957-17.907-0.447-26.579c-1.346,0.106-2.692,0.275-4.03,0.45 c-2.307,0.303-4.601,0.689-6.883,1.137c0.391,0.493,0.776,0.994,1.158,1.5C60.493,217.865,60.526,217.903,60.553,217.949z M63.539,233.349c0.495-1.764,0.861-3.511,1.109-5.158c-1.478-2.949-3.256-5.764-5.191-8.398c-3.342,1.393-6.508,3.33-9.358,5.684 C55.324,226.88,59.974,229.273,63.539,233.349z M56.056,246.412c3.154-2.687,5.344-6.671,6.776-10.8 c-0.253-0.332-0.514-0.653-0.782-0.962c-2.674,3.026-6.598,6.073-10.594,6.927C52.781,243.339,54.319,244.96,56.056,246.412z M66.955,213.086c3.182-0.393,6.364-0.681,9.498-0.13c-5.128-4.141-11.722-6.512-18.825-6.214c-0.375,0.016-0.745,0.045-1.116,0.075 c-1.171,0.095-2.32,0.261-3.445,0.494c-8.661,1.795-15.803,7.546-19.543,15.217c7.059-3.191,14.392-5.721,21.951-7.442 C59.265,214.223,63.098,213.562,66.955,213.086z M71.423,245.21c-0.247,0.614-0.527,1.218-0.825,1.815 c-0.032,0.083-0.07,0.157-0.12,0.224c-3.721,7.246-11.148,13.056-19.175,14.67c0.538,0.149,1.081,0.287,1.631,0.405 c2.266,0.482,4.628,0.69,7.05,0.589c1.928-0.081,3.803-0.355,5.606-0.801c0.651-0.161,1.288-0.352,1.92-0.557 c0.166-0.054,0.332-0.107,0.497-0.164c1.762-0.61,3.442-1.387,5.022-2.316c0.575-0.338,1.136-0.698,1.684-1.075 c3.307-2.275,6.095-5.232,8.168-8.664c0.664-1.1,1.258-2.246,1.769-3.435c-1.044-1.148-1.986-2.42-2.794-3.817 c-0.676-1.168-1.227-2.374-1.669-3.6c-0.587-0.578-1.117-1.185-1.563-1.825c-0.461-0.662,0.043-1.3,0.665-1.43 c-0.096-0.494-0.18-0.988-0.242-1.484c-0.75,0.031-1.495-0.688-0.93-1.424c0.249-0.325,0.517-0.633,0.77-0.955 c-0.064-4.253,1.101-8.453,3.355-12.067c-0.995-1.499-2.131-2.895-3.386-4.172c-0.216,0.221-0.524,0.346-0.915,0.226 c-1.868-0.573-3.769-0.745-5.68-0.717C74.966,224.662,75.35,235.431,71.423,245.21z M39.101,254.864 c1.853,1.821,3.951,3.388,6.244,4.642c0.615,0.336,1.247,0.646,1.889,0.936c0.434,0.196,0.873,0.383,1.318,0.557 c0.11-0.384,0.407-0.724,0.899-0.782c4.562-0.538,8.799-2.574,12.326-5.503c-3.983-0.772-7.927-1.844-11.612-3.464 c-0.046-0.023-0.098-0.034-0.139-0.064c-3.195-1.419-6.195-3.248-8.85-5.656c-2.764-2.508-4.931-5.534-6.847-8.717 c-1.22-2.026-2.532-4.233-3.264-6.556c-0.201,1.23-0.315,2.487-0.351,3.762c-0.018,0.657-0.022,1.318,0.006,1.984 C31.031,243.421,34.194,250.041,39.101,254.864z M39.067,240.228c1.214,1.571,2.539,3.049,4.063,4.366 c2.277,1.966,4.814,3.491,7.503,4.701c1.371-0.366,2.624-0.939,3.771-1.672c-5.023-4.284-8.488-10.04-9.923-16.454 C42.245,233.943,40.393,237.001,39.067,240.228z M68.717,246.123c0.353-5.091-0.707-10.064-2.628-14.756 c-0.296,1.371-0.664,2.766-1.119,4.157c-0.014,0.108-0.05,0.21-0.106,0.304c-2.063,6.141-5.736,12.046-11.444,14.593 c3.3,1.196,6.763,2.001,10.214,2.611C65.677,250.996,67.4,248.645,68.717,246.123z M340.782,81.519 c22.541,20.485,61.834,46.569,121.021,54.499c12.997,1.741,25.353,2.501,37.017,2.501c41.422,0,74.139-9.58,96.018-18.792 c5.498-2.315,10.54-4.699,15.124-7.052c0.111-0.828,0.243-1.646,0.395-2.457c-4.905,2.561-10.366,5.172-16.381,7.702 c-27.796,11.69-73.239,23.975-131.906,16.116c-58.631-7.855-97.549-33.665-119.872-53.933 c-23.274-21.132-33.84-40.782-34.706-42.437c-0.034-0.066-0.059-0.113-0.063-0.121c-0.25-0.493-0.851-0.691-1.344-0.441 c-0.24,0.121-0.406,0.327-0.489,0.562c-0.087,0.248-0.081,0.528,0.047,0.781C305.746,38.652,316.338,59.304,340.782,81.519z M595.386,148.671c-28.881,19.095-78.108,40.008-148.599,31.189c-70.495-8.819-116.33-46.992-142.368-77.462 c-28.142-32.933-39.86-64.197-40.059-64.734c-0.001-0.002-0.005-0.013-0.005-0.014c-0.191-0.519-0.766-0.784-1.283-0.595 c-0.291,0.107-0.489,0.338-0.585,0.609c-0.075,0.212-0.093,0.447-0.009,0.675c0.116,0.316,11.916,31.979,40.372,65.3 c16.715,19.573,35.828,35.895,56.808,48.511c26.229,15.773,55.46,25.764,86.882,29.694c11.529,1.442,22.49,2.095,32.897,2.095 c53.817,0,92.689-17.474,117.136-33.655c5.39-3.568,10.286-7.206,14.72-10.79c-0.132-0.709-0.264-1.464-0.395-2.251 C606.268,141.03,601.105,144.89,595.386,148.671z M661.68,24.126c4.768,9.829,5.751,21.825,2.583,32.285 c0.736,0.029,1.467,0.047,2.194,0.057c0.345-0.651,0.691-1.301,1.024-1.958c3.912-7.71,6.974-15.805,9.237-24.147 c0.089-0.328,0.291-0.526,0.531-0.626c-0.446-0.814-0.933-1.609-1.455-2.386c-0.277,0.236-0.669,0.312-1.072,0.043 c-2.725-1.82-6.449-2.33-9.622-2.829C663.964,24.384,662.823,24.237,661.68,24.126z M664.042,41.484 c-0.059-1.179-0.156-2.356-0.308-3.526c-3.748-2.199-7.838-3.606-12.057-4.16c-0.739,1.08-1.272,2.353-1.641,3.724 c4.349,0.561,8.508,2.541,11.649,5.606C662.482,42.61,663.268,42.061,664.042,41.484z M649.707,47.705 c3.648-0.405,7.033-1.673,10.216-3.497c-2.824-2.595-6.485-4.294-10.297-4.732C649.195,42.248,649.31,45.215,649.707,47.705z M646.112,47.813c0.54,0.026,1.075,0.033,1.604,0.021c-0.675-4.504-0.53-10.259,1.731-14.246c-2.564-0.153-5.159-0.001-7.739,0.481 C641.716,38.752,643.579,43.575,646.112,47.813z M634.816,18.397c-2.83,4.295-4.075,9.722-4.231,14.891 c3.483-2.82,7.18-5.399,11.15-7.385c0.158-0.169,0.345-0.254,0.547-0.265c3.521-1.701,7.253-2.935,11.243-3.449 c4.055-0.522,8.087-0.19,12.106,0.445c2.625,0.414,5.551,0.866,8.085,1.961c-1.404-1.659-2.998-3.199-4.787-4.581 c-9.796-7.566-22.648-8.429-33.05-3.305c-0.381,0.188-0.758,0.387-1.133,0.591C635,17.579,635.09,17.982,634.816,18.397z M632.244,18.822c-2.517,1.695-4.824,3.786-6.829,6.26c-0.158,0.195-0.32,0.384-0.474,0.583c-0.312,0.404-0.61,0.813-0.899,1.227 c1.902,2.207,3.435,4.718,4.534,7.429C628.599,29.079,629.66,23.463,632.244,18.822z M654.311,24.097 c-3.952,0.43-7.66,1.629-11.153,3.316c-0.712,1.492-1.14,3.042-1.33,4.621c7.402-1.241,14.885-0.068,21.497,3.409 c-0.763-4.021-2.077-7.919-3.95-11.482C657.689,23.885,656,23.913,654.311,24.097z M640.49,28.819 c-3.511,1.996-6.797,4.44-9.887,7.035c0.146,3.267,0.913,6.351,2.149,9.255c3.4,3.379,7.481,5.826,11.903,7.564 c0.808,0.018,1.621,0.078,2.437,0.164C642.015,46.021,638.038,36.947,640.49,28.819z M640.301,52.905 c-1.762-0.889-3.452-1.906-5.05-3.065c0.761,1.207,1.597,2.379,2.492,3.516C638.585,53.169,639.438,53.016,640.301,52.905z M635.185,53.274c-1.627-2.227-3.001-4.544-4.073-6.965c-0.012-0.012-0.025-0.023-0.037-0.035c-0.214-0.217-0.29-0.462-0.282-0.697 c-0.093-0.225-0.179-0.453-0.267-0.68c-0.03,1.352-0.162,2.719-0.405,4.092c-0.626,3.542-1.927,6.795-3.742,9.655 c2.775-2.116,5.925-3.729,9.3-4.744C635.519,53.686,635.342,53.49,635.185,53.274z M665.569,62.182 c1.791,1.968,3.312,4.169,4.508,6.547c0.373-0.318,0.738-0.647,1.099-0.984c0.646-0.606,1.269-1.246,1.87-1.915 c0.528-0.587,1.045-1.19,1.535-1.825c3.716-4.811,5.81-10.36,6.377-15.994c0.552-5.477-0.342-11.033-2.609-16.071 c-2.358,8.42-5.531,16.596-9.544,24.369C667.778,58.294,666.698,60.252,665.569,62.182z M654.882,54.757 c0.747-0.06,1.49-0.075,2.22,0.001c0.663,0.069,0.974,0.645,0.945,1.164c1.388,0.168,2.776,0.296,4.156,0.385 c1.247-3.966,1.875-8.173,1.895-12.402c-5.002,3.538-10.539,5.912-16.696,5.938c0.824,1.22,1.69,2.374,2.568,3.445 C651.674,53.641,653.317,54.132,654.882,54.757z M662.085,58.925c0.706,0.558,1.382,1.148,2.03,1.766 c0.432-0.744,0.854-1.494,1.27-2.246c-1.137-0.029-2.281-0.076-3.432-0.153C661.999,58.502,662.041,58.714,662.085,58.925z M605.995,81.876c2.545-0.323,4.907-1.182,7.144-2.422c-2.008-1.752-4.546-2.914-7.189-3.268 C605.678,78.107,605.74,80.119,605.995,81.876z M607.03,87.27c2.655,0.629,5.383,1.001,8.081,1.185 c0.117-0.384,0.228-0.77,0.33-1.16c-0.41-2.13-0.584-4.327-0.5-6.56c-3.205,1.93-6.663,3.168-10.454,3.289 C605.304,85.2,606.168,86.292,607.03,87.27z M597.443,87.021c4.073,4.912,9.395,8.499,15.146,11.153 c0.691-0.976,1.337-1.99,1.974-2.995c0.725-1.144,1.416-2.309,2.092-3.482c-0.141-0.389-0.274-0.781-0.399-1.177 c-7.144-0.347-14.574-1.9-20.557-5.815C596.249,85.498,596.825,86.275,597.443,87.021z M585.331,92.16 c1.493,2.516,3.47,4.801,5.927,6.698c4.829,3.73,10.636,5.314,16.279,4.907c-0.02-0.326,0.107-0.662,0.456-0.889 c1.301-0.847,2.386-1.915,3.359-3.087c-6.543-3.059-12.492-7.362-16.792-13.239c-1.159-1.585-2.131-3.309-2.914-5.115 c-0.062-0.061-0.129-0.116-0.19-0.178c-0.274-0.277-0.32-0.596-0.248-0.886c-0.89-2.321-1.461-4.76-1.664-7.223 c-0.092-0.192-0.104-0.406-0.035-0.615c-0.238-4.117,0.539-8.269,2.541-11.996c-1.812,1.284-3.471,2.847-4.916,4.675 c-0.056,0.071-0.116,0.138-0.171,0.21c-0.203,0.263-0.395,0.53-0.585,0.798c-0.734,1.035-1.376,2.109-1.923,3.214 c-1.901,3.838-2.682,8.035-2.405,12.149C582.298,85.284,583.406,88.916,585.331,92.16z M610.709,103.319 c0.61-0.127,1.216-0.278,1.815-0.453c2.826-0.825,5.515-2.171,7.908-4.027c-1.057-1.465-1.977-3.027-2.748-4.666 C615.78,97.563,613.554,100.909,610.709,103.319z M591.505,73.279c0.106,2.392,0.696,4.653,1.605,6.789 c2.991,2.935,6.645,4.933,10.584,6.253c-3.837-5.125-6.816-11.836-5.262-18.021C595.985,69.738,593.683,71.459,591.505,73.279z M615.135,78.247c0.062-0.505,0.138-1.012,0.227-1.519c0.122-0.688,0.275-1.362,0.442-2.03c-2.647-1.457-5.479-2.402-8.401-2.806 c-0.445,0.702-0.796,1.488-1.046,2.337c3.186,0.473,6.221,1.934,8.558,4.155C614.986,78.337,615.062,78.296,615.135,78.247z M603.193,82.005c0.273,0.009,0.543,0.01,0.812,0.007c-0.446-3.315-0.306-7.331,1.209-10.318c-1.738-0.079-3.495,0.017-5.253,0.323 C600.014,75.427,601.362,78.912,603.193,82.005z M620.398,61.127c-0.195-0.15-0.394-0.29-0.592-0.434 c-0.825-0.598-1.674-1.141-2.546-1.619c-4.99-2.735-10.662-3.513-16.003-2.471c-1.104,0.215-2.193,0.508-3.259,0.878 c-1.153,0.4-2.279,0.891-3.367,1.469c0.232,0.278,0.306,0.667,0.045,1.068c-2.02,3.104-2.967,6.937-3.151,10.677 c2.524-2.007,5.189-3.836,8.037-5.269c0.155-0.169,0.34-0.254,0.54-0.266c2.738-1.317,5.643-2.264,8.755-2.64 c2.998-0.362,5.97-0.118,8.94,0.341c1.152,0.178,2.371,0.373,3.57,0.653c0.249-0.308,0.501-0.614,0.762-0.911 c-0.167-0.156-0.339-0.309-0.511-0.461C621.224,61.795,620.821,61.454,620.398,61.127z M609.644,64.436 c-3.066,0.29-5.937,1.195-8.639,2.489c-0.459,0.997-0.748,2.024-0.901,3.069c5.422-0.815,10.817-0.001,15.693,2.43 c-0.575-2.808-1.509-5.532-2.807-8.054C611.875,64.326,610.76,64.33,609.644,64.436z M618.328,68.118 c0.017-0.557,0.041-1.114,0.097-1.67c0.079-0.789,0.881-1.09,1.447-0.899c0.063-0.093,0.127-0.186,0.19-0.279 c-0.84-0.168-1.68-0.301-2.48-0.429c-0.762-0.122-1.526-0.221-2.292-0.305c0.845,1.818,1.521,3.723,2.032,5.678 C617.631,69.499,617.966,68.799,618.328,68.118z M700.328,90.155c-2.135,7.585-5.002,14.948-8.632,21.947 c-2.977,5.74-6.44,12.791-11.657,17.049c1.52-0.297,3.018-0.717,4.476-1.263c4.735-1.772,9.052-4.838,12.37-9.134 C703.419,110.293,704.377,99.288,700.328,90.155z M674.622,96.886c-0.362,2.409-0.271,4.952,0.066,7.135 c3.169-0.372,6.109-1.465,8.882-3.035C681.099,98.757,677.927,97.29,674.622,96.886z M676.415,91.794 c-0.614,0.923-1.064,1.99-1.384,3.137c3.844,0.526,7.513,2.281,10.305,4.979c0.672-0.438,1.336-0.901,1.99-1.387 c-0.052-1.02-0.135-2.039-0.265-3.052C683.74,93.537,680.136,92.293,676.415,91.794z M685.495,83.133 c1.716,3.594,2.875,7.496,3.454,11.494c0.835,5.764,0.464,11.718-1.176,17.223c0.593,0.022,1.181,0.035,1.768,0.044 c0.28-0.53,0.563-1.058,0.835-1.593c3.529-6.937,6.285-14.221,8.325-21.729c0.089-0.326,0.289-0.524,0.527-0.625 c-0.37-0.668-0.772-1.322-1.199-1.962c-0.277,0.234-0.668,0.309-1.069,0.043c-2.498-1.652-5.941-2.12-8.845-2.565 C687.243,83.33,686.37,83.222,685.495,83.133z M675.961,110.322c3.206,0.762,6.502,1.208,9.754,1.422 c1.075-3.465,1.63-7.125,1.666-10.806c-4.411,3.084-9.262,5.14-14.662,5.221C673.754,107.677,674.861,109.081,675.961,110.322z M682.666,123.235c0.763-1.074,1.481-2.185,2.188-3.289c1.272-1.985,2.472-4.014,3.615-6.076c-9.15-0.256-18.902-2.143-26.469-7.433 c0.69,1.058,1.439,2.087,2.242,3.085C669.128,115.597,675.633,120.011,682.666,123.235z M671.43,104.14 c0.423,0.018,0.843,0.023,1.258,0.015c-0.576-4.004-0.435-8.999,1.506-12.567c-2.206-0.12-4.439,0.016-6.665,0.422 C667.557,96.145,669.199,100.394,671.43,104.14z M661.347,109c-1.397-1.937-2.578-3.946-3.506-6.039 c-0.009-0.009-0.018-0.016-0.027-0.025c-0.23-0.233-0.308-0.498-0.285-0.749c-1.135-2.776-1.814-5.703-1.944-8.813 c-0.067-0.171-0.076-0.353-0.019-0.534c-0.005-0.256-0.03-0.505-0.028-0.764c0.037-4.621,0.963-9.563,3.201-13.689 c-0.464,0.319-0.923,0.648-1.371,0.996c-1.824,1.421-3.501,3.092-4.98,5.007c-1.181,1.529-2.179,3.142-3,4.811 c-0.295,0.6-0.559,1.209-0.807,1.822c-0.067,0.166-0.136,0.332-0.2,0.499c-0.664,1.734-1.149,3.513-1.455,5.313 c-0.112,0.656-0.197,1.314-0.262,1.974c-0.391,3.999,0.076,8.042,1.369,11.841c0.414,1.216,0.908,2.409,1.49,3.565 c1.55-0.06,3.13,0.039,4.72,0.32c1.345,0.238,2.636,0.598,3.872,1.057c0.737-0.089,1.471-0.117,2.19-0.051 c0.807,0.074,1.102,0.903,0.886,1.471c0.411,0.23,0.816,0.468,1.209,0.722c0.46-0.579,1.541-0.624,1.743,0.296 c0.084,0.384,0.159,0.77,0.239,1.155c3.282,2.687,5.736,6.275,7.047,10.315c1.794,0.204,3.6,0.235,5.39,0.095 c-0.02-0.325,0.109-0.659,0.459-0.884c1.626-1.044,2.968-2.381,4.162-3.855C673.596,121.223,666.449,116.072,661.347,109z M671.993,73.594c-2.587,0.245-5.137,0.842-7.573,1.789c-0.654,0.254-1.297,0.538-1.932,0.842c-0.409,0.196-0.813,0.401-1.214,0.617 c0.243,0.278,0.326,0.676,0.058,1.084c-2.482,3.782-3.596,8.517-3.764,13.069c3.069-2.47,6.326-4.738,9.821-6.49 c0.149-0.152,0.322-0.23,0.509-0.244c3.119-1.509,6.422-2.608,9.948-3.07c3.621-0.474,7.207-0.209,10.8,0.343 c2.369,0.364,5.015,0.765,7.323,1.724c-0.804-0.935-1.685-1.821-2.628-2.66c-0.491-0.437-0.994-0.865-1.522-1.273 C685.944,74.788,678.843,72.945,671.993,73.594z M678.622,83.096c-3.479,0.391-6.744,1.452-9.823,2.937 c-0.6,1.276-0.972,2.596-1.147,3.941c6.548-1.057,13.13-0.035,18.995,2.989c-0.683-3.496-1.832-6.886-3.456-10 C681.668,82.898,680.144,82.925,678.622,83.096z M657.573,93.568c0.132,2.892,0.814,5.62,1.905,8.188 c3.675,3.637,8.227,6.063,13.126,7.629c-4.728-6.139-8.558-14.452-6.441-21.957C663.117,89.183,660.263,91.313,657.573,93.568z" fill="#dd855f"/></g></svg>