<svg width="29" height="28" viewBox="0 0 29 28" fill="none" xmlns="http://www.w3.org/2000/svg">
<path fill-rule="evenodd" clip-rule="evenodd" d="M1.8125 14C1.8125 17.2489 3.14921 20.3647 5.52858 22.6621C7.90795 24.9594 11.1351 26.25 14.5 26.25C17.8649 26.25 21.092 24.9594 23.4714 22.6621C25.8508 20.3647 27.1875 17.2489 27.1875 14C27.1875 10.7511 25.8508 7.63526 23.4714 5.33794C21.092 3.04062 17.8649 1.75 14.5 1.75C11.1351 1.75 7.90795 3.04062 5.52858 5.33794C3.14921 7.63526 1.8125 10.7511 1.8125 14ZM29 14C29 17.713 27.4723 21.274 24.753 23.8995C22.0338 26.525 18.3456 28 14.5 28C10.6544 28 6.96623 26.525 4.24695 23.8995C1.52767 21.274 0 17.713 0 14C0 10.287 1.52767 6.72601 4.24695 4.10051C6.96623 1.475 10.6544 0 14.5 0C18.3456 0 22.0338 1.475 24.753 4.10051C27.4723 6.72601 29 10.287 29 14ZM15.4062 7.875C15.4062 7.64294 15.3108 7.42038 15.1408 7.25628C14.9709 7.09219 14.7404 7 14.5 7C14.2596 7 14.0291 7.09219 13.8592 7.25628C13.6892 7.42038 13.5938 7.64294 13.5938 7.875V18.0128L9.70413 14.2555C9.53396 14.0912 9.30316 13.9989 9.0625 13.9989C8.82184 13.9989 8.59104 14.0912 8.42087 14.2555C8.25071 14.4198 8.1551 14.6426 8.1551 14.875C8.1551 15.1074 8.25071 15.3302 8.42087 15.4945L13.8584 20.7445C13.9426 20.826 14.0426 20.8906 14.1527 20.9347C14.2628 20.9789 14.3808 21.0016 14.5 21.0016C14.6192 21.0016 14.7372 20.9789 14.8473 20.9347C14.9574 20.8906 15.0574 20.826 15.1416 20.7445L20.5791 15.4945C20.7493 15.3302 20.8449 15.1074 20.8449 14.875C20.8449 14.6426 20.7493 14.4198 20.5791 14.2555C20.409 14.0912 20.1782 13.9989 19.9375 13.9989C19.6968 13.9989 19.466 14.0912 19.2959 14.2555L15.4062 18.0128V7.875Z" fill="#FFB4C6"/>
</svg>
