<svg version="1.2" xmlns="http://www.w3.org/2000/svg" viewBox="0 0 140 92" width="140" height="92">
	<title>big_arrow_right-svg</title>
	<defs>
		<linearGradient id="g1" x1="70" y1="-1.7" x2="70" y2="97.1" gradientUnits="userSpaceOnUse">
			<stop offset="0" stop-color="#ff8177"/>
			<stop offset="1" stop-color="#b12a5b"/>
		</linearGradient>
		<linearGradient id="g2" x1="70" y1="20.6" x2="70" y2="70.7" gradientUnits="userSpaceOnUse">
			<stop offset="0" stop-color="#ffe9e7"/>
			<stop offset="1" stop-color="#dd6e96"/>
		</linearGradient>
	</defs>
	<style>
		.s0 { fill: url(#g1) } 
		.s1 { fill: url(#g2) } 
	</style>
	<path id="Layer" fill-rule="evenodd" class="s0" d="m56.4 0.3c1.3 0 2.6 0.3 3.8 0.9 2.7 1.4 4.4 4.1 4.4 7.1v16.2c0 0 1.2 0 2.7 0h64.5c4.4 0 8.1 3.6 8.1 8.1v26.8c0 4.5-3.7 8.1-8.1 8.1-1.5 0-67.2 0-67.2 0v16.2c0 3-1.7 5.7-4.4 7.1-2.8 1.4-6.1 1.1-8.7-0.7l-45.5-33c-3.2-2.4-5.5-6-5.8-10-0.4-4.7 1.6-9.1 5.4-11.9l45.9-33.3c1.5-1.1 3.2-1.6 4.9-1.6zm75.4 61.8c1.4 0 2.7-1.2 2.7-2.7v-26.8c0-1.5-1.3-2.7-2.7-2.7-4.5 0-72.5 0-72.5 0v-21.6c0-1.4-1.1-2.1-1.5-2.3-1.1-0.5-2.2-0.4-3.1 0.3l-45.7 33.1c-1.8 1.3-3.2 3.3-3.4 5.6-0.4 2.9 0.8 5.7 3.2 7.4l45.9 33.3c0.9 0.7 2 0.8 3.1 0.3 0.4-0.2 1.5-0.9 1.5-2.3v-21.6c0 0 3.5 0 8 0z"/>
	<path id="Layer" class="s1" d="m18.5 41.6l28.4-19.3c1.8-1.3 4.3 0 4.3 2.2v16.1h69.9c1.4 0 2.6 1.2 2.6 2.7v5.3c0 1.5-1.2 2.8-2.7 2.8h-69.8v16.1c0 2.2-2.5 3.5-4.3 2.2l-28.4-19.4c-3-2.1-3-6.6 0-8.7z"/>
</svg>