<svg width="140" height="92" viewBox="0 0 140 92" fill="none" xmlns="http://www.w3.org/2000/svg">
<path d="M83.6041 91.6877C82.3061 91.6877 80.9999 91.384 79.7879 90.7659C77.0654 89.3764 75.375 86.654 75.375 83.6547V67.5002C75.375 67.5002 74.2194 67.5002 72.7466 67.5002H8.24662C3.76656 67.5002 0.125 63.8828 0.125 59.4377V32.5627C0.125 28.1176 3.76656 24.5002 8.24663 24.5002H72.7466C74.2194 24.5002 75.375 24.5002 75.375 24.5002V8.34563C75.375 5.34638 77.0655 2.62126 79.7906 1.2345C82.6151 -0.19794 85.9449 0.0573697 88.4873 1.901L133.963 34.9196C137.214 37.2792 139.51 40.8724 139.827 44.8768C140.203 49.6176 138.166 54.0116 134.376 56.7663L88.4873 90.0994C87.0361 91.1529 85.3268 91.6877 83.6041 91.6877L83.6041 91.6877ZM8.24662 29.8752C6.75774 29.8752 5.49999 31.106 5.49999 32.5627V59.4377C5.49999 60.8943 6.75774 62.1252 8.24662 62.1252H72.7466C77.1595 62.1252 80.75 62.1252 80.75 62.1252V83.6547C80.75 85.071 81.7847 85.751 82.2308 85.9767C83.2548 86.4981 84.4158 86.4148 85.3268 85.7483L130.982 52.5872C132.815 51.2569 134.156 49.2735 134.433 47.0268C134.798 44.0625 133.586 41.2917 131.235 39.5824L85.3268 6.25205C84.4131 5.58555 83.2548 5.49955 82.2308 6.02361C81.7847 6.24936 80.75 6.9293 80.75 8.34561V29.8752C80.75 29.8752 77.1595 29.8752 72.7466 29.8752L8.24662 29.8752Z" fill="url(#paint0_linear_250_288)"/>
<path d="M121.522 41.6866L93.0641 22.3178C91.285 21.0466 88.8125 22.3205 88.8125 24.5054V40.6251H18.9993C17.4862 40.6251 16.25 41.8613 16.25 43.3744V48.6876C16.25 50.1711 17.454 51.3751 18.9375 51.3751H88.8125V67.4947C88.8125 69.6823 91.285 70.9535 93.0641 69.6823L121.506 50.4264C124.505 48.2844 124.519 43.8286 121.522 41.6866V41.6866Z" fill="url(#paint1_linear_250_288)"/>
<defs>
<linearGradient id="paint0_linear_250_288" x1="70" y1="-1.70294" x2="70" y2="97.0627" gradientUnits="userSpaceOnUse">
<stop stop-color="#FF8177"/>
<stop offset="1" stop-color="#B12A5B"/>
</linearGradient>
<linearGradient id="paint1_linear_250_288" x1="70.0054" y1="20.6435" x2="70.0054" y2="70.6874" gradientUnits="userSpaceOnUse">
<stop stop-color="#FFE9E7"/>
<stop offset="1" stop-color="#DD6E96"/>
</linearGradient>
</defs>
</svg>
