<svg version="1.2" xmlns="http://www.w3.org/2000/svg" viewBox="0 0 26 27" width="26" height="27">
	<title>Ellipse 86-svg</title>
	<style>
		.s0 { fill: #f4fff0;stroke: #91e48a;stroke-width: 2 } 
		.s1 { fill: none;stroke: #91e48a;stroke-linecap: round;stroke-linejoin: round;stroke-width: 2 } 
	</style>
	<path id="Layer" class="s0" d="m13 25.3c-6.6 0-12-5.4-12-12 0-6.7 5.4-12 12-12 6.6 0 12 5.3 12 12 0 6.6-5.4 12-12 12z"/>
	<path id="Layer" class="s1" d="m15.6 8.7q0.2-0.2 0.4-0.3 0.3-0.1 0.6-0.1 0.3 0 0.5 0.1 0.3 0.1 0.5 0.3 0.2 0.2 0.3 0.4 0.1 0.3 0.1 0.6 0 0.3-0.1 0.5-0.1 0.3-0.3 0.5l-6.8 6.8-2.8 0.8 0.8-2.8z"/>
</svg>