<svg width="760" height="513" viewBox="0 0 760 513" fill="none" xmlns="http://www.w3.org/2000/svg">
<path d="M155.843 505.747H67.1069C65.5506 505.747 64.2891 507.008 64.2891 508.564V510.125C64.2891 511.681 65.5506 512.942 67.1069 512.942H155.843C157.4 512.942 158.661 511.681 158.661 510.125V508.564C158.661 507.008 157.4 505.747 155.843 505.747Z" fill="#ADBEC4"/>
<path d="M718.034 505.747H693.753C692.196 505.747 690.935 507.008 690.935 508.564V510.125C690.935 511.681 692.196 512.942 693.753 512.942H718.034C719.59 512.942 720.852 511.681 720.852 510.125V508.564C720.852 507.008 719.59 505.747 718.034 505.747Z" fill="#ADBEC4"/>
<path d="M322.818 505.747H234.081C232.525 505.747 231.264 507.008 231.264 508.564V510.125C231.264 511.681 232.525 512.942 234.081 512.942H322.818C324.374 512.942 325.636 511.681 325.636 510.125V508.564C325.636 507.008 324.374 505.747 322.818 505.747Z" fill="#ADBEC4"/>
<path d="M453.097 505.747H364.36C362.804 505.747 361.542 507.008 361.542 508.564V510.125C361.542 511.681 362.804 512.942 364.36 512.942H453.097C454.653 512.942 455.915 511.681 455.915 510.125V508.564C455.915 507.008 454.653 505.747 453.097 505.747Z" fill="#ADBEC4"/>
<path d="M612.632 505.747H491.676C490.12 505.747 488.859 507.008 488.859 508.564V510.125C488.859 511.681 490.12 512.942 491.676 512.942H612.632C614.189 512.942 615.45 511.681 615.45 510.125V508.564C615.45 507.008 614.189 505.747 612.632 505.747Z" fill="#ADBEC4"/>
<path d="M185.583 110.092C185.583 110.092 176.212 103.653 162.509 108.627C148.807 113.601 145.715 131.983 149.097 146.969C152.478 161.955 133.607 213.062 133.607 213.062C133.607 213.062 143.413 226.857 177.677 221.577C177.677 221.577 203.247 175.138 201.347 141.802C199.447 108.466 185.583 110.092 185.583 110.092Z" fill="#0E3944"/>
<path d="M196.404 167.685C209.285 163.565 217.159 174.301 224.549 194.245C231.94 214.189 234.404 216.201 234.404 216.201L262.887 234.503L260.521 245.175C260.521 245.175 233.421 234.551 226.852 227.806C220.282 221.062 201.443 186.873 201.443 186.873L196.404 167.685Z" fill="#EF6E4B"/>
<path d="M133.607 296.62C133.607 296.62 128.02 324.917 128.954 367.445C128.954 367.445 106.926 399.912 125.105 492.548H134.638C134.638 492.548 142.415 413.674 148.372 392.378C154.33 371.083 176.341 364.467 177.532 299.533L133.607 296.62Z" fill="#FF8B66"/>
<path d="M90.0358 379.823C84.4968 361.569 70.2629 331.002 33.6798 289.569C32.8376 289.246 31.928 289.139 31.0337 289.257C30.1395 289.375 29.289 289.715 28.5595 290.245C25.4519 292.145 25.4519 294.366 25.4519 294.366C25.4519 294.366 43.7756 334.269 55.4494 363.581C57.3675 368.39 60.6829 372.513 64.9679 375.42C69.2529 378.326 74.3109 379.882 79.4892 379.887L90.0358 379.823Z" fill="#FF8B66"/>
<path d="M156.536 415.107C156.536 415.107 156.665 428.725 147.728 428.966C135.104 429.304 134.638 415.558 120.355 416.008C106.073 416.459 76.5587 420.032 67.2197 397.69C62.3892 386.149 69.0069 371.324 53.3722 360.153C37.7375 348.982 45.3214 336.475 53.3722 329.779C61.423 323.082 49.8942 315.758 58.2027 312.346C60.0583 311.607 62.1202 311.573 63.9994 312.249C65.0707 312.625 66.0883 313.139 67.0265 313.779C70.0323 315.957 72.5952 318.689 74.5782 321.827C98.2638 256.973 140.434 248.41 140.434 248.41L182.137 262.8C183.12 363.726 156.536 415.107 156.536 415.107Z" fill="#164353"/>
<path d="M196.404 167.685C188.726 169.791 180.681 170.198 172.831 168.876C158.983 166.768 154.491 158.076 144.765 163.677C130.145 172.064 136.988 200.957 140.659 215.991C142.028 221.593 143.751 236.305 140.45 248.442C140.45 248.442 159.901 263.573 182.17 262.816L194.31 236.418C194.31 236.418 220.717 204.82 196.404 167.685Z" fill="#CFD8DC"/>
<path d="M171.687 143.46C172.494 152.305 171.317 161.219 168.242 169.553C168.242 169.553 175.471 180.209 182.363 173.206C183.294 163.825 186.144 154.736 190.736 146.502C196.001 137.005 171.687 143.46 171.687 143.46Z" fill="#EF6E4B"/>
<path d="M160.577 143.927C160.577 143.927 154.475 140.064 155.167 146.019C155.956 152.893 162.687 154.245 163.395 151.83C164.103 149.416 160.577 143.927 160.577 143.927Z" fill="#FF8B66"/>
<path d="M195.566 136.49C195.566 136.49 199.431 130.422 201.347 136.088C203.553 142.655 198.126 146.728 196.387 144.86C194.648 142.993 195.566 136.49 195.566 136.49Z" fill="#FF8B66"/>
<path d="M182.991 164.498C171.929 166.977 164.087 161.15 159.241 139.516C156.745 128.361 160.851 120.2 173.265 117.48C185.68 114.76 192.378 120.377 194.874 131.548C200.091 154.792 194.391 161.955 182.991 164.498Z" fill="#FF8B66"/>
<path d="M192.958 140.08C193.28 140.535 193.452 141.079 193.451 141.636C193.45 142.193 193.276 142.737 192.952 143.191C192.629 143.645 192.172 143.987 191.646 144.17C191.119 144.353 190.549 144.368 190.013 144.213C189.478 144.058 189.004 143.74 188.657 143.304C188.31 142.867 188.107 142.334 188.077 141.777C188.047 141.221 188.19 140.669 188.488 140.197C188.785 139.726 189.222 139.358 189.737 139.146C190.29 138.85 190.936 138.783 191.538 138.957C192.14 139.132 192.649 139.534 192.958 140.08Z" fill="#DB614D"/>
<path d="M170.367 145.762C170.584 146.277 170.635 146.846 170.513 147.391C170.391 147.937 170.102 148.43 169.686 148.804C169.271 149.177 168.749 149.412 168.194 149.475C167.639 149.539 167.077 149.428 166.588 149.158C166.099 148.887 165.706 148.472 165.465 147.968C165.223 147.464 165.144 146.898 165.239 146.347C165.334 145.797 165.598 145.29 165.995 144.896C166.392 144.503 166.901 144.243 167.453 144.152C168.052 143.995 168.689 144.075 169.232 144.375C169.774 144.674 170.181 145.171 170.367 145.762Z" fill="#DB614D"/>
<path d="M185.261 130.051C185.147 130.052 185.035 130.018 184.939 129.955C183.536 129.195 181.901 128.983 180.35 129.359C180.278 129.379 180.203 129.384 180.129 129.374C180.056 129.364 179.984 129.34 179.92 129.302C179.856 129.265 179.799 129.215 179.754 129.156C179.709 129.096 179.676 129.029 179.658 128.957C179.623 128.812 179.645 128.659 179.72 128.53C179.795 128.401 179.917 128.306 180.06 128.265C181.924 127.811 183.89 128.075 185.567 129.005C185.691 129.09 185.777 129.22 185.807 129.367C185.837 129.514 185.809 129.667 185.728 129.794C185.677 129.871 185.607 129.935 185.526 129.979C185.445 130.024 185.354 130.049 185.261 130.051Z" fill="#0E3944"/>
<path d="M164.458 134.655C164.356 134.653 164.256 134.626 164.168 134.575C164.04 134.498 163.948 134.373 163.911 134.228C163.875 134.083 163.898 133.93 163.975 133.802C165.091 132.238 166.76 131.157 168.644 130.776C168.791 130.752 168.942 130.785 169.065 130.869C169.187 130.953 169.273 131.081 169.304 131.226C169.318 131.299 169.318 131.374 169.303 131.447C169.288 131.52 169.258 131.589 169.216 131.65C169.174 131.712 169.121 131.764 169.059 131.805C168.996 131.845 168.927 131.873 168.854 131.886C167.291 132.219 165.901 133.105 164.941 134.381C164.891 134.465 164.82 134.534 164.735 134.582C164.651 134.63 164.555 134.655 164.458 134.655Z" fill="#0E3944"/>
<path d="M185.744 136.055C186.05 137.424 185.744 138.679 184.923 138.84C184.102 139.001 183.313 138.051 182.975 136.667C182.637 135.283 182.975 134.06 183.812 133.882C184.649 133.705 185.438 134.687 185.744 136.055Z" fill="#1A4850"/>
<path d="M170.399 139.355C170.705 140.723 170.399 141.979 169.562 142.156C168.725 142.333 167.952 141.351 167.63 139.983C167.308 138.615 167.63 137.359 168.451 137.182C169.272 137.005 170.077 137.987 170.399 139.355Z" fill="#1A4850"/>
<path d="M175.359 152.345C175.359 152.345 182.443 151.766 185.583 149.126C185.583 149.126 184.714 154.679 180.849 155.05C179.771 155.175 178.679 154.987 177.705 154.508C176.731 154.028 175.916 153.277 175.359 152.345Z" fill="#1A4850"/>
<path d="M181.88 136.2C181.88 136.2 182.121 132.611 183.49 132.546C184.859 132.482 186.533 135.154 186.533 135.154L188.256 133.689L186.356 134.381C186.356 134.381 184.649 131.597 183.345 131.87C181.509 132.289 181.88 136.2 181.88 136.2Z" fill="#1A4850"/>
<path d="M171.237 139.017C171.237 139.017 169.481 135.798 168.209 136.41C166.937 137.021 166.599 140.064 166.599 140.064L164.409 139.468L166.422 139.291C166.422 139.291 166.776 136.072 168.032 135.734C169.916 135.315 171.237 139.017 171.237 139.017Z" fill="#1A4850"/>
<path d="M178.933 145.955L178.37 144.876C178.688 144.76 178.953 144.534 179.119 144.238C179.284 143.943 179.338 143.599 179.271 143.267C179.126 142.623 178.595 142.092 178.209 142.076C177.822 142.06 177.806 142.253 177.661 142.639L176.518 142.221C176.608 141.819 176.837 141.462 177.163 141.212C177.49 140.962 177.894 140.835 178.305 140.852C178.843 140.954 179.336 141.216 179.721 141.604C180.107 141.992 180.365 142.488 180.463 143.025C180.576 143.615 180.487 144.225 180.209 144.757C179.932 145.289 179.482 145.711 178.933 145.955Z" fill="#DB614D"/>
<path d="M161.495 147.758C161.495 147.758 158.082 135.218 160.11 126.349C160.11 126.349 169.771 112.973 188.272 119.589C192.087 126.208 194.862 133.374 196.5 140.836C196.5 140.836 197.193 136.394 195.341 126.478C193.489 116.562 184.698 110.381 172.637 112.377C160.577 114.373 147.696 126.43 161.495 147.758Z" fill="#0E3944"/>
<path d="M180.946 116.868C180.946 116.868 181.686 120.088 178.498 128.571C178.174 128.239 177.787 127.976 177.36 127.796C176.933 127.616 176.474 127.523 176.011 127.523C175.547 127.523 175.088 127.616 174.661 127.796C174.234 127.976 173.847 128.239 173.523 128.571C170.85 130.953 165.472 130.18 163.54 131.452C162.952 131.992 162.484 132.649 162.165 133.381C161.846 134.113 161.684 134.903 161.688 135.701C160.739 133.102 160.739 130.252 161.688 127.653C159.474 130.615 158.338 134.244 158.468 137.939C158.468 137.939 153.637 137.134 153.782 129.053C153.927 120.973 165.504 107.87 178.418 108.707C191.331 109.544 194.391 129.987 194.391 129.987C193.952 129.697 193.458 129.501 192.94 129.412C192.421 129.324 191.89 129.344 191.38 129.472C190.945 126.038 189.852 122.721 188.159 119.701C188.945 122.37 188.945 125.209 188.159 127.878C186.181 126.839 183.945 126.392 181.719 126.591C181.719 126.591 183.586 123.114 180.946 116.868Z" fill="#0E3944"/>
<path d="M141.481 166.253C147.76 161.311 152.655 167.605 153.847 176.313C155.038 185.021 143.687 236.402 134.927 234.503C131.546 233.778 130.097 220.321 130.097 220.321C132.693 208.377 134.575 196.288 135.732 184.12C136.843 174.14 138.212 168.844 141.481 166.253Z" fill="#FF8B66"/>
<path d="M123.205 227.243C114.752 219.195 99.5841 192.458 95.7358 178.84L102.177 176.265C102.177 176.265 121.499 203.903 130.322 210.873C139.146 217.843 142.221 225.601 138.293 232.249C134.364 238.897 124.993 228.933 123.205 227.243Z" fill="#FF8B66"/>
<path d="M98.3763 161.005C97.9255 169.746 105.059 171.822 101.886 178.534C101.638 179.111 101.272 179.629 100.812 180.056C100.352 180.483 99.8073 180.809 99.2136 181.013C98.2424 181.33 97.201 181.363 96.2116 181.109C95.2221 180.856 94.3254 180.325 93.6263 179.581C90.1662 176.275 86.3355 173.379 82.2103 170.953C78.9899 169.118 80.8416 168.619 80.8416 168.619C80.5195 168.474 80.2297 168.345 79.9237 168.233C77.6695 167.283 75.8661 166.929 77.5085 165.931C79.1509 164.933 85.8814 167.17 85.8814 167.17C77.3797 161.504 75.0611 162.872 76.6229 161.681C78.7322 160.072 86.8314 163.822 87.0729 163.935C82.5805 159.685 79.3119 158.72 81.0992 158.076C82.8865 157.432 91.8068 163.87 95.0594 166.285L96.2348 167.186C96.1704 160.039 98.3763 161.005 98.3763 161.005Z" fill="#FF8B66"/>
<path d="M95.0596 166.285L96.235 167.186C95.7876 168.119 95.5937 169.153 95.6728 170.184C95.752 171.216 96.1014 172.208 96.6858 173.062C95.6405 172.32 94.8996 171.224 94.6005 169.978C94.3015 168.732 94.4646 167.42 95.0596 166.285Z" fill="#EF6E4B"/>
<path d="M87.5883 171.307C86.8315 170.889 82.5484 168.474 80.8416 168.619C80.5196 168.474 80.2298 168.345 79.9238 168.233C81.0832 166.72 86.7349 170.679 87.5883 171.307Z" fill="#EF6E4B"/>
<path d="M121.354 300.998C121.357 301.339 121.258 301.674 121.071 301.959C120.884 302.244 120.616 302.468 120.301 302.6C119.987 302.733 119.64 302.77 119.305 302.705C118.969 302.64 118.661 302.478 118.418 302.237C118.176 301.997 118.01 301.69 117.942 301.356C117.874 301.021 117.908 300.674 118.038 300.359C118.167 300.043 118.388 299.773 118.672 299.583C118.956 299.393 119.289 299.292 119.631 299.292C120.085 299.291 120.521 299.471 120.843 299.79C121.166 300.11 121.349 300.544 121.354 300.998Z" fill="#6097B2"/>
<path d="M152.011 312.829C152.011 313.169 151.91 313.502 151.721 313.786C151.532 314.069 151.262 314.29 150.948 314.42C150.633 314.55 150.286 314.584 149.952 314.518C149.618 314.452 149.311 314.288 149.07 314.047C148.829 313.806 148.665 313.499 148.599 313.165C148.532 312.831 148.566 312.484 148.697 312.17C148.827 311.855 149.048 311.586 149.331 311.397C149.615 311.207 149.948 311.106 150.288 311.106C150.745 311.106 151.183 311.288 151.507 311.611C151.83 311.934 152.011 312.372 152.011 312.829Z" fill="#6097B2"/>
<path d="M178.128 319.171C178.128 319.512 178.027 319.845 177.838 320.128C177.648 320.411 177.379 320.632 177.065 320.762C176.75 320.893 176.403 320.927 176.069 320.86C175.735 320.794 175.428 320.63 175.187 320.389C174.946 320.148 174.782 319.841 174.715 319.507C174.649 319.173 174.683 318.827 174.813 318.512C174.944 318.197 175.165 317.928 175.448 317.739C175.731 317.55 176.065 317.449 176.405 317.449C176.862 317.449 177.3 317.63 177.624 317.953C177.947 318.276 178.128 318.714 178.128 319.171Z" fill="#6097B2"/>
<path d="M138.035 278.575C138.035 278.916 137.934 279.249 137.745 279.532C137.555 279.815 137.286 280.036 136.971 280.166C136.657 280.297 136.31 280.331 135.976 280.264C135.642 280.198 135.335 280.034 135.094 279.793C134.853 279.552 134.689 279.245 134.622 278.911C134.556 278.577 134.59 278.231 134.72 277.916C134.851 277.601 135.071 277.332 135.355 277.143C135.638 276.954 135.971 276.853 136.312 276.853C136.769 276.853 137.207 277.034 137.53 277.357C137.853 277.68 138.035 278.118 138.035 278.575Z" fill="#6097B2"/>
<path d="M142.06 296.619C143.012 296.619 143.783 295.848 143.783 294.897C143.783 293.946 143.012 293.175 142.06 293.175C141.109 293.175 140.337 293.946 140.337 294.897C140.337 295.848 141.109 296.619 142.06 296.619Z" fill="#6097B2"/>
<path d="M170.963 304.201C170.963 304.542 170.862 304.875 170.672 305.158C170.483 305.441 170.214 305.662 169.899 305.792C169.585 305.923 169.238 305.957 168.904 305.89C168.57 305.824 168.263 305.66 168.022 305.419C167.781 305.178 167.617 304.871 167.55 304.537C167.484 304.203 167.518 303.857 167.648 303.542C167.779 303.227 167.999 302.958 168.283 302.769C168.566 302.58 168.899 302.479 169.24 302.479C169.697 302.479 170.135 302.66 170.458 302.983C170.781 303.306 170.963 303.744 170.963 304.201Z" fill="#6097B2"/>
<path d="M174.698 276.048C174.698 276.389 174.597 276.722 174.408 277.005C174.219 277.288 173.95 277.509 173.635 277.639C173.32 277.77 172.974 277.804 172.639 277.737C172.305 277.671 171.998 277.507 171.757 277.266C171.516 277.025 171.352 276.718 171.286 276.384C171.219 276.05 171.253 275.704 171.384 275.389C171.514 275.074 171.735 274.805 172.018 274.616C172.302 274.427 172.635 274.326 172.976 274.326C173.202 274.323 173.427 274.367 173.637 274.452C173.847 274.538 174.038 274.665 174.199 274.825C174.359 274.986 174.486 275.176 174.572 275.386C174.658 275.596 174.701 275.821 174.698 276.048Z" fill="#6097B2"/>
<path d="M155.167 271.911C156.119 271.911 156.89 271.14 156.89 270.189C156.89 269.238 156.119 268.466 155.167 268.466C154.216 268.466 153.444 269.238 153.444 270.189C153.444 271.14 154.216 271.911 155.167 271.911Z" fill="#6097B2"/>
<path d="M106.137 334.479C106.161 334.718 106.134 334.959 106.058 335.187C105.982 335.415 105.86 335.625 105.698 335.803C105.537 335.981 105.34 336.123 105.12 336.22C104.9 336.317 104.663 336.367 104.423 336.367C104.182 336.367 103.945 336.317 103.725 336.22C103.505 336.123 103.308 335.981 103.147 335.803C102.985 335.625 102.863 335.415 102.787 335.187C102.712 334.959 102.685 334.718 102.708 334.479C102.749 334.053 102.948 333.657 103.265 333.37C103.582 333.082 103.994 332.923 104.423 332.923C104.851 332.923 105.264 333.082 105.581 333.37C105.898 333.657 106.096 334.053 106.137 334.479Z" fill="#6097B2"/>
<path d="M81.6789 327.219C81.6789 327.56 81.5779 327.893 81.3886 328.176C81.1993 328.459 80.9302 328.68 80.6154 328.81C80.3005 328.941 79.9541 328.975 79.6199 328.908C79.2857 328.842 78.9787 328.678 78.7378 328.437C78.4968 328.196 78.3327 327.889 78.2662 327.555C78.1998 327.221 78.2339 326.875 78.3643 326.56C78.4947 326.245 78.7155 325.976 78.9988 325.787C79.2821 325.598 79.6153 325.497 79.956 325.497C80.1829 325.495 80.4079 325.538 80.6179 325.624C80.8279 325.709 81.0187 325.836 81.1791 325.997C81.3395 326.157 81.4663 326.348 81.5521 326.558C81.638 326.768 81.6811 326.992 81.6789 327.219Z" fill="#6097B2"/>
<path d="M67.0424 313.778C66.8879 314.017 66.6756 314.214 66.4251 314.349C66.1746 314.484 65.894 314.553 65.6094 314.551C65.1525 314.551 64.7142 314.37 64.3911 314.047C64.068 313.724 63.8865 313.286 63.8865 312.829C63.8792 312.628 63.9235 312.428 64.0154 312.249C65.0867 312.625 66.1042 313.139 67.0424 313.778Z" fill="#6097B2"/>
<path d="M113.206 358.656C114.158 358.656 114.929 357.885 114.929 356.934C114.929 355.982 114.158 355.211 113.206 355.211C112.255 355.211 111.483 355.982 111.483 356.934C111.483 357.885 112.255 358.656 113.206 358.656Z" fill="#6097B2"/>
<path d="M70.9553 381.272C70.9553 381.613 70.8538 381.947 70.6637 382.23C70.4737 382.514 70.2037 382.735 69.8879 382.864C69.5722 382.994 69.225 383.027 68.8903 382.96C68.5557 382.892 68.2487 382.726 68.0084 382.484C67.7681 382.241 67.6053 381.933 67.5407 381.598C67.476 381.263 67.5125 380.916 67.6453 380.601C67.7782 380.287 68.0016 380.019 68.287 379.832C68.5724 379.644 68.9071 379.546 69.2485 379.549C69.7027 379.554 70.1367 379.737 70.4564 380.059C70.776 380.382 70.9553 380.818 70.9553 381.272Z" fill="#6097B2"/>
<path d="M87.2019 368.233C88.1534 368.233 88.9248 367.462 88.9248 366.511C88.9248 365.56 88.1534 364.789 87.2019 364.789C86.2504 364.789 85.479 365.56 85.479 366.511C85.479 367.462 86.2504 368.233 87.2019 368.233Z" fill="#6097B2"/>
<path d="M60.457 355.179C61.4085 355.179 62.1799 354.408 62.1799 353.457C62.1799 352.505 61.4085 351.734 60.457 351.734C59.5055 351.734 58.7341 352.505 58.7341 353.457C58.7341 354.408 59.5055 355.179 60.457 355.179Z" fill="#6097B2"/>
<path d="M83.756 404.885C83.756 405.227 83.6545 405.56 83.4645 405.844C83.2745 406.128 83.0045 406.348 82.6887 406.478C82.373 406.608 82.0257 406.641 81.6911 406.573C81.3565 406.506 81.0495 406.34 80.8092 406.098C80.5689 405.855 80.4061 405.547 80.3415 405.211C80.2768 404.876 80.3133 404.53 80.4461 404.215C80.579 403.901 80.8022 403.633 81.0877 403.446C81.3731 403.258 81.7078 403.16 82.0492 403.163C82.5034 403.167 82.9375 403.351 83.2571 403.673C83.5768 403.996 83.756 404.431 83.756 404.885Z" fill="#6097B2"/>
<path d="M100.115 314.551C100.074 314.977 99.8755 315.372 99.5585 315.66C99.2415 315.948 98.8288 316.107 98.4006 316.107C97.9725 316.107 97.5596 315.948 97.2426 315.66C96.9256 315.372 96.7271 314.977 96.6858 314.551C96.6626 314.312 96.6897 314.071 96.7653 313.843C96.8409 313.615 96.9634 313.405 97.1249 313.227C97.2864 313.049 97.4832 312.907 97.703 312.81C97.9227 312.713 98.1603 312.662 98.4006 312.662C98.6409 312.662 98.8785 312.713 99.0982 312.81C99.3179 312.907 99.5149 313.049 99.6764 313.227C99.8378 313.405 99.9603 313.615 100.036 313.843C100.112 314.071 100.139 314.312 100.115 314.551Z" fill="#6097B2"/>
<path d="M116.636 285.609C116.639 285.951 116.54 286.285 116.353 286.571C116.166 286.856 115.898 287.079 115.583 287.212C115.269 287.345 114.922 287.381 114.587 287.317C114.251 287.252 113.943 287.089 113.7 286.849C113.458 286.609 113.292 286.302 113.224 285.967C113.156 285.633 113.19 285.286 113.319 284.97C113.449 284.654 113.67 284.384 113.954 284.195C114.238 284.005 114.571 283.903 114.913 283.903C115.367 283.903 115.803 284.082 116.125 284.402C116.448 284.721 116.631 285.155 116.636 285.609Z" fill="#6097B2"/>
<path d="M135.314 261.529C135.317 261.871 135.218 262.206 135.03 262.492C134.842 262.777 134.573 263.001 134.258 263.133C133.942 263.265 133.594 263.301 133.259 263.235C132.923 263.169 132.614 263.004 132.373 262.763C132.131 262.521 131.966 262.212 131.9 261.877C131.834 261.541 131.87 261.194 132.002 260.878C132.135 260.563 132.358 260.294 132.644 260.106C132.929 259.918 133.265 259.819 133.607 259.822C134.059 259.822 134.494 260.002 134.814 260.322C135.134 260.642 135.314 261.076 135.314 261.529Z" fill="#6097B2"/>
<path d="M97.4585 296.619C97.4585 296.96 97.3575 297.293 97.1681 297.576C96.9788 297.86 96.7097 298.08 96.3949 298.211C96.0801 298.341 95.7337 298.375 95.3995 298.309C95.0653 298.242 94.7583 298.078 94.5173 297.837C94.2764 297.596 94.1123 297.29 94.0458 296.955C93.9793 296.621 94.0135 296.275 94.1439 295.96C94.2743 295.646 94.4951 295.377 94.7784 295.187C95.0618 294.998 95.3948 294.897 95.7356 294.897C96.1925 294.897 96.6308 295.079 96.9539 295.402C97.277 295.725 97.4585 296.163 97.4585 296.619Z" fill="#6097B2"/>
<path d="M118.359 268.482C118.359 268.823 118.258 269.156 118.068 269.439C117.879 269.723 117.61 269.943 117.295 270.074C116.98 270.204 116.634 270.238 116.3 270.172C115.965 270.105 115.658 269.941 115.417 269.7C115.176 269.459 115.012 269.153 114.946 268.818C114.879 268.484 114.914 268.138 115.044 267.823C115.174 267.509 115.395 267.24 115.679 267.05C115.962 266.861 116.295 266.76 116.636 266.76C116.862 266.76 117.086 266.805 117.295 266.891C117.504 266.978 117.694 267.105 117.854 267.265C118.014 267.425 118.141 267.614 118.227 267.823C118.314 268.032 118.359 268.256 118.359 268.482Z" fill="#6097B2"/>
<path d="M85.479 345.827C85.479 346.168 85.378 346.501 85.1887 346.784C84.9993 347.067 84.7302 347.288 84.4154 347.418C84.1006 347.548 83.7542 347.583 83.42 347.516C83.0858 347.45 82.7788 347.286 82.5378 347.045C82.2969 346.804 82.1328 346.497 82.0663 346.163C81.9998 345.829 82.034 345.483 82.1644 345.168C82.2948 344.853 82.5156 344.584 82.799 344.395C83.0823 344.206 83.4153 344.105 83.7561 344.105C83.9829 344.102 84.208 344.145 84.418 344.231C84.628 344.317 84.8187 344.444 84.9791 344.604C85.1395 344.765 85.2664 344.955 85.3522 345.165C85.438 345.375 85.4811 345.6 85.479 345.827Z" fill="#6097B2"/>
<path d="M63.967 330.648C63.967 330.989 63.8656 331.323 63.6755 331.606C63.4855 331.89 63.2155 332.111 62.8997 332.24C62.584 332.37 62.2367 332.403 61.902 332.336C61.5674 332.268 61.2605 332.102 61.0202 331.86C60.7799 331.617 60.6171 331.309 60.5524 330.974C60.4878 330.639 60.5242 330.292 60.6571 329.977C60.7899 329.663 61.0133 329.395 61.2987 329.208C61.5842 329.02 61.9188 328.922 62.2603 328.925C62.7144 328.93 63.1485 329.113 63.4681 329.436C63.7877 329.758 63.9671 330.194 63.967 330.648Z" fill="#6097B2"/>
<path d="M124.783 327.219C125.735 327.219 126.506 326.448 126.506 325.497C126.506 324.546 125.735 323.775 124.783 323.775C123.832 323.775 123.06 324.546 123.06 325.497C123.06 326.448 123.832 327.219 124.783 327.219Z" fill="#6097B2"/>
<path d="M160.32 336.249C161.271 336.249 162.042 335.478 162.042 334.527C162.042 333.576 161.271 332.805 160.32 332.805C159.368 332.805 158.597 333.576 158.597 334.527C158.597 335.478 159.368 336.249 160.32 336.249Z" fill="#6097B2"/>
<path d="M160.32 285.609C160.323 285.951 160.225 286.285 160.037 286.571C159.85 286.856 159.582 287.079 159.267 287.212C158.953 287.345 158.606 287.381 158.271 287.317C157.935 287.252 157.627 287.089 157.384 286.849C157.142 286.609 156.976 286.302 156.908 285.967C156.841 285.633 156.874 285.286 157.004 284.97C157.133 284.654 157.354 284.384 157.638 284.195C157.922 284.005 158.255 283.903 158.597 283.903C159.051 283.903 159.487 284.082 159.809 284.402C160.132 284.721 160.315 285.155 160.32 285.609Z" fill="#6097B2"/>
<path d="M180.978 289.215C180.978 289.556 180.877 289.889 180.688 290.172C180.498 290.455 180.229 290.676 179.914 290.806C179.6 290.937 179.253 290.971 178.919 290.904C178.585 290.838 178.278 290.674 178.037 290.433C177.796 290.192 177.632 289.885 177.565 289.551C177.499 289.217 177.533 288.871 177.663 288.556C177.794 288.241 178.015 287.972 178.298 287.783C178.581 287.594 178.914 287.493 179.255 287.493C179.712 287.493 180.15 287.674 180.473 287.997C180.797 288.32 180.978 288.758 180.978 289.215Z" fill="#6097B2"/>
<path d="M139.645 347.533C139.648 347.874 139.55 348.209 139.363 348.494C139.175 348.78 138.907 349.003 138.593 349.136C138.278 349.269 137.931 349.305 137.596 349.24C137.261 349.176 136.952 349.013 136.71 348.773C136.467 348.533 136.302 348.226 136.234 347.891C136.166 347.557 136.199 347.21 136.329 346.894C136.459 346.578 136.68 346.308 136.963 346.118C137.247 345.928 137.581 345.827 137.922 345.827C138.376 345.827 138.812 346.006 139.135 346.326C139.458 346.645 139.641 347.079 139.645 347.533Z" fill="#6097B2"/>
<path d="M123.06 379.823C124.012 379.823 124.783 379.052 124.783 378.101C124.783 377.149 124.012 376.378 123.06 376.378C122.109 376.378 121.337 377.149 121.337 378.101C121.337 379.052 122.109 379.823 123.06 379.823Z" fill="#6097B2"/>
<path d="M96.6858 384.716C97.6373 384.716 98.4087 383.945 98.4087 382.994C98.4087 382.043 97.6373 381.272 96.6858 381.272C95.7343 381.272 94.9629 382.043 94.9629 382.994C94.9629 383.945 95.7343 384.716 96.6858 384.716Z" fill="#6097B2"/>
<path d="M169.24 358.656C170.191 358.656 170.963 357.885 170.963 356.934C170.963 355.982 170.191 355.211 169.24 355.211C168.288 355.211 167.517 355.982 167.517 356.934C167.517 357.885 168.288 358.656 169.24 358.656Z" fill="#6097B2"/>
<path d="M147.213 369.891C147.213 370.232 147.112 370.565 146.922 370.848C146.733 371.132 146.464 371.352 146.149 371.483C145.835 371.613 145.488 371.647 145.154 371.581C144.82 371.514 144.513 371.35 144.272 371.109C144.031 370.868 143.867 370.562 143.8 370.227C143.734 369.893 143.768 369.547 143.898 369.232C144.029 368.918 144.249 368.649 144.533 368.459C144.816 368.27 145.149 368.169 145.49 368.169C145.716 368.169 145.94 368.214 146.149 368.3C146.358 368.387 146.548 368.514 146.708 368.674C146.868 368.833 146.995 369.023 147.082 369.232C147.168 369.441 147.213 369.665 147.213 369.891Z" fill="#6097B2"/>
<path d="M111.483 408.314C111.483 408.655 111.382 408.988 111.193 409.271C111.003 409.554 110.734 409.775 110.42 409.905C110.105 410.036 109.758 410.07 109.424 410.003C109.09 409.937 108.783 409.773 108.542 409.532C108.301 409.291 108.137 408.984 108.07 408.65C108.004 408.316 108.038 407.97 108.169 407.655C108.299 407.34 108.52 407.071 108.803 406.882C109.086 406.693 109.419 406.592 109.76 406.592C110.217 406.592 110.655 406.773 110.978 407.096C111.302 407.419 111.483 407.857 111.483 408.314Z" fill="#6097B2"/>
<path d="M136.28 401.087C137.231 401.087 138.003 400.316 138.003 399.364C138.003 398.413 137.231 397.642 136.28 397.642C135.328 397.642 134.557 398.413 134.557 399.364C134.557 400.316 135.328 401.087 136.28 401.087Z" fill="#6097B2"/>
<path d="M161.817 390.978C162.769 390.978 163.54 390.207 163.54 389.256C163.54 388.304 162.769 387.533 161.817 387.533C160.866 387.533 160.094 388.304 160.094 389.256C160.094 390.207 160.866 390.978 161.817 390.978Z" fill="#6097B2"/>
<path d="M152.011 418.809C152.011 419.15 151.91 419.483 151.721 419.766C151.532 420.049 151.262 420.27 150.948 420.4C150.633 420.531 150.286 420.565 149.952 420.498C149.618 420.432 149.311 420.268 149.07 420.027C148.829 419.786 148.665 419.479 148.599 419.145C148.532 418.811 148.566 418.465 148.697 418.15C148.827 417.835 149.048 417.566 149.331 417.377C149.615 417.188 149.948 417.087 150.288 417.087C150.515 417.085 150.74 417.128 150.95 417.213C151.16 417.299 151.351 417.426 151.511 417.586C151.672 417.747 151.799 417.937 151.884 418.147C151.97 418.357 152.013 418.582 152.011 418.809Z" fill="#6097B2"/>
<path d="M150.127 509.272H121.933C120.082 504.025 123.543 498.745 122.915 494.125C121.933 486.286 126.49 490.616 126.49 490.616C127.295 482.198 139.13 480.604 139.001 484.371C138.808 489.892 139.871 493.304 141.449 495.638C144.669 500.226 149.854 500.194 150.739 503.477C150.836 503.799 150.9 504.121 150.965 504.411C151.802 508.467 150.127 509.272 150.127 509.272Z" fill="#164353"/>
<path d="M150.916 504.363C145.071 505.715 131.594 503.944 131.047 500.548C130.499 497.151 137.793 495.719 141.4 495.59C144.621 500.178 149.805 500.145 150.691 503.429C150.804 503.751 150.916 504.073 150.916 504.363Z" fill="#205260"/>
<path d="M34.0824 290.696C31.0875 287.959 26.2086 292.483 26.2086 292.483C26.2086 292.483 28.8332 296.378 27.1264 297.939C25.4197 299.501 23.4714 295.927 20.1222 297.505C19.8321 297.629 19.5566 297.786 19.301 297.972C16.4674 300.047 13.9366 302.506 11.7816 305.279L10.5095 306.648C7.94931 309.336 1.3476 310.897 0.123871 303.75C-1.09986 296.603 6.93492 288.233 15.7587 280.523C24.5824 272.812 30.2502 277.4 30.2502 277.4C31.2656 278.995 31.945 280.781 32.2468 282.648C32.2468 284.643 34.0341 285.658 35.0324 287.557C35.2946 288.104 35.3425 288.73 35.1667 289.311C34.9909 289.892 34.6041 290.386 34.0824 290.696Z" fill="#164353"/>
<path d="M19.3011 297.972C16.4674 300.047 13.9367 302.506 11.7816 305.28C8.46467 306.068 5.50195 305.827 5.035 302.72C3.90788 295.219 18.8824 285.674 17.6909 290.937C17.4826 292.158 17.5176 293.408 17.7939 294.615C18.0702 295.822 18.5824 296.963 19.3011 297.972Z" fill="#205260"/>
<path d="M542.01 497.055C540.365 495.971 539.041 494.464 538.178 492.693C537.603 488.603 537.603 484.453 538.178 480.363C539.176 474.053 536.423 468.902 527.487 466.97C518.808 465.087 513.639 469.272 515.652 486.737C514.332 493.996 514.042 502.286 517.069 509.272H543.798C543.798 509.272 548.032 500.274 542.01 497.055Z" fill="#CFD8DC"/>
<path d="M565.487 402.938C564.944 415.301 561.579 427.376 555.648 438.238C545.633 456.443 533.251 481.409 533.251 481.409C533.251 481.409 525.007 489.457 519.774 476.129C519.774 476.129 523.461 429.755 531.963 412.773C540.465 395.791 565.487 402.938 565.487 402.938Z" fill="#FF8B66"/>
<path d="M693.753 346.197C693.753 346.197 709.677 413.175 719.805 430.849C719.805 430.849 717.487 438.238 706.505 440.507C706.505 440.507 671.854 389.578 669.616 368.072C667.378 346.567 693.753 346.197 693.753 346.197Z" fill="#FF8B66"/>
<path d="M701.449 361.94C697.215 372.145 664.415 372.708 664.415 372.708L661.92 369.022L661.259 368.056L656.139 360.507C656.139 360.507 601.909 307.388 591.33 311.799C591.019 311.942 590.723 312.115 590.444 312.314C583.182 317.497 582.506 345.891 573.924 393.553C572.965 398.14 571.619 402.636 569.898 406.994L569.448 408.121C568.659 410.149 568.111 411.437 568.111 411.437C535.006 424.829 524.073 398.35 524.073 398.35C524.073 398.35 524.476 397.578 525.039 396.354L525.458 395.453C527.197 391.622 529.966 385.006 529.934 381.497C529.934 377.655 529.902 373.953 529.837 370.39C529.837 370.068 529.837 369.779 529.837 369.473C529.837 358.012 529.837 348.064 529.837 339.404V338.503C529.837 334.72 529.934 331.211 529.998 327.911V326.994C530.288 311.927 530.771 301.867 531.287 295.155C531.287 294.849 531.287 294.527 531.287 294.253C532.204 282.986 533.17 281.859 533.17 281.859L526.537 235.774H598.898C598.898 235.774 609.766 246.656 623.871 261.03C624.177 261.303 624.467 261.593 624.757 261.899C629.861 267.098 635.384 272.748 640.939 278.479L641.583 279.139L648.024 285.883L648.813 286.704C656.059 294.237 663.111 301.642 669.133 308.129L669.745 308.772C677.989 317.69 684.236 324.869 686.426 328.088C691.66 336.668 695.911 345.809 699.098 355.34C699.227 355.662 699.324 355.952 699.437 356.258C700.805 359.767 701.449 361.94 701.449 361.94Z" fill="#8B383E"/>
<path d="M544.136 288.764C540.841 292.448 536.273 294.749 531.351 295.203C531.351 294.897 531.351 294.575 531.351 294.302C535.986 293.852 540.284 291.681 543.395 288.217C546.433 284.27 547.907 279.34 547.533 274.374L548.435 274.261C548.861 279.462 547.328 284.635 544.136 288.764Z" fill="#662C33"/>
<path d="M624.886 261.899H624.048C615.998 261.899 607.592 253.11 607.174 252.66L607.818 252.032C607.915 252.161 616.287 260.917 623.92 260.998C624.306 261.303 624.596 261.593 624.886 261.899Z" fill="#662C33"/>
<path d="M569.947 406.994L569.496 408.121C564.777 409.91 559.777 410.847 554.731 410.89C540.432 410.89 530.578 402.616 525.087 396.403L525.506 395.501C532.526 403.598 547.308 415.638 569.947 406.994Z" fill="#662C33"/>
<path d="M589.382 295.187C590.661 300.633 591.33 306.204 591.378 311.799C591.068 311.942 590.771 312.115 590.493 312.314C590.493 285.336 574.826 264.281 574.648 264.024L575.357 263.493C581.79 272.819 586.462 283.245 589.14 294.253C590.966 293.081 592.257 291.236 592.731 289.118C594.969 279.654 584.68 264.169 584.68 264.008L585.404 263.509C585.839 264.169 595.951 279.477 593.632 289.263C593.371 290.49 592.858 291.65 592.127 292.669C591.395 293.689 590.46 294.546 589.382 295.187Z" fill="#662C33"/>
<path d="M669.954 308.724C667.281 311.622 664.786 314.084 664.56 314.31L664.077 314.793L663.836 314.149C660.342 304.974 637.815 285.175 637.574 284.901L637.316 284.66L641.068 278.43L641.712 279.09L638.492 284.322C641.557 285.547 644.86 286.064 648.153 285.835L648.942 286.656C648.165 286.787 647.378 286.852 646.591 286.849C644.243 286.79 641.916 286.388 639.683 285.658C644.787 290.261 660.615 304.974 664.335 313.199C665.736 311.799 667.555 309.98 669.262 308.08L669.954 308.724Z" fill="#662C33"/>
<path d="M546.358 370.229L545.987 370.31C543.004 370.918 539.967 371.231 536.922 371.243C534.549 371.276 532.182 370.989 529.886 370.39C529.886 370.068 529.886 369.779 529.886 369.473C535.779 371.163 543.669 369.859 545.456 369.473L543.959 332.29C542.905 335.012 540.912 337.268 538.339 338.648C536.791 339.404 535.086 339.784 533.364 339.758C532.204 339.752 531.048 339.617 529.918 339.356V338.455C532.589 339.219 535.444 339.002 537.969 337.843C539.38 337.042 540.617 335.968 541.607 334.682C542.597 333.397 543.32 331.927 543.733 330.358C540.754 330.793 534.716 329.28 530.127 327.863V326.946C535.087 328.443 541.785 330.165 544.2 329.328L544.764 329.135L546.358 370.229Z" fill="#662C33"/>
<path d="M699.646 356.338C691.055 364.757 679.472 369.423 667.443 369.312C665.635 369.308 663.83 369.212 662.032 369.022L661.372 368.056C681.306 370.342 693.801 360.99 699.356 355.421C699.437 355.742 699.533 356.032 699.646 356.338Z" fill="#662C33"/>
<path d="M612.407 39.8136C612.407 39.8136 610.41 35.2422 602.021 35.2422C595.581 35.2422 593.069 38.8156 593.069 38.8156C589.188 50.0833 585.018 93.5442 583.537 95.009C582.78 95.7978 534.749 128.12 534.749 128.12C560.817 128.619 577.08 160.732 577.08 160.732C577.917 150.172 607.351 108.353 607.673 104.635C608.204 97.6006 620.715 66.1799 612.407 39.8136Z" fill="#CE364C"/>
<path d="M529.032 266.422C529.032 266.422 528.791 275.452 531.721 276.08C549.802 280.657 568.902 278.954 585.888 271.251C613.26 258.792 618.091 249.569 610.04 242.712C601.989 235.855 529.032 266.422 529.032 266.422Z" fill="#CE364C"/>
<path d="M518.035 134.381C518.035 134.381 493.093 131.436 478.795 137.601C478.795 137.601 474.802 155.307 494.446 194.889C514.09 234.47 509.533 259.42 531.705 268.821C551.349 277.142 609.267 252.37 611.087 244.16C615.659 223.476 580.236 187.194 578.014 166.156C575.792 145.118 555.23 113.536 518.035 134.381Z" fill="#F24052"/>
<path d="M478.811 137.617C461.373 143.814 441.777 163.371 441.777 172.804C441.777 182.237 458.121 185.858 458.121 185.858L484.978 172.804C484.978 172.804 492.675 167.444 487.78 151.878C482.885 136.313 478.811 137.617 478.811 137.617Z" fill="#CE364C"/>
<path d="M550.432 155.049C544.862 154.984 539.424 153.343 534.749 150.317C533.801 149.758 532.974 149.016 532.316 148.135C531.658 147.253 531.182 146.249 530.916 145.182C529.934 138.985 535.956 135.846 536.214 135.717L537.019 137.327C536.809 137.424 531.899 140.015 532.671 144.909C533.153 146.582 534.26 148.005 535.763 148.884C540.883 152.235 547.003 153.713 553.088 153.07C553.963 153.019 554.815 152.775 555.584 152.354C556.353 151.934 557.018 151.348 557.532 150.639C557.767 150.137 557.897 149.594 557.917 149.041C557.936 148.488 557.844 147.936 557.645 147.42L559.255 146.711C559.552 147.468 559.689 148.277 559.658 149.088C559.628 149.899 559.43 150.696 559.078 151.428C558.451 152.389 557.611 153.193 556.622 153.777C555.633 154.36 554.523 154.708 553.378 154.792C552.405 154.96 551.419 155.046 550.432 155.049Z" fill="#CFD8DC"/>
<path d="M528.324 173.915C524.46 173.915 518.067 172.305 517.165 165.979C516.828 163.224 516.861 160.436 517.262 157.689C517.649 154.213 517.938 151.444 515.909 148.144C512.544 142.687 507.971 142.333 507.859 142.317L507.971 140.53C508.197 140.53 513.639 140.933 517.52 147.211C519.871 151.042 519.5 154.374 519.13 157.899C518.747 160.49 518.714 163.121 519.033 165.722C519.999 172.547 528.694 172.16 529.081 172.16L529.177 173.931L528.324 173.915Z" fill="#CFD8DC"/>
<path d="M533.75 141.834C533.75 141.834 546.937 132.852 543.798 123.146C540.658 113.44 498.214 114.1 487.265 125.705C476.315 137.311 510.95 145.021 510.95 145.021C513.639 139.709 530.771 139.033 533.75 141.834Z" fill="#CE364C"/>
<path d="M509.984 140.321C503.721 138.196 500.017 133.673 501.354 128.474C502.69 123.275 529.596 123.114 534.684 127.283C539.772 131.452 532.671 147.999 509.984 140.321Z" fill="#A02E44"/>
<path d="M507.07 125.673C507.07 125.673 512.593 135.122 510.048 140.321C510.048 140.321 529.032 146.872 529.032 136.249C529.032 136.249 525.458 128.281 526.794 123.146L507.07 125.673Z" fill="#EF6E4B"/>
<path d="M500.742 117.416C500.742 117.416 491.403 102.478 492.272 88.2002C492.707 81.0694 496.378 78.2846 496.378 78.2846C496.378 78.2846 493.415 74.1639 496.587 67.8701C496.587 67.8701 500.983 72.9567 516.409 71.347C531.27 69.7373 532.752 80.3933 532.752 80.3933C543.379 82.003 536.214 114.196 528.791 117.416H500.742Z" fill="#FFB878"/>
<path d="M496.781 103.621C496.781 103.621 491.419 98.2766 490.759 104.522C489.986 111.766 496.571 114.679 497.859 112.377C499.147 110.075 496.781 103.621 496.781 103.621Z" fill="#FF8B66"/>
<path d="M534.33 103.991C534.33 103.991 539.692 98.6469 540.352 104.892C541.109 112.152 534.523 115.065 533.235 112.764C531.947 110.462 534.33 103.991 534.33 103.991Z" fill="#FF8B66"/>
<path d="M514.992 129.858C503.092 129.858 496.378 122.084 496.378 98.7917C496.378 86.7675 502.497 79.3953 515.813 79.3953C529.129 79.3953 534.748 86.7675 534.748 98.7917C534.748 123.822 527.277 129.858 514.992 129.858Z" fill="#FF8B66"/>
<path d="M530.82 107.098C531.044 107.636 531.096 108.231 530.968 108.801C530.839 109.37 530.537 109.885 530.103 110.275C529.669 110.666 529.125 110.912 528.545 110.979C527.965 111.047 527.379 110.933 526.867 110.653C526.355 110.373 525.942 109.941 525.686 109.416C525.43 108.892 525.344 108.301 525.438 107.725C525.533 107.149 525.804 106.617 526.214 106.202C526.624 105.787 527.153 105.509 527.728 105.407C528.362 105.232 529.04 105.31 529.617 105.625C530.194 105.941 530.626 106.469 530.82 107.098Z" fill="#DB614D"/>
<path d="M506.345 107.758C506.434 108.334 506.342 108.923 506.081 109.445C505.821 109.967 505.405 110.395 504.891 110.67C504.377 110.945 503.79 111.054 503.211 110.982C502.632 110.91 502.09 110.66 501.66 110.266C501.229 109.873 500.931 109.356 500.807 108.786C500.683 108.217 500.739 107.623 500.966 107.086C501.194 106.549 501.583 106.096 502.079 105.79C502.576 105.484 503.155 105.339 503.737 105.375C504.397 105.353 505.039 105.59 505.526 106.035C506.014 106.48 506.308 107.099 506.345 107.758Z" fill="#DB614D"/>
<path d="M525.57 94.6388C525.492 94.6512 525.411 94.6476 525.334 94.6282C525.256 94.6089 525.183 94.5741 525.12 94.5261C523.686 93.6136 521.959 93.2799 520.289 93.5925C520.134 93.6124 519.978 93.574 519.85 93.4847C519.722 93.3955 519.631 93.2617 519.597 93.1096C519.583 93.0325 519.584 92.9533 519.601 92.8767C519.618 92.8001 519.65 92.7276 519.694 92.6632C519.739 92.5989 519.796 92.5441 519.863 92.5019C519.929 92.4598 520.003 92.431 520.08 92.4175C522.063 92.076 524.102 92.4895 525.796 93.5764C525.919 93.6747 525.999 93.8165 526.02 93.9724C526.041 94.1282 526.001 94.2862 525.909 94.4134C525.828 94.528 525.707 94.6083 525.57 94.6388Z" fill="#FFB878"/>
<path d="M502.803 94.6389C502.727 94.6326 502.654 94.6107 502.587 94.5747C502.521 94.5387 502.463 94.4893 502.416 94.4296C502.32 94.3062 502.275 94.1507 502.29 93.9951C502.305 93.8394 502.379 93.6954 502.497 93.5926C504.153 92.443 506.185 91.9655 508.181 92.2566C508.336 92.2804 508.476 92.3649 508.57 92.4916C508.663 92.6183 508.703 92.7768 508.68 92.9326C508.652 93.0864 508.567 93.2238 508.441 93.3166C508.315 93.4093 508.159 93.4505 508.004 93.4316C506.342 93.2041 504.654 93.5873 503.254 94.5101C503.191 94.5617 503.119 94.5999 503.042 94.6221C502.964 94.6443 502.883 94.65 502.803 94.6389Z" fill="#FFB878"/>
<path d="M524.347 101.319C524.347 102.8 523.687 103.991 522.865 103.991C522.044 103.991 521.368 102.8 521.368 101.319C521.368 99.838 522.044 98.6469 522.865 98.6469C523.687 98.6469 524.347 99.838 524.347 101.319Z" fill="#1A4850"/>
<path d="M508.454 101.319C508.454 102.8 507.794 103.991 506.973 103.991C506.152 103.991 505.492 102.8 505.492 101.319C505.492 99.838 506.152 98.6469 506.973 98.6469C507.794 98.6469 508.454 99.838 508.454 101.319Z" fill="#1A4850"/>
<path d="M500.017 81.9869C510.006 85.0752 520.498 86.2066 530.916 85.3189C530.916 85.3189 534.781 90.1479 534.314 107.178C534.314 107.178 544.957 76.4979 513.881 76.4979C482.804 76.4979 496.813 106.502 496.813 106.502C496.813 106.502 494.237 87.7334 500.017 81.9869Z" fill="#FFB878"/>
<path d="M515.732 109.271L514.847 108.369L517.198 106.035C514.911 102.816 514.927 95.3471 514.927 95.009H516.199C516.199 95.0895 516.199 103.057 518.518 105.649L518.92 106.1L515.732 109.271Z" fill="#DB614D"/>
<path d="M507.843 113.15C507.843 113.15 519.548 113.649 525.458 112.088C525.619 113.223 525.529 114.379 525.194 115.476C524.859 116.573 524.287 117.582 523.52 118.434C522.752 119.286 521.807 119.959 520.751 120.406C519.695 120.853 518.553 121.063 517.407 121.021C507.843 121.472 507.843 113.15 507.843 113.15Z" fill="#1A4850"/>
<path d="M557.887 145.343C560.109 144.925 559.899 150.768 557.887 149.078C555.874 147.387 555.648 145.746 557.887 145.343Z" fill="#CFD8DC"/>
<path d="M530.916 173.673C530.578 175.911 525.12 173.786 527.39 172.434C529.66 171.082 531.271 171.42 530.916 173.673Z" fill="#CFD8DC"/>
<path d="M506.941 185.859C506.941 185.859 503.398 194.969 503.608 200.104C503.817 205.239 505.492 204.563 505.492 204.563C504.669 204.922 503.946 205.477 503.385 206.178C502.824 206.879 502.441 207.705 502.271 208.587C501.756 211.549 509.243 213.722 509.758 213.722C510.274 213.722 515.555 211.71 515.555 211.71L516.65 194.905L511.981 191.975L506.941 185.859Z" fill="#EF6E4B"/>
<path d="M509.775 184.683C512.918 186.6 515.91 188.753 518.727 191.122C521.239 193.569 519.806 212.563 518.727 213.464C517.649 214.366 509.421 216.185 507.843 215.154C506.265 214.124 508.454 208.539 508.454 208.539C508.454 208.539 512.593 207.653 511.997 209.215C511.643 210.148 511.643 211.179 511.997 212.112L513.607 211.452C513.151 209.016 513.151 206.516 513.607 204.08C514.444 200.861 507.794 197.641 506.989 191.927C506.184 186.213 509.775 184.683 509.775 184.683Z" fill="#FF8B66"/>
<path d="M442.808 175.444C440.747 166.51 449.603 163.355 461.937 164.868C476.235 166.639 505.62 170.374 511.997 185.794C511.997 185.794 514.09 191.911 508.68 194.84C493.593 203.114 446.704 192.201 442.808 175.444Z" fill="#CE364C"/>
<path d="M487.554 169.52C487.554 169.52 470.503 162.438 462.017 161.73C453.532 161.021 473.755 168.426 487.554 169.52Z" fill="#A02E44"/>
<path d="M615.321 16.1194C613.938 18.3824 612.794 20.783 611.908 23.2824C611.006 28.1114 610.491 30.719 608.816 32.9404C607.142 35.1617 608.027 39.0249 608.027 39.0249C608.027 39.0249 601.587 42.3569 596.048 38.2362C596.048 38.2362 596.627 34.3891 596.048 33.3106C594.92 31.1215 591.314 29.9625 590.074 25.5681C588.921 22.2214 587.259 19.0724 585.147 16.2321C585.147 16.2321 586.193 13.9463 588.126 15.3467C590.058 16.7472 591.346 20.2723 592.36 20.6264C592.567 20.7034 592.784 20.7521 593.004 20.7713C593.377 20.8422 593.761 20.8299 594.128 20.7353C594.496 20.6407 594.838 20.4661 595.13 20.224C595.181 20.197 595.225 20.1584 595.259 20.1113C597.014 18.0671 597.432 12.063 597.368 9.3266C597.255 5.57609 597.368 0.392967 599.687 1.27828C602.005 2.1636 599.88 4.24006 601.651 12.5459L602.504 12.6586C602.665 13.2542 604.243 7.63646 604.614 2.37285C604.887 -1.26499 607.271 0.0710326 607.834 1.21389C608.398 2.35676 607.56 6.04289 607.399 8.60226C607.27 10.3407 607.142 12.1435 607.045 13.2059L608.043 13.7693C611.65 7.47549 610.426 4.86784 612.536 4.73906C614.645 4.61029 613.872 9.92217 612.745 11.9504C612.127 13.3836 611.684 14.886 611.425 16.4252C615.128 12.1596 614.645 9.98657 616.416 10.1958C618.187 10.4051 616.609 14.6546 615.321 16.1194Z" fill="#FF8B66"/>
<path d="M599.332 25.9544C598.093 22.5097 593.616 20.9483 593.069 20.7552C593.442 20.826 593.825 20.8137 594.193 20.7191C594.56 20.6245 594.902 20.4499 595.194 20.2079C596.385 20.6345 597.418 21.4122 598.157 22.4382C598.896 23.4643 599.306 24.6904 599.332 25.9544Z" fill="#EF6E4B"/>
<path d="M521.674 483.067C521.674 483.067 519.21 478.012 521.416 475.856C523.622 473.699 526.247 477.707 529.982 476.805C533.718 475.904 534.62 473.232 535.602 476.886C536.584 480.54 535.393 492 521.674 483.067Z" fill="#CFD8DC"/>
<path d="M535.86 482.842C535.86 482.842 525.748 486.415 520.499 482.842L521.835 487.22C521.835 487.22 532.832 488.379 534.346 485.61L535.86 482.842Z" fill="#ADBEC4"/>
<path d="M535.747 488.282C535.747 488.282 526.472 486.994 522.012 489.296V491.469C522.012 491.469 534.088 488.652 537.985 491.469L535.747 488.282Z" fill="#ADBEC4"/>
<path d="M521.545 495.976C522.235 494.587 523.294 493.413 524.606 492.585C525.918 491.756 527.432 491.303 528.984 491.276C532.358 491.099 535.689 492.088 538.42 494.077C538.42 494.077 529.483 490.391 521.545 495.976Z" fill="#ADBEC4"/>
<path d="M759.995 435.163C749.688 449.162 734.849 459.161 718.002 463.461C710.981 457.843 710.804 451.196 710.804 451.196C710.804 451.196 704.026 445.159 703.124 442.262C702.222 439.364 708.937 430.64 712.962 431.541C714.058 431.83 715.08 432.346 715.962 433.056C716.844 433.766 717.567 434.654 718.082 435.662C714.749 428.177 717.422 425.57 722.14 426.213C726.858 426.857 722.398 428.032 725.924 431.976C726.171 432.257 726.453 432.505 726.761 432.717C727.449 433.183 728.229 433.496 729.048 433.634C729.883 433.771 730.731 433.809 731.576 433.747C732.056 433.73 732.535 433.681 733.009 433.602C733.959 433.453 734.896 433.227 735.81 432.926C737.378 432.425 738.894 431.772 740.335 430.978C746.486 427.614 749.078 426.471 753.764 427.678C758.449 428.886 758.353 432.395 758.353 432.395L759.995 435.163Z" fill="#CFD8DC"/>
<path d="M759.995 435.163C749.688 449.162 734.849 459.161 718.002 463.461C730.352 458.149 741.703 451.196 749.464 442.632C757.225 434.069 759.995 435.163 759.995 435.163Z" fill="#ADBEC4"/>
<path d="M726.761 432.668C727.449 433.134 728.229 433.447 729.048 433.586C727.765 433.78 726.579 434.386 725.67 435.312C724.761 436.238 724.178 437.434 724.008 438.721L722.011 438.077C722.526 433.087 726.423 432.668 726.761 432.668Z" fill="#ADBEC4"/>
<path d="M729.933 439.268H727.84C727.487 438.298 727.412 437.248 727.626 436.238C727.839 435.228 728.332 434.298 729.048 433.554C729.883 433.69 730.731 433.728 731.575 433.666C730.845 434.381 730.311 435.272 730.023 436.253C729.736 437.234 729.704 438.272 729.933 439.268Z" fill="#ADBEC4"/>
<path d="M735.102 438.125L733.025 438.399C732.674 437.642 732.493 436.818 732.493 435.984C732.493 435.15 732.674 434.326 733.025 433.57C733.975 433.421 734.912 433.195 735.826 432.894C735.317 433.654 734.987 434.52 734.861 435.426C734.736 436.332 734.818 437.255 735.102 438.125Z" fill="#ADBEC4"/>
<path d="M536.036 217.746C536.036 217.746 540.577 242.519 531.351 252.386C522.125 262.253 528.211 254.14 530.981 241.424C533.75 228.708 531.641 215.364 536.036 217.746Z" fill="#CE364C"/>
<path d="M578.883 206.704C578.883 206.704 593.52 211.533 601.168 225.022C601.168 225.022 590.959 203.018 578.883 206.704Z" fill="#CE364C"/>
<path d="M198.803 22.6868C201.414 23.1826 203.966 23.9487 206.419 24.9725C210.557 27.5319 212.859 28.9162 215.629 29.1577C218.398 29.3991 219.509 34.1154 219.509 34.1154C219.509 34.1154 230.33 36.4816 230.942 29.6566C230.942 29.6566 224.887 21.0932 224.501 19.9987C223.631 17.6968 225.193 14.2361 222.762 10.3407C221.067 7.23744 219.856 3.89375 219.171 0.425153C219.171 0.425153 216.756 -0.331389 216.498 2.03482C216.241 4.40102 218.012 7.70083 217.577 8.73101C217.489 8.93435 217.381 9.12846 217.255 9.31049C217.056 9.63309 216.788 9.90825 216.471 10.1168C216.154 10.3253 215.795 10.4621 215.42 10.5177H215.259C212.554 10.5177 207.787 6.70284 205.839 4.83563C203.134 2.22797 199.189 -1.13623 198.303 1.1495C197.418 3.43522 200.364 3.27426 205.324 10.1475L204.825 10.8558C205.147 11.3709 199.994 8.76321 195.776 5.51169C192.909 3.27425 192.298 5.9302 192.797 7.12135C193.296 8.3125 196.5 10.0992 198.561 11.7572L202.216 14.5741L201.959 15.7009C194.874 14.0912 193.763 11.4835 192.298 12.9644C190.832 14.4453 195.244 17.4393 197.498 17.9544C198.979 18.4634 200.395 19.1441 201.717 19.9826C196.065 19.8538 194.681 18.051 193.666 19.4997C192.652 20.9484 196.854 22.6707 198.803 22.6868Z" fill="#FF8B66"/>
<path d="M216.837 17.4554C215.114 14.2361 216.949 9.85781 217.191 9.4071C216.991 9.7297 216.723 10.0049 216.406 10.2134C216.089 10.4219 215.731 10.5587 215.355 10.6144C214.893 11.7725 214.786 13.0423 215.05 14.2611C215.314 15.4799 215.936 16.5922 216.837 17.4554Z" fill="#EF6E4B"/>
<path d="M517.391 22.6868C514.785 23.1846 512.238 23.9506 509.791 24.9725C505.637 27.5319 503.35 28.9162 500.565 29.1577C497.779 29.3991 496.7 34.1154 496.7 34.1154C496.7 34.1154 485.864 36.4816 485.252 29.6566C485.252 29.6566 491.306 21.0932 491.693 19.9987C492.562 17.6968 491 14.2361 493.431 10.3407C495.136 7.24016 496.352 3.89581 497.038 0.425153C497.038 0.425153 499.437 -0.331389 499.695 2.03482C499.953 4.40102 498.181 7.70083 498.616 8.73101C498.704 8.93792 498.817 9.13269 498.954 9.31049C499.156 9.63166 499.424 9.90572 499.741 10.114C500.057 10.3224 500.415 10.46 500.79 10.5177H500.951C503.672 10.5177 508.422 6.70284 510.37 4.83563C513.092 2.22797 517.02 -1.13623 517.906 1.1495C518.792 3.43522 515.845 3.27426 510.902 10.1475L511.401 10.8558C511.063 11.3709 516.231 8.76321 520.434 5.51169C523.316 3.27425 523.912 5.9302 523.413 7.12135C522.914 8.3125 519.709 10.0992 517.648 11.7572L513.993 14.5741L514.251 15.7009C521.352 14.0912 522.447 11.4835 523.912 12.9644C525.377 14.4453 520.965 17.4393 518.711 17.9544C517.236 18.4642 515.825 19.1449 514.509 19.9826C520.16 19.8538 521.529 18.051 522.559 19.4997C523.59 20.9484 519.339 22.6707 517.391 22.6868Z" fill="#FF8B66"/>
<path d="M499.357 17.4554C501.08 14.2361 499.244 9.85781 499.003 9.4071C499.204 9.72827 499.472 10.0023 499.789 10.2106C500.106 10.419 500.464 10.5567 500.838 10.6144C501.301 11.7725 501.407 13.0423 501.143 14.2611C500.879 15.4799 500.257 16.5922 499.357 17.4554Z" fill="#EF6E4B"/>
<path d="M422.23 350.817L401.427 222.044L359.771 226.696L318.132 222.044L297.329 350.817L287.33 475.695C287.33 475.695 290.55 486.045 311.289 478.914C311.289 478.914 326.698 363.018 329.001 360.539C331.304 358.06 355.875 282.326 355.875 282.326H363.523C363.523 282.326 387.998 357.98 390.381 360.539C392.764 363.099 408.189 478.914 408.189 478.914C428.96 486.061 432.148 475.695 432.148 475.695L422.23 350.817Z" fill="#0E3944"/>
<path d="M346.648 97.3752C349.289 99.9346 362.235 104.554 369.062 97.3752L373.699 101.915C373.699 101.915 368.418 114.341 359.208 114.792C349.998 115.243 343.235 103.733 343.235 103.733L346.648 97.3752Z" fill="#0C476B"/>
<path d="M383.312 95.9748C398.882 89.2947 448.798 71.5723 448.798 71.5723C448.798 71.5723 482.45 29.4313 489.309 23.1697C489.309 23.1697 496.764 24.5218 498.97 33.7935C498.97 33.7935 477.298 80.1679 465.527 93.4476C453.757 106.727 394.1 135.444 394.1 135.444L383.312 95.9748Z" fill="#0C476B"/>
<path d="M329.082 95.009C333.703 92.0955 356.841 107.58 356.841 107.58C356.841 107.58 386.919 91.5965 393.987 94.7032C393.987 94.7032 400.348 103.202 402.908 125.094C405.468 146.985 405.629 237.014 405.629 237.014C390.232 241.834 374.183 244.25 358.048 244.177C326.859 244.177 310.065 235.227 310.065 235.227C310.065 235.227 304.51 110.558 329.082 95.009Z" fill="#FFB878"/>
<path d="M347.872 92.675C347.872 92.675 351.205 103.154 347.872 107.162C347.872 107.162 351.334 114.422 357.533 114.744C364.715 115.114 367.194 107.162 367.194 107.162C367.194 107.162 363.394 97.0533 367.194 93.496L347.872 92.675Z" fill="#EF6E4B"/>
<path d="M339.564 82.357C339.564 82.357 332.559 68.8842 333.944 54.3972C335.329 39.9102 357.066 36.6909 371.719 43.7573C371.719 43.7573 367.371 39.5078 369.062 38.3327C370.753 37.1577 373.699 44.7714 373.699 44.7714C373.699 44.7714 378.32 43.3549 379.029 44.7714C379.737 46.1879 374.295 46.9605 374.295 46.9605C374.295 46.9605 383.747 52.192 374.923 80.0874L339.564 82.357Z" fill="#8B383E"/>
<path d="M338.517 73.8098C338.517 73.8098 333.284 68.5945 332.64 74.6951C331.899 81.7616 338.324 84.6107 339.564 82.3571C340.803 80.1036 338.517 73.8098 338.517 73.8098Z" fill="#FF8B66"/>
<path d="M375.132 74.1799C375.132 74.1799 380.365 68.9646 380.993 75.0653C381.75 82.1317 375.326 84.9808 374.07 82.7273C372.814 80.4737 375.132 74.1799 375.132 74.1799Z" fill="#FF8B66"/>
<path d="M356.277 99.4678C344.668 99.4678 338.131 91.8863 338.131 69.1739C338.131 57.4556 344.088 50.2604 357.082 50.2604C370.076 50.2604 375.551 57.4556 375.551 69.1739C375.551 93.5281 368.289 99.4678 356.277 99.4678Z" fill="#FF8B66"/>
<path d="M371.703 77.2062C371.931 77.7303 371.991 78.3126 371.873 78.8721C371.755 79.4317 371.466 79.9407 371.046 80.3284C370.626 80.7162 370.095 80.9635 369.528 81.036C368.96 81.1085 368.384 81.0026 367.88 80.733C367.376 80.4633 366.968 80.0434 366.713 79.5314C366.458 79.0195 366.37 78.441 366.459 77.8762C366.548 77.3115 366.811 76.7885 367.211 76.38C367.611 75.9715 368.129 75.6976 368.692 75.5965C369.304 75.4198 369.962 75.4891 370.524 75.7897C371.087 76.0904 371.509 76.5986 371.703 77.2062Z" fill="#DB614D"/>
<path d="M347.84 77.85C347.925 78.4099 347.835 78.9826 347.581 79.489C347.327 79.9954 346.922 80.4106 346.422 80.6771C345.922 80.9437 345.352 81.0486 344.79 80.9774C344.228 80.9061 343.701 80.6622 343.284 80.2793C342.866 79.8964 342.578 79.3934 342.458 78.8397C342.339 78.2859 342.394 77.7088 342.617 77.1879C342.839 76.6669 343.218 76.2278 343.701 75.9313C344.184 75.6347 344.747 75.4952 345.312 75.532C345.953 75.5101 346.577 75.7407 347.05 76.1742C347.523 76.6077 347.807 77.2095 347.84 77.85Z" fill="#DB614D"/>
<path d="M366.405 65.4234C366.327 65.4236 366.25 65.408 366.178 65.3776C366.106 65.3472 366.041 65.3025 365.987 65.2463C364.743 64.1777 363.15 63.6046 361.51 63.6367C361.359 63.6411 361.212 63.5863 361.101 63.4841C360.99 63.3819 360.923 63.2402 360.915 63.0894C360.91 62.9341 360.967 62.7832 361.072 62.6689C361.177 62.5546 361.323 62.486 361.478 62.4777C363.446 62.4407 365.355 63.1478 366.824 64.4576C366.929 64.5683 366.988 64.7153 366.988 64.8681C366.988 65.0209 366.929 65.1678 366.824 65.2785C366.768 65.3297 366.701 65.3689 366.629 65.3938C366.557 65.4187 366.481 65.4288 366.405 65.4234Z" fill="#8B383E"/>
<path d="M344.555 65.4234C344.481 65.4245 344.407 65.4108 344.338 65.3831C344.269 65.3555 344.206 65.3145 344.153 65.2624C344.099 65.2086 344.056 65.1446 344.027 65.0742C343.997 65.0037 343.982 64.9282 343.982 64.8519C343.982 64.7757 343.997 64.7002 344.027 64.6297C344.056 64.5593 344.099 64.4953 344.153 64.4415C345.621 63.1317 347.531 62.4245 349.498 62.4616C349.652 62.4616 349.8 62.5227 349.908 62.6313C350.017 62.74 350.078 62.8874 350.078 63.0411C350.078 63.1948 350.017 63.3422 349.908 63.4508C349.8 63.5595 349.652 63.6206 349.498 63.6206C347.866 63.5999 346.281 64.1718 345.038 65.2302C344.978 65.2978 344.903 65.3505 344.82 65.384C344.736 65.4176 344.645 65.431 344.555 65.4234Z" fill="#8B383E"/>
<path d="M365.391 71.5724C365.391 73.0211 364.747 74.18 363.958 74.18C363.169 74.18 362.493 73.0211 362.493 71.5724C362.493 70.1237 363.153 68.9647 363.958 68.9647C364.763 68.9647 365.391 70.1398 365.391 71.5724Z" fill="#1A4850"/>
<path d="M349.901 71.5724C349.901 73.0211 349.257 74.18 348.452 74.18C347.647 74.18 347.003 73.0211 347.003 71.5724C347.003 70.1237 347.663 68.9647 348.452 68.9647C349.241 68.9647 349.901 70.1398 349.901 71.5724Z" fill="#1A4850"/>
<path d="M349.901 86.9768C349.901 86.9768 360.142 88.2967 365.391 85.7695C365.391 85.7695 362.428 92.7394 356.841 92.1116C355.316 92.0028 353.853 91.4622 352.624 90.5528C351.395 89.6435 350.451 88.4031 349.901 86.9768Z" fill="#1A4850"/>
<path d="M374.343 76.7554C374.343 76.7554 373.973 64.1517 369.062 54.4455C369.062 54.4455 360.399 58.4535 358.499 57.5038C356.599 56.5541 360.319 54.4455 360.319 54.4455C360.319 54.4455 346.037 59.1618 345.167 58.2121C344.298 57.2624 349.901 54.4455 349.901 54.4455L341.013 57.5038C341.013 57.5038 338.259 68.7715 339.403 76.8198C339.403 76.8198 335.571 70.2202 335.104 65.6648C334.637 61.1095 336.714 48.1195 350.03 47.1859C363.346 46.2523 370.962 49.2785 374.295 55.4274C377.628 61.5763 377.209 69.0934 374.343 76.7554Z" fill="#8B383E"/>
<path d="M358.29 83.3712C357.408 83.3525 356.531 83.2227 355.681 82.9849L356.003 81.7937C357.227 82.1317 359.127 82.341 359.546 81.7937C359.691 81.6167 359.546 81.2303 359.385 80.7152C357.775 77.1418 357.356 68.1116 357.34 67.7413H358.58C358.58 67.8379 358.934 76.9003 360.496 80.2323C360.735 80.5864 360.863 81.0041 360.863 81.4315C360.863 81.859 360.735 82.2766 360.496 82.6307C360.2 82.9015 359.851 83.1073 359.471 83.2348C359.091 83.3624 358.689 83.4088 358.29 83.3712Z" fill="#DB614D"/>
<path d="M371.123 100.691C371.123 100.691 392.055 165.85 394.132 218.873C394.132 218.873 401.7 220.949 410.234 209.327C418.768 197.706 413.696 105.713 397.353 90.3893C397.353 90.3893 389.93 88.6992 371.123 100.691Z" fill="#105E99"/>
<path d="M374.553 112.088C374.553 112.088 378.304 103.347 376.646 97.3752C374.987 91.4034 369.062 97.3752 369.062 97.3752C369.062 97.3752 371.51 107.178 374.553 112.088Z" fill="#0C476B"/>
<path d="M332.414 95.9749C316.908 89.2948 266.864 71.5724 266.864 71.5724C266.864 71.5724 233.051 28.208 226.256 21.9464C223.702 23.53 221.553 25.6873 219.979 28.2469C218.405 30.8065 217.451 33.6978 217.191 36.6909C217.191 36.6909 238.381 80.1519 250.167 93.4477C261.953 106.744 321.594 135.444 321.594 135.444L332.414 95.9749Z" fill="#0C476B"/>
<path d="M344.588 100.691C344.588 100.691 323.655 165.85 321.594 218.873C321.594 218.873 314.01 220.949 305.493 209.327C296.975 197.706 302.031 105.713 318.374 90.3893C318.374 90.3893 325.797 88.6992 344.588 100.691Z" fill="#105E99"/>
<path d="M341.174 112.088C341.174 112.088 337.406 103.347 339.081 97.3752C340.755 91.4034 346.648 97.3752 346.648 97.3752C346.648 97.3752 344.265 107.178 341.174 112.088Z" fill="#0C476B"/>
<path d="M450.746 509.272H409.059C406.144 492.709 410.782 476.129 410.782 476.129L429.846 472.91C431.585 483.373 433.678 487.51 436.56 489.634C438.67 491.164 441.181 491.662 444.337 492.757C445.796 493.199 447.134 493.969 448.25 495.006C449.367 496.044 450.231 497.323 450.778 498.745C451.835 502.176 451.824 505.848 450.746 509.272Z" fill="#662C33"/>
<path d="M450.794 498.665C440.521 499.952 417.947 502.141 419.315 496.202C420.459 491.228 429.991 489.892 436.56 489.554C438.67 491.083 441.181 491.582 444.337 492.677C445.799 493.117 447.14 493.885 448.26 494.923C449.379 495.961 450.246 497.241 450.794 498.665Z" fill="#8B383E"/>
<path d="M311.128 509.272H269.441C268.638 506.67 268.391 503.928 268.716 501.224C268.933 499.261 269.722 497.405 270.984 495.886C272.246 494.366 273.927 493.25 275.817 492.677C279.424 491.421 282.258 490.954 284.464 488.83C286.67 486.705 288.779 482.23 290.341 472.829L309.389 476.049C309.389 476.049 314.026 492.709 311.128 509.272Z" fill="#662C33"/>
<path d="M268.716 501.256C268.933 499.293 269.722 497.437 270.984 495.918C272.246 494.398 273.927 493.283 275.817 492.709C279.424 491.453 282.258 490.986 284.464 488.862C289.745 490.471 297.12 493.481 299.422 498.004C302.594 504.202 278.232 503.22 268.716 501.256Z" fill="#8B383E"/>
<path d="M610.426 506.294C610.432 507.29 610.373 508.284 610.249 509.272H559.593C559.593 508.274 559.593 507.276 559.674 506.294C560.124 497.87 561.722 489.546 564.424 481.554L577.08 476.129C577.7 481.394 580.367 486.204 584.503 489.522C585.406 490.237 586.376 490.862 587.401 491.389C587.868 491.63 588.319 491.872 588.802 492.081C589.847 492.556 590.923 492.959 592.022 493.288C596.014 494.308 600.078 495.018 604.179 495.413C609.605 496.25 610.426 502.479 610.426 506.294Z" fill="#164353"/>
<path d="M610.426 506.294C610.432 507.29 610.373 508.284 610.249 509.272H559.593C559.593 508.274 559.593 507.276 559.674 506.294H610.426Z" fill="#225866"/>
<path d="M587.401 491.389L580.365 493.642L578.883 491.067L584.503 489.457C585.403 490.195 586.374 490.842 587.401 491.389Z" fill="#225866"/>
<path d="M592.103 493.288L587.369 496.427L584.454 495.284L588.866 492.065C589.916 492.546 590.997 492.954 592.103 493.288Z" fill="#225866"/>
<path d="M416.916 506.294C416.852 507.306 416.663 508.307 416.353 509.272H382.539C382.116 508.317 381.797 507.318 381.589 506.294C378.256 490.198 400.686 470.399 400.686 470.399L407.803 479.896C407.803 479.896 406.965 495.091 413.004 498.246C414.414 499.012 415.549 500.2 416.251 501.643C416.952 503.086 417.185 504.712 416.916 506.294Z" fill="#164353"/>
<path d="M381.67 506.294H416.916C416.852 507.306 416.663 508.307 416.353 509.272H382.539C382.144 508.314 381.852 507.315 381.67 506.294Z" fill="#225866"/>
<path d="M411.538 497.055C411.538 497.055 397.321 493.836 390.848 498.005V495.671C390.848 495.671 402.795 489.844 411.538 497.055Z" fill="#225866"/>
<path d="M408.72 493.433C408.72 493.433 399.639 489.28 390.848 493.433L391.846 491.067C391.846 491.067 402.36 487.091 408.72 493.433Z" fill="#225866"/>
<path d="M595.13 362.825C595.13 376.378 583.102 486.978 583.102 486.978C575.847 487.695 568.525 487.282 561.397 485.755C558.176 429.707 557.774 381.513 557.774 381.513L500.033 338.245L499.888 338.133C499.888 338.133 499.679 339.131 499.276 340.869C496.426 353.569 484.318 406.704 479.278 418.89C473.53 432.749 410.798 491.067 410.798 491.067C399.14 489.457 389.221 480.958 389.221 480.958C411.764 443.614 442.454 406.141 442.454 406.141C444.853 392.684 446.559 362.761 447.59 340.386V339.34C448.266 324.193 448.604 312.748 448.604 312.748L438.026 291.05L505.266 266.358L520.337 285.674C520.337 285.674 523.783 288.893 529.209 293.98L529.966 294.688C550.238 313.746 595.13 356.74 595.13 362.825Z" fill="#8BBDDB"/>
<path d="M447.622 340.451V339.404C461.776 331.726 459.409 319.461 459.36 319.332L460.246 319.155C460.326 319.284 462.87 332.451 447.622 340.451Z" fill="#6097B2"/>
<path d="M498.987 329.65C499.503 332.514 499.853 335.405 500.033 338.31L499.888 338.197C499.888 338.197 499.679 339.195 499.276 340.934C498.648 319.927 489.986 307.501 489.873 307.356L490.614 306.841C494.722 313.505 497.505 320.9 498.809 328.62C509.034 319.541 499.035 300.949 498.922 300.756L499.711 300.338C499.824 300.467 510.419 320.169 498.987 329.65Z" fill="#6097B2"/>
<path d="M530.047 294.72C529.597 294.88 529.123 294.956 528.646 294.945C523.687 294.945 515.378 288.008 514.992 287.67L515.571 286.994C518.276 289.279 525.796 294.768 529.354 293.98L530.047 294.72Z" fill="#6097B2"/>
<path d="M442.808 175.444C442.808 175.444 463.257 172.225 473.514 178.663C483.77 185.102 497.215 202.229 497.215 202.229C497.215 202.229 481.243 204.337 479.504 215.187C479.391 215.203 467.83 187.581 442.808 175.444Z" fill="#ADBEC4"/>
<path d="M412.054 186.1C403.391 190.768 388.931 208.329 388.287 219.13C387.643 229.657 395.437 239.332 400.702 247.573C417.109 273.328 434.403 295.96 441.745 326.092C441.745 326.286 479.278 341.159 523.284 288.265C523.284 288.265 498.423 254.833 489.825 226.358C486.331 214.768 482.772 202.454 476.058 192.233C472.534 186.708 467.587 182.233 461.736 179.279C455.886 176.325 449.347 175 442.808 175.444C431.665 176.345 420.571 181.561 412.054 186.1Z" fill="#CFD8DC"/>
<path d="M408.415 175.331C408.415 175.331 413.954 184.78 411.393 189.979C411.393 189.979 430.377 196.531 430.377 185.907C430.377 185.907 426.803 177.939 428.155 172.804L408.415 175.331Z" fill="#EF6E4B"/>
<path d="M450.601 240.056C450.601 240.056 440.038 243.05 437.381 246.784C434.725 250.519 432.342 258.905 432.342 258.905H450.601L454.047 252.595L458.056 244.177L450.601 240.056Z" fill="#EF6E4B"/>
<path d="M433.147 164.788C433.147 164.788 440.57 161.681 435.771 139.371C432.551 124.611 428.01 122.406 425.048 122.277C425.048 122.277 421.425 116.82 408.946 119.428C404.605 120.18 400.565 122.146 397.294 125.097C394.023 128.048 391.654 131.864 390.461 136.104C387.241 146.18 393.682 167.798 401.909 169.907L433.147 164.788Z" fill="#164353"/>
<path d="M434.902 149.722C434.902 149.722 439.571 143.283 441.343 149.625C443.387 157.045 437.027 161.231 435.288 159.041C433.549 156.852 434.902 149.722 434.902 149.722Z" fill="#FF8B66"/>
<path d="M395.807 156.563C395.807 156.563 389.286 151.911 389.672 158.543C390.123 166.237 397.498 168.2 398.432 165.528C399.365 162.856 395.807 156.563 395.807 156.563Z" fill="#FF8B66"/>
<path d="M420.427 180.225C432.841 178.18 438.509 168.957 434.499 144.619C432.422 132.08 424.838 125.432 410.878 127.733C396.918 130.035 392.377 138.679 394.454 151.218C398.77 177.327 407.61 182.333 420.427 180.225Z" fill="#FF8B66"/>
<path d="M399.993 159.202C399.85 159.803 399.897 160.433 400.127 161.006C400.358 161.578 400.76 162.065 401.28 162.399C401.799 162.733 402.41 162.897 403.026 162.869C403.643 162.841 404.236 162.622 404.723 162.242C405.21 161.862 405.567 161.341 405.744 160.75C405.921 160.158 405.911 159.526 405.713 158.942C405.515 158.357 405.141 157.848 404.641 157.485C404.141 157.122 403.541 156.924 402.924 156.917C402.233 156.839 401.54 157.035 400.992 157.462C400.445 157.889 400.086 158.514 399.993 159.202Z" fill="#DB614D"/>
<path d="M425.627 155.677C425.637 156.296 425.839 156.897 426.205 157.395C426.572 157.894 427.085 158.266 427.673 158.46C428.261 158.654 428.895 158.66 429.486 158.477C430.078 158.294 430.597 157.932 430.973 157.44C431.349 156.948 431.562 156.351 431.583 155.732C431.604 155.114 431.431 154.504 431.089 153.988C430.748 153.472 430.253 153.075 429.676 152.853C429.098 152.631 428.465 152.594 427.865 152.748C427.189 152.859 426.581 153.224 426.165 153.769C425.749 154.313 425.557 154.996 425.627 155.677Z" fill="#DB614D"/>
<path d="M403.487 145.665C403.36 145.667 403.236 145.628 403.133 145.552C402.997 145.458 402.904 145.314 402.874 145.151C402.844 144.988 402.879 144.82 402.972 144.683C404.312 143.027 406.226 141.935 408.334 141.625C408.416 141.614 408.5 141.62 408.581 141.642C408.661 141.664 408.736 141.701 408.802 141.752C408.867 141.803 408.923 141.866 408.964 141.938C409.005 142.01 409.032 142.09 409.043 142.172C409.053 142.255 409.047 142.338 409.026 142.419C409.004 142.499 408.966 142.574 408.916 142.64C408.865 142.705 408.801 142.761 408.729 142.802C408.657 142.843 408.577 142.87 408.495 142.88C406.74 143.137 405.14 144.031 404.003 145.392C403.945 145.475 403.869 145.544 403.779 145.592C403.689 145.639 403.589 145.665 403.487 145.665Z" fill="#1A4850"/>
<path d="M426.851 141.818C426.717 141.815 426.588 141.77 426.481 141.689C424.967 140.769 423.17 140.432 421.425 140.74C421.344 140.758 421.261 140.761 421.179 140.746C421.098 140.732 421.021 140.701 420.951 140.656C420.882 140.611 420.823 140.552 420.777 140.484C420.731 140.415 420.699 140.338 420.684 140.257C420.651 140.095 420.683 139.926 420.773 139.787C420.864 139.648 421.005 139.551 421.167 139.516C423.264 139.118 425.435 139.532 427.237 140.675C427.367 140.78 427.451 140.93 427.472 141.095C427.493 141.26 427.449 141.427 427.35 141.56C427.294 141.64 427.219 141.705 427.132 141.75C427.045 141.795 426.949 141.818 426.851 141.818Z" fill="#1A4850"/>
<path d="M405.742 152.055C405.999 153.665 406.901 154.744 407.754 154.599C408.608 154.454 409.107 153.086 408.849 151.556C408.592 150.027 407.69 148.884 406.837 149.013C405.983 149.142 405.5 150.526 405.742 152.055Z" fill="#1A4850"/>
<path d="M422.326 149.367C422.584 150.977 423.47 152.039 424.339 151.895C425.209 151.75 425.675 150.398 425.418 148.852C425.16 147.307 424.275 146.18 423.405 146.325C422.536 146.47 422.069 147.758 422.326 149.367Z" fill="#1A4850"/>
<path d="M426.98 163.323C426.98 163.323 416.208 166.204 410.234 165.062C410.234 165.062 414.372 170.261 420.249 168.764C426.126 167.267 426.98 163.323 426.98 163.323Z" fill="#1A4850"/>
<path d="M427.479 133.271C427.479 133.271 413.471 143.412 395.887 144.184L396.387 159.83C396.387 159.83 379.995 129.633 412.408 124.289C444.821 118.945 435.401 152.667 435.401 152.667C435.401 152.667 434.387 138.18 427.479 133.271Z" fill="#0E3944"/>
<path d="M416.031 159.122L415.934 157.77C415.934 157.77 417.818 157.609 418.317 156.466C418.51 155.983 417.721 154.47 417.013 153.118C415.789 151.013 414.878 148.741 414.308 146.373L415.644 146.1C416.182 148.361 417.05 150.53 418.221 152.538C419.251 154.534 420.008 155.967 419.557 157.029C418.752 158.913 416.143 159.106 416.031 159.122Z" fill="#DB614D"/>
<path d="M435.079 133.367C411.522 123.146 389.286 144.345 389.286 144.345C389.286 144.345 386.693 127.17 391.234 123.146C392.408 122.107 393.668 121.17 395.002 120.345C405.404 113.778 419.251 113.906 425.595 116.16C426.66 116.484 427.643 117.033 428.477 117.77C432.229 121.665 435.079 133.367 435.079 133.367Z" fill="#CE364C"/>
<path d="M432.229 129.552C418.919 127.613 405.357 130.557 394.052 137.842C394.052 137.842 392.876 126.752 395.066 120.345C405.468 113.778 419.315 113.906 425.66 116.16C429.299 120.393 432.229 129.552 432.229 129.552Z" fill="#CFD8DC"/>
<path d="M391.234 142.317C391.234 142.317 394.454 129.005 398.592 125.255C405.629 119.009 425.386 116.868 435.771 120.619C446.157 124.369 435.771 135.717 435.771 135.717C435.771 135.717 419.219 123.854 391.234 142.317Z" fill="#A02E44"/>
<path d="M421.795 230.833C427.475 239.047 434.946 245.867 443.645 250.776C443.645 250.776 460.874 235.822 483.223 237.158C483.223 237.158 464.706 270.559 448.798 274.261C440.457 276.209 410.154 256.201 410.154 256.201C410.154 256.201 416.272 234.905 421.795 230.833Z" fill="#FF8B66"/>
<path d="M392.007 208.136C399.414 196.08 416.481 213.883 422.294 226.615C428.107 239.348 432.342 242.02 432.342 242.02C432.342 242.02 415.29 249.15 415.403 261.931C415.403 261.931 375.857 234.406 392.007 208.136Z" fill="#ADBEC4"/>
<path d="M443.645 245.223C443.645 245.223 454.047 235.034 488.215 221.722L483.803 207.846C487.715 202.696 494.929 202.696 494.929 202.696C494.929 202.696 512.432 227.404 509.421 234.792C507.537 239.396 471.018 244.241 443.645 245.223Z" fill="#EF6E4B"/>
<path d="M481.001 225.022C481.316 223.851 481.863 222.756 482.611 221.802C483.867 220.016 483.529 216.78 483.98 215.766C484.431 214.752 487.12 210.647 488.907 209.859C490.694 209.07 493.029 207.75 493.528 210.019C494.027 212.289 490.308 211.629 488.698 214.848C490.78 214.2 492.981 214.029 495.138 214.349C498.004 215.026 498.826 217.665 495.267 217.569C493.006 217.762 490.811 218.432 488.826 219.533C488.826 219.533 492.53 220.08 491.934 221.786C491.097 224.201 486.588 222.752 481.001 225.022Z" fill="#FF8B66"/>
<path d="M228.349 271.589C231.409 279.412 243.92 292.805 243.92 292.805C243.92 292.805 274.513 274.487 288.586 282.197C302.659 289.907 313.898 294.607 323.043 291.243C332.189 287.879 292.965 216.587 292.965 216.587L242.116 197.271C242.116 197.271 241.005 210.148 235.209 212.418C229.412 214.688 223.197 235.919 223.616 239.943C224.034 243.967 228.349 271.589 228.349 271.589Z" fill="#3E6575"/>
<path d="M285.559 293.271C285.559 293.271 272.452 319.026 245.304 351.879C245.304 351.879 242.519 390.994 170.947 452.564L163.443 446.672C163.443 446.672 206.081 379.92 214.598 359.445C223.116 338.97 209.977 320.233 249.137 268.483L285.559 293.271Z" fill="#EF6E4B"/>
<path d="M243.823 247.814C232.552 269.416 228.752 297.054 228.752 297.054L223.615 310.012C235.992 316.348 249.219 320.864 262.887 323.42L271.341 301.078L243.823 247.814Z" fill="#662C33"/>
<path d="M302.691 291.243C302.691 291.243 308.278 319.541 307.36 362.069C307.36 362.069 329.387 394.535 311.209 487.172H301.676C301.676 487.172 293.883 408.298 287.926 387.002C281.968 365.706 259.957 359.155 258.798 294.237L302.691 291.243Z" fill="#FF8B66"/>
<path d="M308.278 321.601C308.278 321.601 290.357 324.821 258.765 323.324L258.266 319.766L258.138 318.865L254.917 295.847C252.554 292.76 250.489 289.456 248.75 285.98C248.364 285.255 248.01 284.531 247.655 283.758C243.405 274.696 239.604 261.529 243.871 247.782L250.538 248.088H251.471L273.772 249.118H274.722L282.049 249.456H283.192L288.022 249.682C288.022 249.682 312.175 271.428 307.876 311.638L308.182 317.239V318.141L308.278 321.601Z" fill="#8B383E"/>
<path d="M251.423 248.169C250.795 250.02 246.592 263.67 248.702 286.012C248.315 285.287 247.961 284.563 247.607 283.79C245.997 263.364 249.684 250.631 250.489 248.12C250.586 247.814 250.65 247.67 250.65 247.653L251.487 247.959L251.423 248.169Z" fill="#662C33"/>
<path d="M308.101 318.382C301.757 319.992 291.001 320.459 280.728 320.459C271.55 320.459 262.839 320.088 258.186 319.863L258.057 318.962C266.108 319.348 287.217 320.169 300.839 318.688L299.954 304.298C299.974 290.049 296.631 275.997 290.196 263.283C277.798 261.03 274.384 251.855 273.643 249.263C273.531 248.845 273.482 248.603 273.482 248.587L274.368 248.442C274.427 248.736 274.502 249.026 274.593 249.311C275.67 252.651 277.648 255.629 280.311 257.915C282.973 260.202 286.216 261.709 289.681 262.269C287.451 257.853 284.855 253.632 281.92 249.649C281.533 249.118 281.276 248.812 281.259 248.796L281.936 248.217C281.936 248.217 282.387 248.764 283.063 249.698C287.217 255.332 301.209 276.515 300.775 304.265L301.644 318.575C303.754 318.351 305.847 317.985 307.908 317.481L308.101 318.382Z" fill="#662C33"/>
<path d="M262.421 150.848C255.32 146.937 204.052 167.074 204.052 167.074C204.052 167.074 196.468 180.595 201.202 185.891C205.936 191.186 222.698 188.869 227.85 185.891C233.003 182.913 246.593 180.691 246.593 180.691L262.421 150.848Z" fill="#8BBDDB"/>
<path d="M307.763 108.176C311.185 109.726 314.243 111.976 316.739 114.782C319.235 117.589 321.114 120.888 322.254 124.466C326.119 136.667 314.542 167.54 318.551 181.738C322.56 195.935 321.932 222.752 309.421 228.418C296.91 234.084 271.292 223.959 265.786 208.458C260.279 192.957 262.565 134.301 273.241 114.341C283.916 94.3812 305.219 104.426 307.763 108.176Z" fill="#F24052"/>
<path d="M295.59 160.812C298.392 163.822 305.573 158.462 305.573 158.462C305.573 158.462 305.428 185.07 297.683 187.114C289.938 189.158 270.31 166.188 271.035 159.895C271.759 153.601 289.391 154.196 295.59 160.812Z" fill="#8BBDDB"/>
<path d="M265.77 154.196C272.123 158.991 279.449 162.337 287.233 163.999C300.871 167.219 308.262 160.78 315.234 169.553C325.7 182.736 308.664 207.058 299.712 219.678C296.363 224.362 289.326 237.384 287.893 249.907C287.893 249.907 264.24 256.78 243.823 247.863L242.309 218.889C242.309 218.889 229.444 179.677 265.77 154.196Z" fill="#0E3944"/>
<path d="M290.228 182.382C290.228 182.382 301.048 156.627 304.172 155.017C307.296 153.408 315.25 157.319 316.844 160.844C318.438 164.37 316.844 172.112 316.844 172.112C316.844 172.112 308.31 162.245 290.228 182.382Z" fill="#8BBDDB"/>
<path d="M342.011 291.243C337.181 301.304 325.04 304.201 325.04 304.201C325.04 304.201 324.122 302.801 322.576 300.306C322.415 300.048 322.238 299.774 322.077 299.485C312.593 284.096 283.578 234.857 284.142 209.247C284.266 200.374 286.155 191.614 289.699 183.479C293.243 175.343 298.371 167.993 304.784 161.858C314.912 164.273 318.116 167.042 318.116 167.042C320.17 179.733 320.257 192.666 318.374 205.384C315.234 226.309 309.55 231.863 312.416 233.424C315.282 234.985 312.416 238.108 312.416 238.108C312.416 238.108 329.243 261.545 332.382 268.837C334.427 273.585 337.889 281.714 340.047 286.704C340.192 287.058 340.337 287.428 340.481 287.75C341.431 289.875 342.011 291.243 342.011 291.243Z" fill="#6097B2"/>
<path d="M312.803 167.074C312.803 167.074 300.759 175.991 307.763 189.609L341.158 224.169C322.834 243.678 321.014 251.694 307.763 260.692L312.803 268.483C312.803 268.483 359.192 232.845 359.256 224.169C359.288 220.434 330.917 175.508 312.803 167.074Z" fill="#FF8B66"/>
<path d="M307.103 260.676C303.618 261.064 300.156 261.639 296.733 262.398C292.724 263.396 287.378 264.394 287.217 265.231C287.056 266.068 296.057 265.231 296.057 265.231C296.057 265.231 288.714 268.241 288.553 269.4C288.392 270.559 297.893 268.563 297.893 268.563C297.893 268.563 291.887 272.233 292.225 273.247C292.563 274.261 299.953 271.734 299.953 271.734C299.244 273.574 298.303 275.316 297.152 276.917C297.152 276.917 298.585 277.706 301.499 274.47C304.414 271.235 309.051 272.281 312.77 269.4C316.49 266.519 310.323 260.257 307.103 260.676Z" fill="#FF8B66"/>
<path d="M272.919 158.446C272.919 158.446 263.757 164.353 257.976 178.663C252.196 192.973 233.92 219.855 229.654 226.808C225.387 233.762 228.349 271.589 228.349 271.589C228.349 271.589 222.987 248.652 220.604 239.718C218.221 230.784 228.301 208.7 229.815 207.525C231.328 206.35 239.073 208.506 237.592 199.476C236.11 190.446 256.914 151.879 262.42 150.784C262.42 150.848 271.309 152.587 272.919 158.446Z" fill="#6097B2"/>
<path d="M244.58 160.377C244.419 160.685 244.236 160.981 244.032 161.263C242.38 163.383 240.369 165.197 238.091 166.623C238.091 166.623 231.103 176.426 231.038 177.553C230.974 178.679 218.898 187.211 213.536 187.098C212.892 187.106 212.266 186.89 211.764 186.486C208.544 183.476 222.601 158.285 225.692 152.844C225.886 152.49 226.047 152.217 226.159 152.039C226.193 151.962 226.23 151.887 226.272 151.814C226.272 151.814 223.809 142.623 234.114 144.345C242.68 145.762 244.37 152.571 245.272 157.126C245.434 158.258 245.188 159.41 244.58 160.377Z" fill="#6097B2"/>
<path d="M208.625 169.891C215.71 160.603 240.603 142.526 253.71 137.231L256.93 143.331C256.93 143.331 231.65 165.593 225.693 175.122C219.735 184.651 212.376 188.579 205.324 185.408C198.271 182.237 207.143 171.903 208.625 169.891Z" fill="#FF8B66"/>
<path d="M242.116 158.462L240.78 159.991L240.104 160.78L237.865 163.323C237.865 163.323 232.294 170.084 232.504 172.788C232.665 174.736 221.925 183.46 213.52 187.098C210.106 188.579 207.079 189.223 205.292 188.192C199.221 184.78 200.59 174.172 204.052 167.074C207.063 160.844 220.347 152.828 223.76 150.864C224.013 150.692 224.276 150.536 224.549 150.398L225.821 145.456C225.821 145.456 230.442 142.671 234.098 144.393C234.098 144.393 226.047 144.732 227.367 147.854C228.687 150.977 239.878 158.349 242.116 158.462Z" fill="#8BBDDB"/>
<path d="M271.325 132.675C263.274 135.991 264.401 143.331 256.978 143.331C252.373 143.331 251.777 138.067 251.777 138.067C253.758 133.015 254.995 127.701 255.448 122.293C255.754 118.639 257.059 120.055 257.059 120.055C257.059 119.717 257.059 119.395 257.059 119.073C256.946 116.627 256.495 114.84 258.105 115.854C259.715 116.868 260.553 123.902 260.553 123.902C262.05 113.794 259.828 112.297 261.583 113.182C263.966 114.405 263.982 123.339 263.982 123.597C265.915 117.721 265.399 114.357 266.736 115.709C268.072 117.061 266.06 127.862 265.254 131.806C265.077 132.707 264.949 133.255 264.949 133.255C271.26 130.228 271.325 132.675 271.325 132.675Z" fill="#FF8B66"/>
<path d="M265.142 131.919C264.964 132.82 264.836 133.367 264.836 133.367C263.802 133.361 262.784 133.627 261.885 134.138C260.986 134.65 260.238 135.389 259.715 136.281C259.937 135.019 260.609 133.882 261.607 133.079C262.606 132.277 263.862 131.864 265.142 131.919Z" fill="#EF6E4B"/>
<path d="M257.429 127.315C257.429 126.446 257.831 121.536 256.978 120.055C256.978 119.717 256.978 119.395 256.978 119.073C258.798 119.46 257.622 126.269 257.429 127.315Z" fill="#EF6E4B"/>
<path d="M262.453 169.939C262.453 169.939 267.927 155.114 269.666 151.814C271.405 148.514 280.47 149.062 287.378 150.349C294.286 151.637 295.638 160.812 295.638 160.812C295.638 160.812 274.722 150.977 262.453 169.939Z" fill="#8BBDDB"/>
<path d="M297.683 140.756C293.658 148.679 291.457 157.401 291.243 166.285C291.243 166.285 280.583 173.528 276.751 164.466C279.358 155.404 280.071 145.903 278.844 136.554C277.556 125.834 297.683 140.756 297.683 140.756Z" fill="#EF6E4B"/>
<path d="M276.767 123.967C276.767 123.967 274.819 117.029 271.357 121.907C267.348 127.556 271.437 133.045 273.579 131.742C275.72 130.438 276.767 123.967 276.767 123.967Z" fill="#FF8B66"/>
<path d="M307.731 141.802C307.731 141.802 314.67 139.87 312.303 145.375C309.55 151.734 302.739 151.074 302.739 148.595C302.739 146.116 307.731 141.802 307.731 141.802Z" fill="#FF8B66"/>
<path d="M279.617 154.196C269.747 148.643 267.815 139.065 278.699 119.75C284.303 109.786 292.82 106.518 303.866 112.747C314.912 118.977 316.136 127.701 310.516 137.665C298.826 158.446 289.809 159.959 279.617 154.196Z" fill="#FF8B66"/>
<path d="M303.367 142.752C303.302 143.305 303.066 143.824 302.692 144.238C302.318 144.651 301.825 144.939 301.281 145.06C300.737 145.181 300.169 145.13 299.655 144.914C299.141 144.698 298.707 144.328 298.413 143.855C298.119 143.382 297.979 142.829 298.013 142.272C298.047 141.716 298.253 141.184 298.602 140.75C298.952 140.316 299.428 140.001 299.964 139.85C300.5 139.698 301.071 139.716 301.596 139.903C302.205 140.052 302.732 140.434 303.063 140.966C303.394 141.499 303.503 142.14 303.367 142.752Z" fill="#DB614D"/>
<path d="M282.773 131.87C282.574 132.389 282.219 132.833 281.756 133.142C281.294 133.45 280.748 133.608 280.192 133.593C279.637 133.579 279.099 133.392 278.654 133.06C278.209 132.728 277.877 132.265 277.706 131.737C277.534 131.209 277.53 130.64 277.695 130.109C277.859 129.579 278.185 129.112 278.625 128.774C279.066 128.436 279.601 128.242 280.156 128.22C280.712 128.198 281.26 128.349 281.726 128.651C282.291 128.94 282.719 129.441 282.915 130.045C283.111 130.648 283.06 131.304 282.773 131.87Z" fill="#DB614D"/>
<path d="M304.784 130.261C304.657 130.26 304.534 130.217 304.435 130.139C304.335 130.06 304.266 129.95 304.237 129.826C303.698 128.321 302.619 127.071 301.21 126.317C301.077 126.248 300.978 126.13 300.933 125.989C300.887 125.847 300.9 125.693 300.968 125.56C301.04 125.427 301.161 125.328 301.305 125.282C301.45 125.237 301.606 125.25 301.741 125.319C303.431 126.224 304.714 127.738 305.332 129.552C305.351 129.623 305.356 129.697 305.346 129.77C305.336 129.843 305.311 129.913 305.274 129.976C305.236 130.039 305.186 130.094 305.127 130.137C305.068 130.181 305 130.212 304.929 130.229L304.784 130.261Z" fill="#1A4850"/>
<path d="M291.243 120.619C291.142 120.643 291.037 120.643 290.937 120.619C289.566 119.807 287.942 119.531 286.38 119.846C286.309 119.871 286.234 119.881 286.159 119.875C286.085 119.87 286.012 119.849 285.945 119.815C285.879 119.78 285.82 119.732 285.773 119.674C285.726 119.615 285.691 119.548 285.671 119.476C285.63 119.333 285.646 119.18 285.715 119.048C285.784 118.916 285.901 118.816 286.042 118.768C287.918 118.36 289.879 118.677 291.532 119.653C291.66 119.73 291.753 119.854 291.789 119.999C291.825 120.144 291.802 120.298 291.726 120.426C291.666 120.493 291.591 120.546 291.507 120.579C291.423 120.613 291.333 120.626 291.243 120.619Z" fill="#1A4850"/>
<path d="M300.662 134.88C299.97 136.104 298.859 136.796 298.182 136.41C297.506 136.023 297.506 134.8 298.182 133.496C298.859 132.192 299.986 131.597 300.662 131.967C301.338 132.337 301.403 133.705 300.662 134.88Z" fill="#1A4850"/>
<path d="M286.879 127.524C286.187 128.748 285.076 129.424 284.399 129.037C283.723 128.651 283.723 127.347 284.399 126.124C285.076 124.9 286.203 124.224 286.879 124.611C287.555 124.997 287.571 126.301 286.879 127.524Z" fill="#1A4850"/>
<path d="M282.081 140.096C282.081 140.096 287.749 144.41 291.838 144.538C291.838 144.538 287.491 148.08 284.351 145.778C283.464 145.151 282.777 144.281 282.374 143.273C281.971 142.264 281.869 141.161 282.081 140.096Z" fill="#1A4850"/>
<path d="M297.731 132.466C297.731 132.466 300.324 129.955 301.387 130.856C302.449 131.758 301.902 134.832 301.902 134.832H304.172L302.288 134.076C302.288 134.076 302.9 130.856 301.725 130.196C300.066 129.295 297.731 132.466 297.731 132.466Z" fill="#1A4850"/>
<path d="M287.942 127.444C287.942 127.444 288.747 123.919 287.442 123.468C286.138 123.017 283.771 125.078 283.771 125.078L282.548 123.162L284.158 124.369C284.158 124.369 286.589 122.196 287.765 122.84C289.391 123.79 287.942 127.444 287.942 127.444Z" fill="#1A4850"/>
<path d="M306.491 116.9C306.037 116.241 305.447 115.686 304.761 115.272C304.075 114.859 303.309 114.596 302.514 114.501C301.719 114.407 300.912 114.483 300.149 114.725C299.385 114.966 298.682 115.368 298.086 115.902C293.255 119.798 282.193 126.027 276.767 123.951C271.341 121.874 288.618 98.8239 303.609 105.585C318.599 112.345 317.247 134.317 311.015 141.319C304.784 148.321 307.795 141.786 307.795 141.786C308.041 136.219 308.877 130.693 310.291 125.303C310.631 124.506 310.802 123.646 310.792 122.78C310.783 121.913 310.594 121.057 310.237 120.267C309.879 119.478 309.362 118.771 308.717 118.191C308.072 117.611 307.314 117.172 306.491 116.9Z" fill="#F24052"/>
<path d="M289.874 137.842C289.586 137.843 289.299 137.805 289.021 137.73L289.391 136.49C289.704 136.617 290.052 136.627 290.372 136.517C290.691 136.408 290.96 136.187 291.13 135.895C291.285 135.655 291.368 135.375 291.368 135.09C291.368 134.804 291.285 134.525 291.13 134.285C290.985 134.124 290.711 134.14 290.341 134.285L289.777 133.206C290.114 132.972 290.522 132.863 290.931 132.898C291.34 132.933 291.724 133.111 292.015 133.4C292.35 133.832 292.545 134.357 292.574 134.904C292.603 135.45 292.464 135.992 292.176 136.458C291.963 136.883 291.633 137.239 291.226 137.484C290.818 137.729 290.349 137.853 289.874 137.842Z" fill="#DB614D"/>
<path d="M362.122 222.784C361.542 231.444 340.079 259.662 336.504 260.66C335.514 260.973 334.58 261.44 333.735 262.044L332.624 262.881C331.327 263.95 330.13 265.135 329.049 266.422C322.802 266.004 305.219 257.875 310.871 256.088C311.274 255.954 311.654 255.758 311.998 255.509C312.261 255.337 312.508 255.143 312.738 254.929C319.388 249.36 332.334 226.728 332.415 225.022C332.495 223.315 334.717 222.784 334.717 222.784C334.717 222.784 322.512 204.853 315.395 202.696C308.278 200.539 304.752 191.975 304.752 191.975C297.764 162.39 318.084 167.042 318.084 167.042C333.091 175.959 362.718 214.092 362.122 222.784Z" fill="#8BBDDB"/>
<path d="M333.735 262.044L332.624 262.881C325.222 262.175 318.112 259.642 311.933 255.509C312.196 255.337 312.444 255.143 312.674 254.929C318.956 259.09 326.215 261.542 333.735 262.044Z" fill="#3E6575"/>
<path d="M244.58 160.377C244.419 160.685 244.236 160.981 244.032 161.263C242.711 161.221 241.396 161.059 240.104 160.78C234.617 159.564 229.591 156.811 225.612 152.844C224.871 152.136 224.227 151.46 223.68 150.832C223.932 150.659 224.196 150.503 224.469 150.365C224.936 150.88 225.467 151.46 226.079 151.975C230.049 156.034 235.149 158.805 240.715 159.927C241.987 160.198 243.28 160.349 244.58 160.377Z" fill="#3E6575"/>
<path d="M340.514 287.798C338.658 291.103 336.083 293.948 332.977 296.121C329.872 298.295 326.317 299.741 322.576 300.354C322.415 300.096 322.238 299.823 322.077 299.533C325.869 298.96 329.474 297.506 332.601 295.286C335.727 293.066 338.289 290.143 340.079 286.752C340.224 287.058 340.369 287.428 340.514 287.798Z" fill="#3E6575"/>
<path d="M177.822 450.375C176.049 452.253 174.518 454.346 173.265 456.604C170.931 460.644 173.491 464.363 162.252 473.731C162.252 473.731 139.565 460.451 129.324 443.389C129.415 441.966 129.962 440.611 130.885 439.523C131.807 438.436 133.055 437.675 134.444 437.352C137.117 436.757 144.443 440.185 151.48 441.505C152.478 441.682 153.493 441.843 154.475 441.924C155.674 442.045 156.882 442.045 158.082 441.924C159.126 441.835 160.152 441.591 161.125 441.2C162.444 440.638 163.611 439.77 164.526 438.667C165.442 437.563 166.081 436.257 166.39 434.857C166.39 434.857 172.412 438.286 168.403 444.097C168.419 444.049 175.568 440.926 177.822 450.375Z" fill="#CFD8DC"/>
<path d="M162.188 473.715C162.188 473.715 139.5 460.435 129.26 443.373C129.26 443.373 133.06 442.568 136.199 448.202C139.339 453.835 164.088 466.729 162.188 473.715Z" fill="#ADBEC4"/>
<path d="M162.332 446.866C160.497 449.779 160.529 444.403 158.082 441.876C159.126 441.787 160.152 441.543 161.125 441.151C162.187 442.326 163.798 444.596 162.332 446.866Z" fill="#ADBEC4"/>
<path d="M155.199 447.027C153.251 448.878 152.623 444.065 151.48 441.489C152.478 441.666 153.493 441.827 154.475 441.908C155.618 443.453 156.681 445.626 155.199 447.027Z" fill="#ADBEC4"/>
<path d="M317.376 509.272H285.285C284.496 506.194 284.496 502.966 285.285 499.888C285.865 497.763 289.198 495.783 292.289 493.015C293.157 492.241 293.974 491.413 294.737 490.536C295.342 489.802 295.881 489.015 296.347 488.186C296.95 487.147 297.395 486.024 297.667 484.854C298.208 481.904 297.832 478.859 296.588 476.129C296.588 476.129 307.521 473.844 311.418 479.783C311.418 479.783 311.788 477.031 315.25 478.882C314.972 482.26 315.031 485.657 315.427 489.023C316.136 493.642 320.435 494.978 317.376 509.272Z" fill="#CFD8DC"/>
<path d="M309.035 489.956C308.9 490.109 308.734 490.231 308.548 490.314C308.362 490.397 308.16 490.44 307.956 490.439C307.613 490.436 307.28 490.323 307.006 490.117C305.519 488.962 303.774 488.183 301.921 487.847C300.068 487.51 298.161 487.627 296.363 488.186C296.966 487.147 297.411 486.024 297.683 484.854C299.825 484.065 303.866 483.598 308.858 487.848C309.01 487.973 309.135 488.128 309.226 488.303C309.317 488.477 309.373 488.668 309.39 488.865C309.406 489.061 309.383 489.259 309.322 489.446C309.261 489.634 309.164 489.807 309.035 489.956Z" fill="#ADBEC4"/>
<path d="M306.33 495.284L306.153 495.558C305.95 495.875 305.633 496.103 305.267 496.193C304.901 496.283 304.515 496.228 304.188 496.041C302.015 494.753 297.103 492.322 292.289 493.015C293.157 492.241 293.974 491.413 294.737 490.536C296.703 490.072 298.751 490.084 300.711 490.571C302.672 491.058 304.488 492.006 306.008 493.337C306.292 493.565 306.481 493.89 306.541 494.249C306.6 494.608 306.525 494.977 306.33 495.284Z" fill="#ADBEC4"/>
</svg>
