<svg width="32" height="32" viewBox="0 0 32 32" fill="none" xmlns="http://www.w3.org/2000/svg">
<path d="M2.66675 15.9998L9.33341 21.3332V17.3332H21.3334V14.6665H9.33341V10.6665L2.66675 15.9998Z" fill="#FFB4C6"/>
<path d="M17.3347 3.99858C15.7581 3.99421 14.1962 4.30273 12.7397 4.90627C11.2831 5.5098 9.96084 6.39636 8.84937 7.51458L10.7347 9.39991C12.4974 7.63725 14.8414 6.66525 17.3347 6.66525C19.828 6.66525 22.172 7.63725 23.9347 9.39991C25.6974 11.1626 26.6694 13.5066 26.6694 15.9999C26.6694 18.4932 25.6974 20.8372 23.9347 22.5999C22.172 24.3626 19.828 25.3346 17.3347 25.3346C14.8414 25.3346 12.4974 24.3626 10.7347 22.5999L8.84937 24.4852C11.1147 26.7519 14.128 28.0012 17.3347 28.0012C20.5414 28.0012 23.5547 26.7519 25.82 24.4852C28.0867 22.2199 29.336 19.2066 29.336 15.9999C29.336 12.7932 28.0867 9.77991 25.82 7.51458C24.7086 6.39636 23.3863 5.5098 21.9297 4.90627C20.4732 4.30273 18.9113 3.99421 17.3347 3.99858Z" fill="#FFB4C6"/>
</svg>
