<svg width="88" height="88" viewBox="0 0 88 88" fill="none" xmlns="http://www.w3.org/2000/svg">
<circle cx="44" cy="44" r="43.5" fill="#FFF6F8" stroke="#FFB4C6"/>
<path d="M41.7498 44C41.7498 44.5967 41.9868 45.169 42.4088 45.591C42.8307 46.0129 43.403 46.25 43.9998 46.25C44.5965 46.25 45.1688 46.0129 45.5908 45.591C46.0127 45.169 46.2498 44.5967 46.2498 44C46.2498 43.4033 46.0127 42.831 45.5908 42.409C45.1688 41.9871 44.5965 41.75 43.9998 41.75C43.403 41.75 42.8307 41.9871 42.4088 42.409C41.9868 42.831 41.7498 43.4033 41.7498 44ZM51.1248 44C51.1248 44.5967 51.3618 45.169 51.7838 45.591C52.2057 46.0129 52.778 46.25 53.3748 46.25C53.9715 46.25 54.5438 46.0129 54.9658 45.591C55.3877 45.169 55.6248 44.5967 55.6248 44C55.6248 43.4033 55.3877 42.831 54.9658 42.409C54.5438 41.9871 53.9715 41.75 53.3748 41.75C52.778 41.75 52.2057 41.9871 51.7838 42.409C51.3618 42.831 51.1248 43.4033 51.1248 44ZM32.3748 44C32.3748 44.5967 32.6118 45.169 33.0338 45.591C33.4557 46.0129 34.028 46.25 34.6248 46.25C35.2215 46.25 35.7938 46.0129 36.2158 45.591C36.6377 45.169 36.8748 44.5967 36.8748 44C36.8748 43.4033 36.6377 42.831 36.2158 42.409C35.7938 41.9871 35.2215 41.75 34.6248 41.75C34.028 41.75 33.4557 41.9871 33.0338 42.409C32.6118 42.831 32.3748 43.4033 32.3748 44ZM63.3685 35.8625C62.3092 33.3453 60.7904 31.0859 58.8545 29.1453C56.9321 27.2159 54.6499 25.6823 52.1373 24.6313C49.5592 23.5484 46.8217 23 43.9998 23H43.906C41.0654 23.0141 38.3138 23.5766 35.7263 24.6828C33.2352 25.7446 30.9745 27.281 29.0701 29.2062C27.1529 31.1422 25.6482 33.3922 24.6076 35.9C23.5295 38.4969 22.9857 41.2578 22.9998 44.0984C23.0157 47.3538 23.7858 50.5611 25.2498 53.4688V60.5938C25.2498 61.1656 25.477 61.7141 25.8813 62.1185C26.2857 62.5228 26.8342 62.75 27.406 62.75H34.5357C37.4433 64.2139 40.6507 64.9841 43.906 65H44.0045C46.8123 65 49.5357 64.4562 52.0998 63.3922C54.5997 62.3537 56.8734 60.8379 58.7935 58.9297C60.7295 57.0125 62.2529 54.7719 63.317 52.2734C64.4232 49.6859 64.9857 46.9344 64.9998 44.0938C65.0138 41.2391 64.4607 38.4688 63.3685 35.8625ZM56.2857 56.3938C52.9998 59.6469 48.6404 61.4375 43.9998 61.4375H43.9201C41.0935 61.4234 38.2857 60.7203 35.806 59.3984L35.4123 59.1875H28.8123V52.5875L28.6013 52.1937C27.2795 49.7141 26.5763 46.9062 26.5623 44.0797C26.5435 39.4062 28.3295 35.0187 31.606 31.7141C34.8779 28.4094 39.2513 26.5812 43.9248 26.5625H44.0045C46.3482 26.5625 48.6217 27.0172 50.7638 27.9172C52.8545 28.7937 54.7295 30.0547 56.342 31.6672C57.9498 33.275 59.2154 35.1547 60.092 37.2453C61.0013 39.4109 61.456 41.7078 61.4467 44.0797C61.4185 48.7484 59.5857 53.1219 56.2857 56.3938Z" fill="#FFB4C6"/>
</svg>
