<svg width="38" height="34" viewBox="0 0 38 34" fill="none" xmlns="http://www.w3.org/2000/svg">
<path d="M14.2548 11.0625C14.2548 12.0073 13.8794 12.9135 13.2113 13.5816C12.5432 14.2497 11.6371 14.625 10.6923 14.625C9.74743 14.625 8.84129 14.2497 8.17319 13.5816C7.50509 12.9135 7.12976 12.0073 7.12976 11.0625C7.12976 10.1177 7.50509 9.21153 8.17319 8.54343C8.84129 7.87533 9.74743 7.5 10.6923 7.5C11.6371 7.5 12.5432 7.87533 13.2113 8.54343C13.8794 9.21153 14.2548 10.1177 14.2548 11.0625Z" fill="#FFB4C6"/>
<path d="M4.75476 0.375C3.49498 0.375 2.2868 0.875445 1.396 1.76624C0.505206 2.65704 0.00476074 3.86522 0.00476074 5.125V28.875C0.00476074 30.1348 0.505206 31.343 1.396 32.2338C2.2868 33.1246 3.49498 33.625 4.75476 33.625H33.2548C34.5145 33.625 35.7227 33.1246 36.6135 32.2338C37.5043 31.343 38.0048 30.1348 38.0048 28.875V5.125C38.0048 3.86522 37.5043 2.65704 36.6135 1.76624C35.7227 0.875445 34.5145 0.375 33.2548 0.375H4.75476ZM33.2548 2.75C33.8847 2.75 34.4887 3.00022 34.9341 3.44562C35.3795 3.89102 35.6298 4.49511 35.6298 5.125V20.5625L26.6594 15.9384C26.4367 15.8268 26.1845 15.7881 25.9386 15.8277C25.6926 15.8674 25.4654 15.9834 25.289 16.1593L16.4778 24.9705L10.1603 20.762C9.93217 20.6101 9.65857 20.5418 9.38587 20.5687C9.11316 20.5955 8.85813 20.7158 8.66401 20.9093L2.37976 26.5V5.125C2.37976 4.49511 2.62998 3.89102 3.07538 3.44562C3.52078 3.00022 4.12487 2.75 4.75476 2.75H33.2548Z" fill="#FFB4C6"/>
</svg>
