<svg width="42" height="42" viewBox="0 0 42 42" fill="none" xmlns="http://www.w3.org/2000/svg">
<path d="M18.75 21C18.75 21.5967 18.9871 22.169 19.409 22.591C19.831 23.0129 20.4033 23.25 21 23.25C21.5968 23.25 22.1691 23.0129 22.591 22.591C23.013 22.169 23.25 21.5967 23.25 21C23.25 20.4033 23.013 19.831 22.591 19.409C22.1691 18.9871 21.5968 18.75 21 18.75C20.4033 18.75 19.831 18.9871 19.409 19.409C18.9871 19.831 18.75 20.4033 18.75 21ZM28.125 21C28.125 21.5967 28.3621 22.169 28.784 22.591C29.206 23.0129 29.7783 23.25 30.375 23.25C30.9718 23.25 31.5441 23.0129 31.966 22.591C32.388 22.169 32.625 21.5967 32.625 21C32.625 20.4033 32.388 19.831 31.966 19.409C31.5441 18.9871 30.9718 18.75 30.375 18.75C29.7783 18.75 29.206 18.9871 28.784 19.409C28.3621 19.831 28.125 20.4033 28.125 21ZM9.37502 21C9.37502 21.5967 9.61207 22.169 10.034 22.591C10.456 23.0129 11.0283 23.25 11.625 23.25C12.2218 23.25 12.7941 23.0129 13.216 22.591C13.638 22.169 13.875 21.5967 13.875 21C13.875 20.4033 13.638 19.831 13.216 19.409C12.7941 18.9871 12.2218 18.75 11.625 18.75C11.0283 18.75 10.456 18.9871 10.034 19.409C9.61207 19.831 9.37502 20.4033 9.37502 21ZM40.3688 12.8625C39.3094 10.3453 37.7906 8.08594 35.8547 6.14531C33.9323 4.21592 31.6502 2.68229 29.1375 1.63125C26.5594 0.548438 23.8219 0 21 0H20.9063C18.0656 0.0140625 15.3141 0.576563 12.7266 1.68281C10.2354 2.74463 7.97469 4.28099 6.07033 6.20625C4.15315 8.14219 2.64846 10.3922 1.60783 12.9C0.529709 15.4969 -0.0140407 18.2578 2.17939e-05 21.0984C0.0159277 24.3538 0.786077 27.5611 2.25002 30.4688V37.5938C2.25002 38.1656 2.4772 38.7141 2.88157 39.1185C3.28595 39.5228 3.8344 39.75 4.40627 39.75H11.536C14.4436 41.2139 17.6509 41.9841 20.9063 42H21.0047C23.8125 42 26.536 41.4562 29.1 40.3922C31.6 39.3537 33.8736 37.8379 35.7938 35.9297C37.7297 34.0125 39.2531 31.7719 40.3172 29.2734C41.4235 26.6859 41.986 23.9344 42 21.0938C42.0141 18.2391 41.461 15.4688 40.3688 12.8625ZM33.286 33.3938C30 36.6469 25.6406 38.4375 21 38.4375H20.9203C18.0938 38.4234 15.286 37.7203 12.8063 36.3984L12.4125 36.1875H5.81252V29.5875L5.60158 29.1937C4.27971 26.7141 3.57658 23.9062 3.56252 21.0797C3.54377 16.4062 5.32971 12.0187 8.60627 8.71406C11.8781 5.40937 16.2516 3.58125 20.925 3.5625H21.0047C23.3485 3.5625 25.6219 4.01719 27.7641 4.91719C29.8547 5.79375 31.7297 7.05469 33.3422 8.66719C34.95 10.275 36.2156 12.1547 37.0922 14.2453C38.0016 16.4109 38.4563 18.7078 38.4469 21.0797C38.4188 25.7484 36.586 30.1219 33.286 33.3938Z" fill="#FFB4C6"/>
</svg>
