<svg width="30" height="30" viewBox="0 0 30 30" fill="none" xmlns="http://www.w3.org/2000/svg">
<path d="M9.66663 1.66675H4.33329C2.86053 1.66675 1.66663 2.86066 1.66663 4.33341V25.6667C1.66663 27.1395 2.86053 28.3334 4.33329 28.3334H9.66663C11.1394 28.3334 12.3333 27.1395 12.3333 25.6667V4.33341C12.3333 2.86066 11.1394 1.66675 9.66663 1.66675Z" stroke="#FFB4C6" stroke-width="3" stroke-linecap="round" stroke-linejoin="round"/>
<path d="M25.6666 1.66675H20.3333C18.8605 1.66675 17.6666 2.86066 17.6666 4.33341V9.66675C17.6666 11.1395 18.8605 12.3334 20.3333 12.3334H25.6666C27.1394 12.3334 28.3333 11.1395 28.3333 9.66675V4.33341C28.3333 2.86066 27.1394 1.66675 25.6666 1.66675Z" stroke="#FFB4C6" stroke-width="3" stroke-linecap="round" stroke-linejoin="round"/>
<path d="M25.6666 17.6667H20.3333C18.8605 17.6667 17.6666 18.8607 17.6666 20.3334V25.6667C17.6666 27.1395 18.8605 28.3334 20.3333 28.3334H25.6666C27.1394 28.3334 28.3333 27.1395 28.3333 25.6667V20.3334C28.3333 18.8607 27.1394 17.6667 25.6666 17.6667Z" stroke="#FFB4C6" stroke-width="3" stroke-linecap="round" stroke-linejoin="round"/>
</svg>
