<svg width="42" height="41" viewBox="0 0 42 41" fill="none" xmlns="http://www.w3.org/2000/svg">
<path d="M20.9891 38.5887V21.4731M20.9891 38.5887L16.2348 34.7853M20.9891 38.5887L25.7435 34.7853M7.74159 14.0886C5.94295 14.5412 4.37148 15.635 3.32243 17.1646C2.27338 18.6941 1.81897 20.5541 2.04456 22.395C2.27016 24.236 3.16023 25.9312 4.54755 27.1621C5.93488 28.3931 7.72396 29.0751 9.57867 29.08H11.4804" stroke="#FFB4C6" stroke-width="3" stroke-linecap="round" stroke-linejoin="round"/>
<path d="M28.2727 10.3251C27.6227 7.75122 26.0183 5.5208 23.7848 4.08597C21.5513 2.65114 18.8558 2.11926 16.2446 2.59814C13.6335 3.07702 11.3022 4.53084 9.72321 6.66488C8.14424 8.79893 7.4358 11.4535 7.74148 14.0905C7.74148 14.0905 8.03245 15.7679 8.62769 16.7187" stroke="#FFB4C6" stroke-width="3" stroke-linecap="round" stroke-linejoin="round"/>
<path d="M30.4978 29.0801C31.8405 29.0792 33.1677 28.794 34.3923 28.2431C35.6168 27.6923 36.7107 26.8883 37.6021 25.8842C38.4935 24.8801 39.1622 23.6986 39.5641 22.4174C39.966 21.1363 40.0919 19.7846 39.9338 18.4512C39.7756 17.1179 39.3368 15.8331 38.6463 14.6816C37.9558 13.53 37.0293 12.5378 35.9277 11.7701C34.8261 11.0024 33.5744 10.4768 32.255 10.2277C30.9356 9.97869 29.5784 10.0119 28.2727 10.3252L25.7434 11.0136" stroke="#FFB4C6" stroke-width="3" stroke-linecap="round" stroke-linejoin="round"/>
</svg>
