<svg width="123" height="86" viewBox="0 0 123 86" fill="none" xmlns="http://www.w3.org/2000/svg">
<path d="M6.72264 6.68442C57.1242 -0.771314 96.6054 0.0586961 89.8852 62.1862" stroke="#FFB4C6" stroke-width="2" stroke-dasharray="4 4"/>
<g clip-path="url(#clip0_11_2322)">
<path d="M103.515 44.2632C103.707 44.17 103.924 44.1396 104.135 44.1762C104.346 44.2128 104.539 44.3147 104.687 44.4671C104.836 44.6194 104.931 44.8144 104.959 45.0236C104.987 45.2328 104.947 45.4455 104.845 45.6309L88.6347 74.8851C88.5449 75.047 88.4112 75.1811 88.2485 75.2723C88.0858 75.3635 87.9006 75.4083 87.7135 75.4015C87.5265 75.3948 87.3451 75.3368 87.1896 75.2342C87.0341 75.1315 86.9106 74.9882 86.833 74.8202L72.8239 44.4813C72.7363 44.2904 72.7121 44.0771 72.7548 43.8719C72.7974 43.6666 72.9048 43.4799 73.0615 43.3384C73.2182 43.1969 73.4162 43.1079 73.6273 43.084C73.8383 43.0601 74.0517 43.1026 74.2368 43.2054L88.8976 51.373L103.515 44.2632Z" fill="#FFB4C6"/>
<path fill-rule="evenodd" clip-rule="evenodd" d="M106.608 46.7604L91.9889 53.8715L77.3311 45.7013C77.146 45.5985 76.9326 45.556 76.7216 45.5799C76.5105 45.6038 76.3125 45.6928 76.1558 45.8343C75.9991 45.9758 75.8917 46.1625 75.8491 46.3678C75.8064 46.573 75.8306 46.7863 75.9182 46.9772L89.9258 77.3174C90.0034 77.4853 90.1268 77.6287 90.2823 77.7314C90.4379 77.834 90.6193 77.892 90.8063 77.8987C90.9933 77.9055 91.1786 77.8607 91.3413 77.7695C91.504 77.6783 91.6377 77.5442 91.7275 77.3823L107.938 48.128C108.04 47.9427 108.08 47.73 108.052 47.5208C108.024 47.3116 107.928 47.1166 107.78 46.9643C107.632 46.8119 107.439 46.71 107.228 46.6734C107.017 46.6367 106.8 46.6672 106.608 46.7604ZM104.64 49.9334L90.9254 74.685L79.0361 48.9343L91.4618 55.8608C91.6046 55.94 91.7648 55.9837 91.9286 55.9881C92.0923 55.9926 92.2547 55.9575 92.4017 55.8861L104.64 49.9334Z" fill="#00C2FF"/>
<path d="M92.1855 75.673L90.1751 75.5314L91.7408 53.9204L93.7513 54.0621L92.1855 75.673Z" fill="#00C2FF"/>
</g>
<defs>
<clipPath id="clip0_11_2322">
<rect width="40.0284" height="40.0479" fill="white" transform="matrix(-0.76116 0.650474 -0.659333 -0.750201 117.78 56.82)"/>
</clipPath>
</defs>
</svg>
